<svg id="圖層_2" data-name="圖層 2" xmlns="http://www.w3.org/2000/svg" viewBox="0 0 318.82 412.09"><defs><style>.cls-1,.cls-3{fill:#eb6100;}.cls-1,.cls-2{fill-rule:evenodd;}.cls-2{fill:#fcc800;}</style></defs><title>babu</title><path class="cls-1" d="M167.29,343.17c-57.27,0-104.91-34.58-121.38-88.08A156.41,156.41,0,0,1,41.73,180C46,156.6,55.15,133.13,69,110.25c13.36-22.09,42.9-55.73,71.35-74.54,14.71-9.81,27.95-15,38.31-15a27.43,27.43,0,0,1,3.44.2c13.24,1.45,28.14,8.46,42.09,19.73,13.05,10.56,24.39,24.14,31.11,37.28,10.06,19.84,8.08,27.6-10.12,39.48-5.77,3.7-12.51,6.82-19.65,10.12-4.7,2.17-9.55,4.42-14.26,6.91-9.19,4.73-23.27,12-24.4,25.84-1,12.26,8.89,21.1,16.42,26.69,10.2,7.58,21.52,13.88,32.47,20,30.67,17.08,49.39,28.79,47.88,53-1.39,24.57-17.85,47.25-46.33,63.95a138.12,138.12,0,0,1-70,19.21Zm1.33-287c-23.45,0-48.56,17-68.87,46.55-21.37,31-30.74,67.91-27.84,109.64,3.85,53.84,29.32,83.09,75.72,87l.33,0h.33c.89,0,1.79,0,2.68,0,28.75,0,58.15-13.24,68.39-30.79,5.44-9.33,5.6-19.47.46-28.56l-.22-.38-.24-.36c-8-12.15-21.65-22.26-39.63-33.69l-.13-.09c-.87-.53-1.69-1.07-2.5-1.61l-5.26-3.35c-19.24-12.22-41.05-26.08-39.88-37.27l0-.23c.67-7.89,21.58-19.41,35.42-27,20.48-11.29,39.83-22,43.8-38.54,1.55-6.19,1.41-16-8.28-26.63l-.3-.33-.33-.3C192.66,61,181,56.15,168.62,56.15Z" transform="translate(-39.01 -20.73)"/><path class="cls-2" d="M341.84,126a43.31,43.31,0,0,0-60.92,6.48A42.54,42.54,0,0,0,271.77,154l-11.44,7.29a5,5,0,0,0,.95,8.95l13.07,4.85A43.18,43.18,0,1,0,341.84,126Z" transform="translate(-39.01 -20.73)"/><path class="cls-3" d="M105.16,404.87a12.31,12.31,0,0,1,3.58,2.36,12.63,12.63,0,0,1,2.32,3,12.23,12.23,0,0,1,1.25,3.4,16.27,16.27,0,0,1,.37,3.39,15.26,15.26,0,0,1-1.25,6.12,13.39,13.39,0,0,1-3.87,5,19.16,19.16,0,0,1-6.6,3.36,32.56,32.56,0,0,1-9.44,1.21H75.67v-53H93.51q8.85,0,13.57,3.43t4.72,10.28a16.74,16.74,0,0,1-.33,3.28,12.19,12.19,0,0,1-1.11,3.17,11.12,11.12,0,0,1-5.2,5ZM84.88,388.94v34.59H93a16.61,16.61,0,0,0,7.75-1.59,5.21,5.21,0,0,0,3-4.9,5.9,5.9,0,0,0-2.06-4.94,8,8,0,0,0-5.09-1.63H90.27v-9.21h6.34a6.89,6.89,0,0,0,4.72-1.51,6,6,0,0,0,1.69-4.69,5,5,0,0,0-2.32-4.71q-2.33-1.41-7.71-1.41Z" transform="translate(-39.01 -20.73)"/><path class="cls-3" d="M150.36,382.16a6.08,6.08,0,0,1,2.4-2.1,6.86,6.86,0,0,1,2.91-.63,3.55,3.55,0,0,1,2.84,1.26,4.93,4.93,0,0,1,1.07,3.31v48.82h-9.22V397l-22.71,35.84h-11Z" transform="translate(-39.01 -20.73)"/><path class="cls-3" d="M203.09,404.87a12.45,12.45,0,0,1,3.58,2.36,12.89,12.89,0,0,1,2.32,3,12.23,12.23,0,0,1,1.25,3.4,16.27,16.27,0,0,1,.37,3.39,15.26,15.26,0,0,1-1.25,6.12,13.39,13.39,0,0,1-3.87,5,19.16,19.16,0,0,1-6.6,3.36,32.56,32.56,0,0,1-9.44,1.21H173.6v-53h17.84q8.85,0,13.57,3.43t4.72,10.28a16.76,16.76,0,0,1-.34,3.28,12.16,12.16,0,0,1-1.1,3.17,11.12,11.12,0,0,1-5.2,5Zm-20.28-15.93v34.59h8.11a16.61,16.61,0,0,0,7.75-1.59,5.21,5.21,0,0,0,3-4.9,5.88,5.88,0,0,0-2.07-4.94,8,8,0,0,0-5.08-1.63H188.2v-9.21h6.34a6.91,6.91,0,0,0,4.72-1.51,6,6,0,0,0,1.69-4.69,5,5,0,0,0-2.32-4.71q-2.32-1.41-7.71-1.41Z" transform="translate(-39.01 -20.73)"/><path class="cls-3" d="M261.86,379.8v29.13q0,11.43-5.35,17.66t-14.93,6.23h-1.77q-9.66,0-15-6.2t-5.31-17.69V379.8h9.22v29.13a32.24,32.24,0,0,0,.63,6.93,11.39,11.39,0,0,0,2,4.53,7.23,7.23,0,0,0,3.43,2.47,15.33,15.33,0,0,0,5.05.74h1.77a14.31,14.31,0,0,0,5-.78,7.7,7.7,0,0,0,3.46-2.47,10.84,10.84,0,0,0,2-4.49,32.24,32.24,0,0,0,.63-6.93V379.8Z" transform="translate(-39.01 -20.73)"/><path class="cls-1" d="M155.22,97.73a5.3,5.3,0,1,1-7.15-2.25A5.3,5.3,0,0,1,155.22,97.73Z" transform="translate(-39.01 -20.73)"/><path class="cls-1" d="M180.26,84.64a5.3,5.3,0,1,1-7.15-2.24A5.29,5.29,0,0,1,180.26,84.64Z" transform="translate(-39.01 -20.73)"/></svg>