<svg id="圖層_12" data-name="圖層 12" xmlns="http://www.w3.org/2000/svg" viewBox="0 0 512 512"><defs><style>.cls-1{fill:#473b33;}</style></defs><title>head-vip</title><path class="cls-1" d="M457,60.1H200.43a40.05,40.05,0,0,0-40,40v25.7H55a40,40,0,0,0-40,40v181a40,40,0,0,0,40,40H66.81v55.1a10,10,0,0,0,15.42,8.4l98.43-63.5H283.78a40,40,0,0,0,40-40V315.13H338.1L431,390.9a10,10,0,0,0,16.32-7.75v-68H457a40,40,0,0,0,40-40v-175A40,40,0,0,0,457,60.1ZM303.79,346.8a20,20,0,0,1-20,20H177.72a10,10,0,0,0-5.42,1.6L86.81,423.56V376.8a10,10,0,0,0-10-10H55a20,20,0,0,1-20-20v-181a20,20,0,0,1,20-20H160.43V275.13a40.05,40.05,0,0,0,40,40H303.79ZM477,275.13a20,20,0,0,1-20,20H437.27a10,10,0,0,0-10,10v57L348,297.38a10,10,0,0,0-6.32-2.25H200.43a20,20,0,0,1-20-20v-175a20,20,0,0,1,20-20H457a20,20,0,0,1,20,20Z"/></svg>