<svg id="圖層_12" data-name="圖層 12" xmlns="http://www.w3.org/2000/svg" viewBox="0 0 512 512"><defs><style>.cls-1{fill:#473b33;}</style></defs><title>head-vip</title><path class="cls-1" d="M436.06,306.47a10,10,0,0,0-10,10v88.68a30,30,0,0,1-30,30H115.89a30,30,0,0,1-30-30V144.88a30,30,0,0,1,30-30h88.67a10,10,0,1,0,0-20H115.89A50,50,0,0,0,66,144.88V405.13a50,50,0,0,0,49.94,49.94H396.11a50,50,0,0,0,49.94-49.94V316.45A10,10,0,0,0,436.06,306.47Z"/><path class="cls-1" d="M450.42,70.1a45,45,0,0,0-63.56,0L208.69,248.27a10,10,0,0,0-2.56,4.4L182.7,337.26A10,10,0,0,0,195,349.55l84.58-23.44a10,10,0,0,0,4.4-2.56L462.14,145.37a45,45,0,0,0,0-63.55Zm-220,184.66L376.27,108.94l47,47L277.48,301.79Zm-9.39,18.85,37.57,37.58-52,14.4ZM448,131.25l-10.59,10.59-47-47L401,84.22a25,25,0,0,1,35.31,0L448,95.94A25,25,0,0,1,448,131.25Z"/></svg>