<svg id="圖層_1" data-name="圖層 1" xmlns="http://www.w3.org/2000/svg" viewBox="0 0 24 24"><defs><style>.cls-1{fill-rule:evenodd;}</style></defs><title>fot-icon01</title><path class="cls-1" d="M21.5,19.52A5.64,5.64,0,0,0,24,15c0-3.33-3.24-6-7.23-6s-7.23,2.7-7.23,6,3.24,6,7.23,6a8.26,8.26,0,0,0,2.36-.33l.21,0a.88.88,0,0,1,.39.11l1.58.92.14,0a.24.24,0,0,0,.24-.24l0-.17-.32-1.22,0-.15A.49.49,0,0,1,21.5,19.52ZM8.68,2.3C3.88,2.3,0,5.53,0,9.53A6.82,6.82,0,0,0,3,15a.59.59,0,0,1,.24.47l0,.18L2.82,17.1l0,.21a.29.29,0,0,0,.29.29l.17-.05,1.9-1.1a.91.91,0,0,1,.46-.13l.25,0a10.53,10.53,0,0,0,2.84.39h.47A5.47,5.47,0,0,1,8.86,15c0-3.64,3.54-6.59,7.91-6.59h.47C16.59,4.94,13,2.3,8.68,2.3ZM14.36,14a1,1,0,1,1,1-1A1,1,0,0,1,14.36,14Zm4.82,0a1,1,0,1,1,1-1A1,1,0,0,1,19.18,14ZM5.78,8.37A1.16,1.16,0,1,1,6.94,7.21,1.15,1.15,0,0,1,5.78,8.37Zm5.79,0a1.16,1.16,0,1,1,0-2.31,1.16,1.16,0,0,1,0,2.31Z"/></svg>