<svg id="Layer_1" data-name="Layer 1" xmlns="http://www.w3.org/2000/svg" viewBox="0 0 169.1 169.1"><title>fot-icon04</title><path d="M122.4,0H46.7A46.69,46.69,0,0,0,0,46.7v75.8a46.75,46.75,0,0,0,46.7,46.7h75.8a46.75,46.75,0,0,0,46.7-46.7V46.7A46.9,46.9,0,0,0,122.4,0Zm31.7,122.4a31.71,31.71,0,0,1-31.7,31.7H46.7A31.71,31.71,0,0,1,15,122.4V46.7A31.71,31.71,0,0,1,46.7,15h75.8a31.71,31.71,0,0,1,31.7,31.7l-.1,75.7Z"/><path d="M84.5,41a43.55,43.55,0,1,0,43.7,43.5A43.53,43.53,0,0,0,84.5,41Zm0,72.1a28.55,28.55,0,1,1,28.6-28.5A28.66,28.66,0,0,1,84.5,113.1Z"/><path d="M129.9,28.3a11.4,11.4,0,0,0-7.8,3.2,10.8,10.8,0,0,0-3.2,7.8,11.4,11.4,0,0,0,3.2,7.8,11.22,11.22,0,0,0,7.8,3.2,11.4,11.4,0,0,0,7.8-3.2,10.8,10.8,0,0,0,3.2-7.8,11.4,11.4,0,0,0-3.2-7.8A10.8,10.8,0,0,0,129.9,28.3Z"/></svg>