<?xml version="1.0" encoding="utf-8"?>
<!-- Generator: Adobe Illustrator 23.0.5, SVG Export Plug-In . SVG Version: 6.00 Build 0)  -->
<svg version="1.1" id="圖層_1" xmlns="http://www.w3.org/2000/svg" xmlns:xlink="http://www.w3.org/1999/xlink" x="0px" y="0px"
	 viewBox="0 0 50 50" style="enable-background:new 0 0 50 50;" xml:space="preserve">
<style type="text/css">
	.st0{fill:#FFFFFF;}
	.st1{fill:none;stroke:#FFFFFF;stroke-width:2;stroke-miterlimit:10;}
	.st2{fill:none;stroke:#FFFFFF;stroke-miterlimit:10;}
</style>
<title>fot-bot-icon</title>
<path class="st0" d="M32.4,42.1c0.1,0.3,0.2,0.5,0.2,0.8c0,0.4-0.1,0.7-0.3,1.1c-0.2,0.3-0.5,0.6-0.9,0.8l-1.7,0.8
	c-0.6,0.3-1.3,0.5-2,0.7c-1.8,0.4-3.6,0.3-5.4-0.3c-1.1-0.4-2.2-0.9-3.1-1.6c-1-0.7-2-1.6-2.8-2.5c-0.9-1-1.7-2.1-2.4-3.3
	c-0.4-0.7-0.9-1.4-1.4-2.3c-0.4-0.7-0.9-1.6-1.4-2.6s-1.1-2.1-1.6-3.4s-1-2.3-1.3-3.3s-0.6-1.7-0.8-2.3c-0.2-0.6-0.3-1.2-0.4-1.8
	C6.9,21.9,6.7,21,6.6,20c-0.1-0.9-0.2-1.9-0.2-2.8c0-1.2,0.1-2.3,0.4-3.5c0.2-1.1,0.6-2.1,1.1-3.1c0.5-1,1.1-1.8,1.9-2.6
	c0.8-0.8,1.7-1.4,2.7-1.8l1.7-0.8c0.3-0.1,0.6-0.2,0.8-0.1c0.4,0,0.7,0.1,1,0.3c0.3,0.2,0.6,0.5,0.7,0.9l3.3,7.5
	c0.1,0.3,0.2,0.5,0.2,0.8c0,0.4-0.1,0.8-0.3,1.1c-0.2,0.3-0.5,0.6-0.9,0.8l-3.4,1.6c-0.4,0.2-0.8,0.5-1,0.9
	c-0.2,0.4-0.4,0.8-0.4,1.3c0,0.3,0.1,0.7,0.2,1L20,34c0.2,0.4,0.5,0.8,0.9,1.1c0.4,0.2,0.8,0.3,1.3,0.3c0.3,0,0.6-0.1,0.9-0.2
	l3.4-1.5c0.3-0.1,0.5-0.2,0.8-0.2c0.4,0,0.7,0.1,1.1,0.3c0.3,0.2,0.6,0.5,0.8,0.9L32.4,42.1z"/>
<path class="st1" d="M27.6,8.3c1.5,0.1,3,0.7,4.3,1.5c4.3,2.9,5.4,8.6,2.5,12.9"/>
<path class="st2" d="M35.3,3.5c5.1,0.5,8.9,5.1,8.3,10.2c-0.2,1.5-0.7,3-1.5,4.3"/>
</svg>
