<?xml version="1.0" encoding="utf-8"?>
<!-- Generator: Adobe Illustrator 23.0.5, SVG Export Plug-In . SVG Version: 6.00 Build 0)  -->
<svg version="1.1" id="圖層_1" xmlns="http://www.w3.org/2000/svg" xmlns:xlink="http://www.w3.org/1999/xlink" x="0px" y="0px"
	 viewBox="0 0 50 50" style="enable-background:new 0 0 50 50;" xml:space="preserve">
<style type="text/css">
	.st0{fill:#FFFFFF;}
</style>
<title>fot-bot-icon</title>
<path class="st0" d="M9.2,34.9l23.1-23.2l6,6.1L15.2,41L9.2,34.9z"/>
<path class="st0" d="M45.1,11c0.4-0.4,0.4-1.1,0-1.5c0,0,0,0,0,0l-4.5-4.5c-0.4-0.4-1.1-0.4-1.5,0l-5.3,5.2l6,6L45.1,11z"/>
<path class="st0" d="M4.6,45.4l8.9-3.2L8,36.7L4.6,45.4z"/>
<path class="st0" d="M43.6,20l-3.8-3.8l-1.5,1.5l3,3l-8.1,8c-0.4,0.4-0.4,1.1,0,1.5c0,0,0,0,0,0c0.4,0.4,1.1,0.4,1.5,0c0,0,0,0,0,0
	l8.9-8.8c0.2-0.2,0.3-0.5,0.3-0.8C43.9,20.4,43.8,20.2,43.6,20L43.6,20z"/>
</svg>
