<?xml version="1.0" encoding="utf-8"?>
<!-- Generator: Adobe Illustrator 23.0.5, SVG Export Plug-In . SVG Version: 6.00 Build 0)  -->
<svg version="1.1" id="圖層_1" xmlns="http://www.w3.org/2000/svg" xmlns:xlink="http://www.w3.org/1999/xlink" x="0px" y="0px"
	 viewBox="0 0 24 24" style="enable-background:new 0 0 24 24;" xml:space="preserve">
<style type="text/css">
	.st0{fill:#07C563;}
	.st1{fill-rule:evenodd;clip-rule:evenodd;fill:#FFFFFF;}
	.st2{fill-rule:evenodd;clip-rule:evenodd;fill:#07C563;}
</style>
<g>
	<circle class="st0" cx="12" cy="12" r="12"/>
	<path class="st1" d="M18.5,17.1c1-0.7,1.7-1.8,1.7-3c0-2.2-2.2-4-4.8-4c-2.7,0-4.8,1.8-4.8,4s2.2,4,4.8,4c0.6,0,1.1-0.1,1.6-0.2
		l0.1,0c0.1,0,0.2,0,0.3,0.1l1.1,0.6l0.1,0c0.1,0,0.2-0.1,0.2-0.2l0-0.1l-0.2-0.8l0-0.1C18.3,17.2,18.4,17.2,18.5,17.1z"/>
	<path class="st1" d="M9.9,5.6c-3.2,0-5.8,2.2-5.8,4.8c0,1.5,0.8,2.8,2,3.6c0.1,0.1,0.2,0.2,0.2,0.3l0,0.1l-0.3,1l0,0.1
		c0,0.1,0.1,0.2,0.2,0.2l0.1,0L7.6,15C7.6,15,7.7,15,7.9,15L8,15c0.6,0.2,1.2,0.3,1.9,0.3l0.3,0c-0.1-0.4-0.2-0.8-0.2-1.2
		c0-2.4,2.4-4.4,5.3-4.4l0.3,0C15.2,7.4,12.8,5.6,9.9,5.6z"/>
	<path class="st2" d="M13.7,13.4c-0.4,0-0.6-0.3-0.6-0.6c0-0.4,0.3-0.6,0.6-0.6c0.4,0,0.6,0.3,0.6,0.6S14.1,13.4,13.7,13.4z"/>
	<path class="st2" d="M16.9,13.4c-0.4,0-0.6-0.3-0.6-0.6c0-0.4,0.3-0.6,0.6-0.6s0.6,0.3,0.6,0.6S17.3,13.4,16.9,13.4z"/>
	<path class="st2" d="M8,9.7c-0.4,0-0.8-0.3-0.8-0.8S7.6,8.1,8,8.1c0.4,0,0.8,0.3,0.8,0.8S8.4,9.7,8,9.7z"/>
	<circle class="st2" cx="11.8" cy="8.9" r="0.8"/>
</g>
</svg>
