<?xml version="1.0" encoding="utf-8"?>
<!-- Generator: Adobe Illustrator 23.0.5, SVG Export Plug-In . SVG Version: 6.00 Build 0)  -->
<svg version="1.1" id="圖層_1" xmlns="http://www.w3.org/2000/svg" xmlns:xlink="http://www.w3.org/1999/xlink" x="0px" y="0px"
	 viewBox="0 0 695 370" style="enable-background:new 0 0 695 370;" xml:space="preserve">
<style type="text/css">
	.st0{opacity:0.95;}
	.st1{fill:#7A1D1E;}
	.st2{opacity:0.1;}
	.st3{opacity:0.8;}
	.st4{fill:#FFFFFF;}
	.st5{opacity:0.35;fill:none;stroke:#FFFFFF;stroke-width:8;stroke-miterlimit:10;enable-background:new    ;}
	.st6{opacity:0.6;fill:#FFFFFF;enable-background:new    ;}
	.st7{opacity:0.78;fill:#FFFFFF;enable-background:new    ;}
	.st8{opacity:0.89;fill:#FFFFFF;enable-background:new    ;}
</style>
<title>item-serv-bg</title>
<g class="st0">
	<rect class="st1" width="695" height="370"/>
</g>
<g class="st2">
	<g class="st3">
		<polygon class="st4" points="180.9,191 43.6,323.7 45.7,325.9 183,193.2 		"/>
		<polygon class="st4" points="189.5,200 52.2,332.7 54.2,334.9 191.5,202.2 		"/>
		<polygon class="st4" points="198.1,209.1 60.8,341.8 62.7,343.8 200.1,211.1 		"/>
		<polygon class="st4" points="206.7,218.1 69.3,350.8 71.3,352.8 208.6,220.1 		"/>
		<polygon class="st4" points="215.3,227.1 77.9,359.8 79.8,361.8 217.1,229.1 		"/>
		<polygon class="st4" points="223.9,236.2 86.5,368.9 88.3,370.7 225.6,238 		"/>
		<polygon class="st4" points="232.5,245.2 95.1,377.9 96.8,379.7 234.2,247 		"/>
		<polygon class="st4" points="241.1,254.2 103.7,386.9 105.4,388.7 242.7,256 		"/>
		<polygon class="st4" points="249.6,263.3 112.3,396 113.9,397.6 251.2,264.9 		"/>
		<polygon class="st4" points="258.2,272.3 120.9,405 122.4,406.6 259.8,273.9 		"/>
		<polygon class="st4" points="266.8,281.3 129.5,414 130.9,415.6 268.3,282.9 		"/>
		<polygon class="st4" points="275.4,290.4 138.1,423.1 139.5,424.5 276.8,291.8 		"/>
		<polygon class="st4" points="284,299.4 146.7,432.1 148,433.5 285.3,300.8 		"/>
		<polygon class="st4" points="292.6,308.4 155.3,441.1 156.5,442.5 293.9,309.8 		"/>
		<polygon class="st4" points="301.2,317.5 163.9,450.2 165.1,451.4 302.4,318.7 		"/>
		<polygon class="st4" points="309.8,326.5 172.5,459.2 173.6,460.4 310.9,327.7 		"/>
		<polygon class="st4" points="318.4,335.5 181.1,468.2 182.1,469.3 319.4,336.6 		"/>
	</g>
	
		<rect x="-96.4" y="352.9" transform="matrix(0.7071 -0.7071 0.7071 0.7071 -308.6853 109.7963)" class="st5" width="149.2" height="149.2"/>
	<polygon class="st6" points="76.2,213.8 77.1,228.6 91.6,231.9 77.8,237.4 79,252.1 69.6,240.7 56,246.4 63.9,234 54.2,222.8 
		68.6,226.5 	"/>
	<polygon class="st7" points="50.1,271.5 50.8,281.7 60.7,284 51.2,287.8 52.1,297.9 45.5,290 36.1,294 41.6,285.4 34.9,277.7 
		44.8,280.2 	"/>
	<polygon class="st8" points="28,326.9 28.5,334.2 35.5,335.8 28.8,338.5 29.4,345.8 24.8,340.1 18,343 22,336.8 17.2,331.3 
		24.2,333.2 	"/>
</g>
</svg>
