<?xml version="1.0" encoding="utf-8"?>
<!-- Generator: Adobe Illustrator 23.0.5, SVG Export Plug-In . SVG Version: 6.00 Build 0)  -->
<svg version="1.1" id="圖層_1" xmlns="http://www.w3.org/2000/svg" xmlns:xlink="http://www.w3.org/1999/xlink" x="0px" y="0px"
	 viewBox="0 0 596.3 361.2" style="enable-background:new 0 0 596.3 361.2;" xml:space="preserve">
<style type="text/css">
	.st0{fill:#005EAD;}
	.st1{fill:#D61518;}
</style>
<path id="XMLID_990_" class="st0" d="M556.8,25.9V146c0,15-3.7,26.6-11,34.5c-7.2,7.7-17.5,11.5-31.4,11.5
	c-13.6,0-24.1-3.6-32.1-11.1c-7.8-7.3-11.7-19.4-11.7-35.9V25.9h-36.1v119.9c0,23.9,7,43.4,20.8,57.9c14,14.7,33.7,22.2,58.5,22.2
	c24.6,0,44.2-7.3,58.2-21.7c13.9-14.3,20.9-34.2,20.9-59.4V25.9H556.8z"/>
<path id="XMLID_987_" class="st0" d="M201.2,25.4H95.9v33.3h105.3C201.2,58.7,201.2,31.8,201.2,25.4z"/>
<path id="XMLID_986_" class="st1" d="M87.5,0L0,53c3.4,5.4,7.8,9.5,13.1,12.2s11.1,3.8,17.1,3.5c6-0.4,11.7-2.3,17.2-5.6l6.8-4.2
	v166.8c6.4,0,12.2-1.6,17.2-4.7c5.1-3.1,9.1-7.4,11.9-12.7s4.2-11.2,4.2-17.6V38.4V0z"/>
<path id="XMLID_984_" class="st0" d="M391.9,74.3c-9-15.2-21.7-27.4-37.8-36.1c-16-8.6-34.3-13-54.4-13h-19.9v34.3h18.9
	c14.5,0,27.2,2.9,37.8,8.7c10.6,5.8,18.6,13.5,24.3,23.6c5.7,10,8.6,21.6,8.6,34.2c0,12.8-2.9,24.3-8.7,34.3
	c-5.8,10-13.9,17.6-24.6,23.3s-23.2,8.6-37.2,8.6h-19.1v34.3h19.9c19.3,0,37.1-4.3,53.1-12.7c16.1-8.5,29-20.6,38.4-35.9
	c9.5-15.4,14.3-33,14.3-52.5C405.5,106.7,400.9,89.5,391.9,74.3z"/>
<rect id="XMLID_983_" x="238" y="25.2" class="st0" width="33.5" height="201.3"/>
<path id="XMLID_982_" class="st0" d="M201.2,109.3H95.9v33.3h105.3C201.2,142.6,201.2,115.7,201.2,109.3z"/>
<path id="XMLID_981_" class="st0" d="M201.2,198.7c0-0.3,0.1-0.5,0.1-0.8h-0.1H96h-0.1v1.5c-0.3,6.8-1.9,13.2-4.9,18.9
	c-2.8,5.3-6.6,9.7-11.2,13.2h86.1c1.8,0,3.6-0.1,5.3-0.4h30C201.2,231.2,201.2,206.2,201.2,198.7z"/>
<path id="XMLID_8238_" class="st0" d="M101.8,350.4h20.6v7.6l-76.1-0.2v-7.6h20.4c-0.7-1.7-1.4-3.3-2.2-4.6l5.2-0.8H57.4v-16.9
	l52.9,0.1v16.9L98,345l6.1,1L101.8,350.4z M78.9,299.4V296l-31.7-0.1v-7.1l31.7,0.1v-4.6H89v4.6l32.5,0.1v7.1L89,296v3.4h25.2v6.7
	L54.5,306v-6.7L78.9,299.4z M120.2,323.7h-9.5v-7.6L57.2,316v7.6h-9.1v-14.5l72,0.1L120.2,323.7z M106.6,325L61,324.9V319l45.6,0.1
	V325z M66.9,334.1v4.6l33.4,0.1v-4.6L66.9,334.1z M93.8,345H74c1.4,2.5,2.3,4.3,2.6,5.4h15C92.3,348.9,93,347.1,93.8,345z"/>
<path id="XMLID_8245_" class="st0" d="M204.8,308c-0.9,6.1-2.1,11.6-3.5,16.6c-1.5,5-3.3,9.5-5.6,13.7c1.9,2.9,4.1,5.5,6.5,7.8
	s5.2,4.2,8.3,5.8c-1.1,1-2.4,2.3-3.7,4c-1.3,1.6-2.4,3.1-3.2,4.5c-2.9-1.7-5.6-3.6-7.9-5.8c-2.3-2.2-4.4-4.6-6.3-7.3
	c-4.5,5.3-10.5,9.8-17.7,13.3c-0.2-0.6-0.6-1.3-1-2.1c-0.5-0.8-1-1.6-1.5-2.4s-1.1-1.6-1.6-2.4c-0.6-0.8-1.1-1.4-1.6-2
	c4-1.7,7.5-3.7,10.4-5.9c2.9-2.3,5.5-4.9,7.8-7.9c-1.2-2.5-2.3-5.1-3.2-7.9s-1.8-5.6-2.5-8.7c-1.2,2-2.5,3.9-3.9,5.6
	c-0.6-0.6-1.4-1.4-2.4-2.3c-1-1-2.1-1.8-3.1-2.6c-1.7,1.9-3.6,3.8-5.6,5.8s-4.1,3.7-6.2,5.3v1.6c2.5-0.2,5-0.3,7.6-0.5
	c2.5-0.2,5.1-0.4,7.6-0.6v8.3c-2.5,0.3-5,0.5-7.6,0.7c-2.5,0.2-5.1,0.4-7.6,0.6v8c0,2.1-0.3,3.7-0.7,4.9c-0.5,1.2-1.5,2.1-3,2.8
	c-1.5,0.7-3.3,1.1-5.2,1.2c-2,0.1-4.3,0.2-6.9,0.2c-0.2-1.3-0.6-2.7-1.1-4.2s-1.1-2.9-1.7-4.1c0.8,0.1,1.6,0.1,2.5,0.1
	c0.8,0,1.6,0,2.3,0c0.8,0,1.4,0,2,0c0.5,0,1,0,1.2-0.1c0.9,0,1.4-0.4,1.4-1.1V344c-2.9,0.3-5.7,0.5-8.3,0.7
	c-2.7,0.2-5.1,0.4-7.4,0.7l-1-8.7c2.4-0.2,5-0.3,7.8-0.5s5.8-0.4,9-0.7v-6.4h3.3c0.8-0.6,1.5-1.3,2.2-1.9c0.7-0.7,1.4-1.4,2.1-2.1
	h-5.9c-4.2,3.3-8.5,6.2-13,8.7c-0.3-0.5-0.8-1-1.3-1.7s-1.1-1.3-1.8-2c-0.6-0.7-1.3-1.4-1.9-2c-0.7-0.7-1.2-1.2-1.7-1.6
	c1.6-0.7,3.1-1.5,4.6-2.4c1.4-0.8,2.9-1.7,4.3-2.6v-3.9h5.3c0.8-0.6,1.6-1.3,2.3-1.9c0.7-0.7,1.5-1.4,2.3-2.1h-16.8v-8.3h12.2v-5.5
	h-9.5v-8.1h9.5v-7.5h9.3v7.5h8.1v5.5c1-1.7,2-3.5,2.9-5.3c0.9-1.9,1.7-3.7,2.5-5.6l9.2,2.6c-1.2,3-2.5,5.9-4,8.6s-3,5.3-4.7,7.9h5.2
	v5.5c1.9-3.8,3.4-8,4.7-12.5s2.3-9.2,3.1-14l10.2,1.5c-0.4,2.3-0.9,4.5-1.4,6.8c-0.5,2.2-1,4.4-1.7,6.6h22.4v8.9L204.8,308z
	 M153.4,305.2h2.8c0.7-0.9,1.3-1.8,1.9-2.7c0.6-0.9,1.2-1.8,1.8-2.8h-6.6L153.4,305.2z M164.2,317.1l2.9,2.3c1.4-1.7,2.8-3.7,4-5.9
	h-10c-0.6,0.7-1.2,1.4-1.8,2.1s-1.2,1.3-1.8,1.9h4.8L164.2,317.1z M185,308c1.1,6.7,2.8,13,5,19c1.1-2.8,2-5.8,2.7-8.9
	s1.3-6.5,1.7-10.1H185z"/>
<path id="XMLID_8250_" class="st0" d="M294.2,300h-16.6c7.7,5.4,13.3,10.1,16.8,13.9l-8.9,5.5c-1.4-1.6-3-3.4-5-5.3
	c-22.4,0.7-41.6,1.2-57.5,1.6l-0.2-8.7l11.7-0.1c1.8-2.5,3.2-4.8,4.4-6.9h-19.1v-8.4l32.1,0.1v-6.9h10.2v6.9l32.1,0.1V300z
	 M283.1,318.9l-0.1,32.7c0,3.5-1,5.9-2.9,7.1c-0.5,0.3-1.1,0.6-1.7,0.8c-2.5,0.8-7.6,1.2-15.2,1.2c-0.4-1.9-1.4-4.4-2.9-7.7
	c4.3,0.3,7.8,0.3,10.7,0.2c1.3-0.1,1.9-0.6,2-1.6v-3.7l-31.9-0.1v12.9h-9.9l0.1-41.7L283.1,318.9z M241.1,341l31.9,0.1v-3.9
	l-31.9-0.1V341z M273,326.7l-31.9-0.1v3.9l31.9,0.1V326.7z M270,300h-18.5c-2.5,3.1-4.4,5.3-5.7,6.8c2.9,0,7.3-0.1,13.4-0.2
	c5.5,0,9.6-0.1,12.3-0.1c-3.3-2.5-5.1-3.9-5.4-4.1L270,300z"/>
<path id="XMLID_8256_" class="st0" d="M386.6,288.7l36,0.1c0,0.1-0.1,1.2-0.2,3.6c-0.6,13.6-1.6,21.8-2.8,24.8
	c-0.3,0.7-0.7,1.2-1,1.7c-1.6,1.7-3.6,2.7-6.1,3c-2.3,0.3-5.5,0.4-9.6,0.2c-0.1-2.8-0.9-5.6-2.5-8.4c2.7,0.2,5.1,0.3,7.2,0.3
	c1.3,0,2.2-0.4,2.7-0.9c1-1.3,1.8-6.7,2.2-16.4h-8.6c-0.9,9.1-3.5,15.9-7.6,20.5c-2.5,2.8-5.7,5.1-9.7,7c-0.9-1.9-2.3-3.8-4.3-5.8
	l-3.6,1.7c-0.4-1.1-0.8-2.2-1.4-3.3c-3.2,0.9-8.1,2.2-14.7,3.9c-6.2,1.6-10.6,2.8-13.1,3.5l-2.4-9.3c2.1-0.4,4.5-0.9,7.1-1.4
	l-1.6-24.6l7.8,2c7.5-2.1,13.3-4,17.3-5.9l6.4,7.2c-6,2.3-13.1,4.2-21.2,5.7l0.8,13.6l9.4-2.1c-1-1.5-2.4-3.7-4.3-6.4l8-3.7
	c4.1,4.9,7.3,9.9,9.7,15c4.1-3.2,6.7-8.2,7.7-14.9c0.1-0.7,0.2-1.5,0.3-2.2h-8L386.6,288.7z M358.7,360.8l0.1-35.5l56.4,0.1
	l-0.1,35.1h-10.2v-2.4l-36.6-0.1v2.7L358.7,360.8z M368.3,350.5h13.4v-5.4h-13.4V350.5z M381.8,333.1h-13.4v5h13.4V333.1z
	 M391.1,350.5H405v-5.4h-13.9V350.5z M405,338.2v-5h-13.9v5H405z"/>
<path id="XMLID_8263_" class="st0" d="M452.1,321.8V343c3.2,4.9,9.5,7.6,18.9,8c11.6,0.5,24.2,0.4,37.8-0.4c1.5,0,2.9-0.1,4.2-0.2
	c-1.4,2.8-2.4,5.7-2.8,8.7c0,0.1,0,0.2,0,0.2c-12.9,0.7-25.5,0.7-37.9,0.2c-0.4-0.1-0.8-0.1-1.2-0.1c-8.8-0.3-15.4-2.4-19.9-6.1
	c-1.1-0.9-2.1-1.9-2.9-2.9c-3.9,3.9-7.3,7.1-10.3,9.7l-4.5-9.2c3.9-2.7,7.1-5.1,9.4-7.1v-13.4h-8.4v-8.7L452.1,321.8z M453.7,311.4
	l-6.7,6.3c-2.5-2.8-6.3-5.8-11.4-9c-0.4-0.3-0.8-0.5-1.2-0.7l6.4-5.8C446.8,305.6,451.1,308.6,453.7,311.4z M454.5,296.9l-5.2,4.4
	c-2.3-3-5.8-6.1-10.4-9.2c-0.5-0.4-1-0.7-1.5-1l6.6-5.6c5.8,3.7,9.8,6.9,12.2,9.7l-0.2,0.2h8.4V285h9.2v10.4h9.1v4.1
	c2.7-4.3,4.7-9.3,6-15l8.4,1.8c-0.3,1.4-1,3.6-2.1,6.7h16.1v7.9h-19.6c-0.8,1.6-1.7,3.2-2.9,4.9h15.6l1.6-0.5l5.2,3.8
	c-2.7,4.1-5.8,8.1-9.3,11.8v1h9.8v7.6h-9.8v10.3c0,3.4-0.8,5.6-2.3,6.8c-0.3,0.2-0.7,0.4-1,0.6c-2,0.9-5.6,1.4-10.8,1.4
	c-0.2-2.1-1.1-4.7-2.7-8c3.3,0.2,5.6,0.2,7,0.1c0.8-0.1,1.3-0.4,1.3-0.9v-10.2h-9.3V322h9.3v-5h2.9c0.6-0.7,1.6-2.1,2.9-4h-12.9
	v-4.9c-2.2-2-4.1-3.5-5.9-4.6H469v6h13.2v3.3c-0.4,16.8-1.1,26.8-1.9,30.1c-0.3,1-0.7,1.8-1.1,2.3c-1.2,1.7-2.8,2.7-4.8,3
	c-1.3,0.2-3.7,0.3-7.3,0.3c-0.2-3.1-0.9-5.7-2.1-7.7c1.5,0.2,3.1,0.2,4.8,0.2c0.9,0,1.6-0.4,2.1-1c0.8-1.2,1.4-8.4,1.8-21.5
	c0-0.4,0-0.8,0-1.3h-4.8c-0.5,13.8-3.9,24-10.1,30.4c-1.3-1.9-3.1-3.6-5.5-5.3c-0.2-0.1-0.3-0.2-0.4-0.2c5.2-6.4,7.8-16,7.9-28.8
	v-9.9h-6.5L454.5,296.9z"/>
<path id="XMLID_8267_" class="st0" d="M575.6,324.4l5.5,4.9c-3.8,2.9-8.6,6-14.5,9.4l29.4,0.1v7.6l-31.7-0.1v5.9
	c0,3.4-0.8,5.7-2.4,6.8c-0.6,0.4-1.3,0.7-2,0.9c-2.3,0.8-6.7,1.3-13.3,1.2h-1.1c-0.4-2.2-1.5-4.9-3.2-8.1c2.7,0.1,6.2,0.2,10.4,0.2
	c1.1-0.2,1.7-0.6,1.8-1.4v-5.6l-31.6-0.1v-7.6l31.6,0.1v-3.7h5c1.6-0.8,3.4-2,5.3-3.3l-27-0.1v-6.8l35.7,0.1L575.6,324.4z
	 M589.9,314.4h6.4v16.7h-9.9v-9.7l-53.9-0.1v9.7h-9.4v-16.7h6.4l-1.5-25.5l5.5,1c2.8-0.8,6.6-2.3,11.4-4.3l4.6,5.3
	c-3.7,1.7-7.7,3-11.8,4l0.1,1.8h11.1v6h-10.7l0.2,2.8h10.8v4c1.4-0.7,3.4-1.7,5.8-3.2c-0.3-0.2-1.8-1-4.6-2.6l4.7-3.6
	c1.4,0.6,3,1.5,4.8,2.6c1.3-1.2,2.4-2.3,3.1-3.3l6.5,1.8c-1.4,1.9-2.8,3.5-4.3,4.8c1.6,1.1,3.1,2.2,4.5,3.5l-5.1,4
	c-1.1-1.2-2.6-2.4-4.3-3.6c-2.2,1.6-4.6,3.1-7.1,4.4c-1.4-1.4-2.8-2.5-4.2-3.5v0.7h-10.5l0.2,2.9l41.9,0.1l0.3-2.9h-10v-6h10.6
	l0.2-2.8h-10.5v-6h10.9l0.2-2.8h-11.4v-6.1H592C591.3,298.7,590.6,307.5,589.9,314.4z M568.7,295.2l-4.8,4.1c-0.9-0.8-2.3-2-4-3.3
	c-2.9,1.9-5.1,3.2-6.7,4c-1.6-1.6-3.3-3.1-5.2-4.4c2.1-0.8,4.3-1.9,6.6-3.2c-1.3-0.7-2.8-1.6-4.5-2.5l4.7-3.7c1.4,0.6,3,1.5,4.8,2.6
	c1.1-1.1,2.1-2.1,3-3.1l6.5,1.8c-1.3,1.6-2.7,3.1-4.3,4.5C566.7,293.6,568,294.6,568.7,295.2z"/>
<rect id="XMLID_991_" x="314.9" y="322.3" class="st1" width="9.9" height="9.7"/>
</svg>
