<svg id="圖層_1" data-name="圖層 1" xmlns="http://www.w3.org/2000/svg" viewBox="0 0 200 100"><defs><style>.cls-1{font-size:22.61px;font-family:TaipeiSansTCBeta-Bold, Taipei Sans TC Beta;font-weight:700;letter-spacing:0.03em;}.cls-1,.cls-3{fill:#005eac;}.cls-2{fill:#e62327;}</style></defs><title>logo</title><text class="cls-1" transform="matrix(1, 0, 0, 0.97, 29.67, 95.35)"><tspan xml:space="preserve">壹教育  留遊學</tspan></text><rect class="cls-2" x="103.07" y="86.96" width="2.67" height="2.62"/><path class="cls-3" d="M169.07,9.25V41.64c0,4-1,7.17-3,9.3s-4.71,3.1-8.47,3.1-6.51-1-8.65-3-3.17-5.22-3.17-9.68V9.25h-9.73V41.57c0,6.45,1.89,11.7,5.62,15.61s9.08,6,15.78,6,11.92-2,15.69-5.85,5.64-9.23,5.64-16v-32Z"/><path class="cls-3" d="M73.18,9.12H44.8v9H73.18Z"/><path class="cls-3" d="M124.61,22.31a26,26,0,0,0-10.2-9.73A30.35,30.35,0,0,0,99.73,9.06H94.36v9.25h5.09a21.18,21.18,0,0,1,10.19,2.34A16.28,16.28,0,0,1,116.2,27a18.42,18.42,0,0,1,2.32,9.23,18.11,18.11,0,0,1-2.35,9.24,16.2,16.2,0,0,1-6.62,6.29,21.09,21.09,0,0,1-10,2.32H94.36v9.25h5.37A30.3,30.3,0,0,0,114,59.91a26.78,26.78,0,0,0,10.36-9.67,26.39,26.39,0,0,0,3.87-14.15A26.7,26.7,0,0,0,124.61,22.31Z"/><rect class="cls-3" x="83.1" y="9.06" width="9.04" height="54.27"/><path class="cls-3" d="M73.18,31.74H44.8v9H73.18Z"/><path class="cls-3" d="M73.18,54.38c0-.08,0-.15,0-.22H44.8v.39a11.86,11.86,0,0,1-1.34,5.11,10.76,10.76,0,0,1-3,3.56H63.66a11,11,0,0,0,1.42-.09h8.1Z"/><path class="cls-2" d="M42.51,2.27,18.93,16.57a8.73,8.73,0,0,0,8.13,4.22,10,10,0,0,0,4.63-1.51l1.84-1.13v45a8.77,8.77,0,0,0,7.85-4.71,10.08,10.08,0,0,0,1.13-4.74V2.27Z"/></svg>