<?xml version="1.0" encoding="utf-8"?>
<!-- Generator: Adobe Illustrator 23.0.5, SVG Export Plug-In . SVG Version: 6.00 Build 0)  -->
<svg version="1.1" xmlns="http://www.w3.org/2000/svg" xmlns:xlink="http://www.w3.org/1999/xlink" x="0px" y="0px"
	 viewBox="0 0 512.2 512.2" style="enable-background:new 0 0 512.2 512.2;" xml:space="preserve">
<style type="text/css">
	.st0{fill:#FFFFFF;}
	.st1{display:none;}
	.st2{display:inline;}
	.st3{fill:#A6BFD4;}
</style>
<g id="Capa_1">
	<g>
		<g>
			<path class="st0" d="M509,248.2L295.5,35.4c-3.1-3-7.6-3.9-11.6-2.3c-4,1.7-6.6,5.5-6.6,9.9v117.3H10.7C4.8,160.3,0,165.1,0,171
				v170.7c0,5.9,4.8,10.7,10.7,10.7h266.7v116.9c0,4.3,2.6,8.2,6.6,9.9c1.3,0.6,2.7,0.8,4.1,0.8c2.8,0,5.5-1.1,7.6-3.1l213.5-213.4
				c2-2,3.1-4.7,3.1-7.6C512.2,252.9,511,250.2,509,248.2z"/>
		</g>
	</g>
</g>
<g id="圖層_2" class="st1">
	<g class="st2">
		<g>
			<path class="st3" d="M509,248.2L295.5,35.4c-3.1-3-7.6-3.9-11.6-2.3c-4,1.7-6.6,5.5-6.6,9.9v117.3H10.7C4.8,160.3,0,165.1,0,171
				v170.7c0,5.9,4.8,10.7,10.7,10.7h266.7v116.9c0,4.3,2.6,8.2,6.6,9.9c1.3,0.6,2.7,0.8,4.1,0.8c2.8,0,5.5-1.1,7.6-3.1l213.5-213.4
				c2-2,3.1-4.7,3.1-7.6C512.2,252.9,511,250.2,509,248.2z"/>
		</g>
	</g>
</g>
</svg>
