<svg id="Layer_1" enable-background="new 0 0 496 496" height="512" viewBox="0 0 496 496" width="512" xmlns="http://www.w3.org/2000/svg"><path d="m358.312 397c0 20.402-16.598 37-37 37s-37-16.598-37-37c0-14.675 8.587-27.38 21-33.358v-150.642c0-8.837 7.163-16 16-16s16 7.163 16 16v150.642c12.413 5.978 21 18.683 21 33.358zm107-325c0 8.837-7.163 16-16 16h-61v68h41c8.837 0 16 7.163 16 16s-7.163 16-16 16h-41v68h21c8.837 0 16 7.163 16 16s-7.163 16-16 16h-21v36.11c20.432 18.722 32 44.863 32 72.89 0 54.589-44.411 99-99 99s-99-44.411-99-99c0-28.025 11.569-54.167 32-72.89v-257.11c0-36.944 30.056-67 67-67 33.197 0 60.817 24.273 66.082 56h61.918c8.837 0 16 7.163 16 16zm-77 325c0-20.799-9.416-40.065-25.835-52.86-3.891-3.031-6.165-7.688-6.165-12.62v-264.52c0-19.299-15.701-35-35-35s-35 15.701-35 35v264.52c0 4.932-2.274 9.589-6.165 12.62-16.419 12.795-25.835 32.063-25.835 52.86 0 36.944 30.056 67 67 67s67-30.056 67-67zm-325.527-320.126c-.869-12.313 4.283-25.805 15.312-40.101 5.398-6.996 4.102-17.043-2.895-22.441-6.996-5.399-17.044-4.104-22.441 2.895-15.968 20.696-23.335 41.522-21.897 61.899 2.325 32.948 25.064 45.206 27.018 68.227 1.056 12.447-3.656 25.988-14.006 40.249-7.719 10.636.021 25.399 12.936 25.399 4.95 0 9.832-2.29 12.962-6.603 14.991-20.656 21.718-41.432 19.994-61.751-2.807-33.061-25.401-45.357-26.983-67.773zm80 0c-.869-12.313 4.283-25.805 15.312-40.101 5.398-6.996 4.102-17.043-2.895-22.441-6.996-5.399-17.043-4.104-22.441 2.895-15.968 20.696-23.335 41.522-21.897 61.899 2.325 32.948 25.064 45.206 27.018 68.227 1.056 12.447-3.656 25.988-14.006 40.249-7.719 10.636.021 25.399 12.936 25.399 4.95 0 9.832-2.29 12.962-6.603 14.991-20.656 21.718-41.432 19.994-61.751-2.807-33.061-25.401-45.357-26.983-67.773z"/></svg>