<?xml version="1.0" encoding="utf-8"?>
<!-- Generator: Adobe Illustrator 16.0.0, SVG Export Plug-In . SVG Version: 6.00 Build 0)  -->
<!DOCTYPE svg PUBLIC "-//W3C//DTD SVG 1.1//EN" "http://www.w3.org/Graphics/SVG/1.1/DTD/svg11.dtd">
<svg version="1.1" id="圖層_1" xmlns="http://www.w3.org/2000/svg" xmlns:xlink="http://www.w3.org/1999/xlink" x="0px" y="0px"
	 width="512px" height="512px" viewBox="0 0 512 512" enable-background="new 0 0 512 512" xml:space="preserve">
<g id="_x30_15--Dollar-Down">
	<path id="Shape" fill="#FFFFFF" d="M443.733,469.333h59.733c4.713,0,8.534-3.82,8.534-8.533s-3.821-8.533-8.534-8.533h-59.733
		c-4.713,0-8.533,3.82-8.533,8.533S439.02,469.333,443.733,469.333z"/>
	<path id="Shape_1_" fill="#FFFFFF" d="M384,460.8c0,4.713,3.82,8.533,8.533,8.533H409.6c4.713,0,8.533-3.82,8.533-8.533
		s-3.82-8.533-8.533-8.533h-17.066C387.821,452.267,384,456.087,384,460.8z"/>
	<path id="Shape_2_" fill="#FFFFFF" d="M503.466,494.933H366.933c-4.713,0-8.533,3.821-8.533,8.534s3.82,8.533,8.533,8.533h136.533
		c4.713,0,8.534-3.82,8.534-8.533S508.179,494.933,503.466,494.933z"/>
	<path id="Shape_3_" fill="#FFFFFF" d="M8.533,469.333h59.733c4.713,0,8.533-3.82,8.533-8.533s-3.82-8.533-8.533-8.533H8.533
		c-4.713,0-8.533,3.82-8.533,8.533S3.821,469.333,8.533,469.333z"/>
	<path id="Shape_4_" fill="#FFFFFF" d="M102.4,469.333h17.067c4.713,0,8.533-3.82,8.533-8.533s-3.82-8.533-8.533-8.533H102.4
		c-4.713,0-8.533,3.82-8.533,8.533S97.687,469.333,102.4,469.333z"/>
	<path id="Shape_5_" fill="#FFFFFF" d="M145.067,494.933H8.533c-4.713,0-8.533,3.821-8.533,8.534S3.821,512,8.533,512h136.533
		c4.713,0,8.533-3.82,8.533-8.533S149.78,494.933,145.067,494.933z"/>
	<path id="Shape_6_" fill="#FFFFFF" d="M273.067,170.667h-34.134V153.6h34.134V170.667z M132.779,179.2
		c0-52.787,41.686-98.56,99.123-108.851c4.068-0.728,7.03-4.265,7.031-8.397V34.133h34.134v27.904
		c0.001,4.129,2.959,7.666,7.022,8.396c53.88,9.668,94.524,50.868,98.791,100.292h-34.287
		c-3.789-29.815-27.597-55.065-60.672-64.418c-2.572-0.727-5.337-0.207-7.469,1.405c-2.132,1.613-3.385,4.131-3.386,6.804v22.016
		h-34.134v-22.016c0-2.673-1.254-5.191-3.386-6.804c-2.132-1.612-4.896-2.132-7.468-1.405
		c-36.592,10.368-61.167,39.654-61.167,72.892c1.248,29.497,19.294,55.667,46.421,67.319v36.48
		C168.559,269.653,132.779,227.328,132.779,179.2L132.779,179.2z M221.866,341.333c4.713,0,8.533-3.82,8.533-8.533V187.733h51.2
		V332.8c0,4.713,3.82,8.533,8.533,8.533h20.036l-56.047,63.854l-56.072-63.854H221.866z M280.098,475.784
		c-4.067,0.728-7.029,4.265-7.031,8.396V512h-34.134v-27.904c0-4.13-2.958-7.666-7.022-8.396
		c-53.88-9.669-94.523-50.867-98.79-100.293h34.286c3.789,29.816,27.598,55.066,60.673,64.419c2.572,0.727,5.336,0.206,7.468-1.406
		s3.386-4.13,3.386-6.804v-17.852l8.772,9.992c1.62,1.838,3.951,2.89,6.4,2.89s4.78-1.052,6.399-2.89l12.562-14.268v22.127
		c0.001,2.674,1.254,5.191,3.386,6.804s4.896,2.133,7.469,1.406c48.222-13.653,75.844-60.962,53.077-104.106
		c0.948-2.493,0.651-5.289-0.801-7.527c-1.451-2.236-3.884-3.647-6.547-3.797c-7.865-10.792-18.6-19.162-30.984-24.158v-36.377
		c46.623,12.865,79.336,54.724,80.555,103.074C379.221,419.721,337.535,465.493,280.098,475.784L280.098,475.784z"/>
</g>
</svg>
