<?xml version="1.0" encoding="utf-8"?>
<!-- Generator: Adobe Illustrator 16.0.2, SVG Export Plug-In . SVG Version: 6.00 Build 0)  -->
<!DOCTYPE svg PUBLIC "-//W3C//DTD SVG 1.1//EN" "http://www.w3.org/Graphics/SVG/1.1/DTD/svg11.dtd">
<svg version="1.1" id="圖層_1" xmlns="http://www.w3.org/2000/svg" xmlns:xlink="http://www.w3.org/1999/xlink" x="0px" y="0px"
	 width="480px" height="480px" viewBox="0 0 480 480" enable-background="new 0 0 480 480" xml:space="preserve">
<path fill="#FFFDFD" d="M448,464V160c0-3.672-2.5-6.871-6.063-7.762L288,113.75V72c0-3.625-2.438-6.793-5.938-7.73l-240-64
	c-2.398-0.641-4.965-0.129-6.934,1.387C33.156,3.168,32,5.511,32,8v456H0v16h480v-16H448z M48,18.398l224,59.727V464h-40v-88
	c0-4.418-3.582-8-8-8H96c-4.418,0-8,3.582-8,8v88H48V18.398z M104,384h48v80h-48V384z M168,464v-80h48v80H168z M336,464v-64h48v64
	H336z M400,464v-72c0-4.418-3.582-8-8-8h-64c-4.418,0-8,3.582-8,8v72h-32V130.246l144,36V464H400z"/>
<path fill="#FFFDFD" d="M104,336h32c4.418,0,8-3.582,8-8v-32c0-4.418-3.582-8-8-8h-32c-4.418,0-8,3.582-8,8v32
	C96,332.418,99.582,336,104,336z M112,304h16v16h-16V304z"/>
<path fill="#FFFDFD" d="M184,336h32c4.418,0,8-3.582,8-8v-32c0-4.418-3.582-8-8-8h-32c-4.418,0-8,3.582-8,8v32
	C176,332.418,179.582,336,184,336z M192,304h16v16h-16V304z"/>
<path fill="#FFFDFD" d="M344,304h-32c-4.418,0-8,3.582-8,8v32c0,4.418,3.582,8,8,8h32c4.418,0,8-3.582,8-8v-32
	C352,307.582,348.418,304,344,304z M336,336h-16v-16h16V336z"/>
<path fill="#FFFDFD" d="M408,304h-32c-4.418,0-8,3.582-8,8v32c0,4.418,3.582,8,8,8h32c4.418,0,8-3.582,8-8v-32
	C416,307.582,412.418,304,408,304z M400,336h-16v-16h16V336z"/>
<path fill="#FFFDFD" d="M344,240h-32c-4.418,0-8,3.582-8,8v32c0,4.418,3.582,8,8,8h32c4.418,0,8-3.582,8-8v-32
	C352,243.582,348.418,240,344,240z M336,272h-16v-16h16V272z"/>
<path fill="#FFFDFD" d="M408,240h-32c-4.418,0-8,3.582-8,8v32c0,4.418,3.582,8,8,8h32c4.418,0,8-3.582,8-8v-32
	C416,243.582,412.418,240,408,240z M400,272h-16v-16h16V272z"/>
<path fill="#FFFDFD" d="M344,176h-32c-4.418,0-8,3.582-8,8v32c0,4.418,3.582,8,8,8h32c4.418,0,8-3.582,8-8v-32
	C352,179.582,348.418,176,344,176z M336,208h-16v-16h16V208z"/>
<path fill="#FFFDFD" d="M408,176h-32c-4.418,0-8,3.582-8,8v32c0,4.418,3.582,8,8,8h32c4.418,0,8-3.582,8-8v-32
	C416,179.582,412.418,176,408,176z M400,208h-16v-16h16V208z"/>
<path fill="#FFFDFD" d="M104,272h32c4.418,0,8-3.582,8-8v-32c0-4.418-3.582-8-8-8h-32c-4.418,0-8,3.582-8,8v32
	C96,268.418,99.582,272,104,272z M112,240h16v16h-16V240z"/>
<path fill="#FFFDFD" d="M184,272h32c4.418,0,8-3.582,8-8v-32c0-4.418-3.582-8-8-8h-32c-4.418,0-8,3.582-8,8v32
	C176,268.418,179.582,272,184,272z M192,240h16v16h-16V240z"/>
<path fill="#FFFDFD" d="M104,208h32c4.418,0,8-3.582,8-8v-32c0-4.418-3.582-8-8-8h-32c-4.418,0-8,3.582-8,8v32
	C96,204.418,99.582,208,104,208z M112,176h16v16h-16V176z"/>
<path fill="#FFFDFD" d="M184,208h32c4.418,0,8-3.582,8-8v-32c0-4.418-3.582-8-8-8h-32c-4.418,0-8,3.582-8,8v32
	C176,204.418,179.582,208,184,208z M192,176h16v16h-16V176z"/>
<path fill="#FFFDFD" d="M104,144h32c4.418,0,8-3.582,8-8v-32c0-4.418-3.582-8-8-8h-32c-4.418,0-8,3.582-8,8v32
	C96,140.418,99.582,144,104,144z M112,112h16v16h-16V112z"/>
<path fill="#FFFDFD" d="M184,144h32c4.418,0,8-3.582,8-8v-32c0-4.418-3.582-8-8-8h-32c-4.418,0-8,3.582-8,8v32
	C176,140.418,179.582,144,184,144z M192,112h16v16h-16V112z"/>
</svg>
