<?xml version="1.0" encoding="utf-8"?>
<!-- Generator: Adobe Illustrator 16.0.0, SVG Export Plug-In . SVG Version: 6.00 Build 0)  -->
<!DOCTYPE svg PUBLIC "-//W3C//DTD SVG 1.1//EN" "http://www.w3.org/Graphics/SVG/1.1/DTD/svg11.dtd">
<svg version="1.1" id="Capa_1" xmlns="http://www.w3.org/2000/svg" xmlns:xlink="http://www.w3.org/1999/xlink" x="0px" y="0px"
	 width="512px" height="544.5px" viewBox="0 0 512 544.5" enable-background="new 0 0 512 544.5" xml:space="preserve">
<path fill="#FFFFFF" d="M414.332,276.063l-23.337,11.57c0-183.906,0.138-174.838-0.276-176.98
	c-1.353-7.019-7.521-12.151-14.724-12.151c-1.692,0-359.811-0.003-361.092,0.005C6.55,98.559,0,105.388,0,113.502V383.5
	c0,8.284,6.716,15,15,15h165.998v20.999c0,16.7,11.76,30.696,27.432,34.167l-12.228,73.368c-1.523,9.14,5.535,17.466,14.796,17.466
	h60c7.271,0,13.495-5.215,14.77-12.375l13.55-76.221l115.018,57.031c9.936,4.93,21.663-2.306,21.663-13.438V289.502
	C435.995,278.377,424.281,271.126,414.332,276.063z M326.226,128.502l-131.204,86.987L64.541,128.502H326.226z M30,141.529
	l156.679,104.452c5.026,3.352,11.573,3.36,16.608,0.021l157.709-104.56V302.51l-64.514,31.99H216c-18.963,0-34.441,15.163-34.976,34
	H30V141.529z M215.998,424.499c-2.757,0-5-2.242-5-5V369.5c0-2.757,2.243-5,5-5h68.999v59.999H215.998z M228.705,514.499l10-60
	h30.391l-10.666,60H228.705z M405.995,475.318l-90.999-45.125v-71.392l90.999-45.123V475.318z"/>
<path fill="#FFFFFF" d="M487.008,348.242l16-7c7.59-3.32,11.052-12.165,7.729-19.754c-3.318-7.59-12.165-11.053-19.754-7.729
	l-16,6.999c-7.59,3.32-11.052,12.165-7.729,19.754C470.576,348.107,479.426,351.563,487.008,348.242L487.008,348.242z"/>
<path fill="#FFFFFF" d="M503.008,447.757l-16-7c-7.59-3.319-16.435,0.142-19.754,7.729c-3.321,7.591,0.14,16.435,7.729,19.755l16,7
	c7.589,3.321,16.437-0.143,19.754-7.73C514.06,459.921,510.598,451.077,503.008,447.757z"/>
<path fill="#FFFFFF" d="M496.995,379.5h-16c-8.283,0-15,6.716-15,15c0,8.283,6.717,15,15,15h16c8.283,0,14.999-6.717,14.999-15
	C511.994,386.216,505.28,379.5,496.995,379.5z"/>
</svg>
