<?xml version="1.0" encoding="utf-8"?>
<!-- Generator: Adobe Illustrator 16.0.0, SVG Export Plug-In . SVG Version: 6.00 Build 0)  -->
<!DOCTYPE svg PUBLIC "-//W3C//DTD SVG 1.1//EN" "http://www.w3.org/Graphics/SVG/1.1/DTD/svg11.dtd">
<svg version="1.1" id="Capa_1" xmlns="http://www.w3.org/2000/svg" xmlns:xlink="http://www.w3.org/1999/xlink" x="0px" y="0px"
	 width="512px" height="625.5px" viewBox="0 -113.5 512 625.5" enable-background="new 0 -113.5 512 625.5" xml:space="preserve">
<path fill="#FFFFFF" d="M510.913,274.109c-3.508-12.526-16.133-24.031-35.989-21.732V118.683
	c10.644-0.439,19.173-9.211,19.173-19.959v-38.99c0-11.029-8.973-20.001-20.001-20.001H441.2L423.208,8.569
	c-3.686-6.382-9.652-10.953-16.804-12.869c-7.153-1.917-14.604-0.942-20.986,2.743l-71.514,41.289h-22.418L219.972-1.556
	c-6.382-3.685-13.835-4.66-20.986-2.743c-7.151,1.916-13.119,6.486-16.803,12.869l-17.992,31.163h-32.896
	c-11.028,0-20.001,8.972-20.001,20.001v38.99c0,10.748,8.529,19.52,19.173,19.959v136.753c-31.605,7.49-56.636,25.691-76.165,55.448
	c-5.549-4.313-12.289-6.779-19.451-7.029c-8.992-0.315-17.573,2.895-24.155,9.034C-2.89,325.56-3.634,346.923,9.039,360.51
	L111.68,470.562c6.625,7.104,15.627,10.696,24.651,10.696c8.234,0,16.488-2.992,22.97-9.037
	c6.581-6.139,10.378-14.473,10.691-23.467c0.313-8.995-2.895-17.573-9.033-24.154l-3.743-4.014l24.958-38.201l57.749,2.652
	c42.703,1.962,56.328-0.126,97.221-14.893c31.647-11.429,71.19-27.017,102.964-39.543c22.745-8.966,42.388-16.709,49.766-19.193
	c0.031-0.012,0.063-0.021,0.096-0.033C508.739,304.844,514.713,287.685,510.913,274.109L510.913,274.109z M474.096,98.724H348.254
	v-38.99h125.842V98.724z M277.139,118.725h51.113v71.189l-22.614-6.962c-1.918-0.59-3.967-0.59-5.886,0l-22.613,6.962V118.725z
	 M277.139,98.724v-38.99h51.113v38.99H277.139z M395.419,15.765c1.756-1.013,3.818-1.278,5.809-0.745
	c1.991,0.533,3.646,1.794,4.66,3.549l12.217,21.163h-64.198L395.419,15.765z M199.506,18.57c1.013-1.756,2.667-3.016,4.658-3.549
	c1.99-0.533,4.053-0.268,5.81,0.745l41.512,23.968h-64.198L199.506,18.57z M131.296,59.733h125.841v38.99h-9.441
	c-5.523,0-10,4.477-10,10c0,5.523,4.478,10.001,10,10.001h9.441v84.732c0,3.174,1.508,6.159,4.061,8.044
	c2.555,1.885,5.851,2.448,8.884,1.513l32.614-10.042l32.615,10.042c0.965,0.297,1.956,0.442,2.94,0.442
	c2.113,0,4.201-0.67,5.941-1.956c2.554-1.885,4.061-4.871,4.061-8.044v-84.732h106.669v137.981l-76.545,17.8
	c-3.177-14.469-16.761-24.7-31.924-23.354c-5.326,0.474-23.346,2.396-42.422,4.433c-18.137,1.937-36.891,3.938-42.038,4.396
	c-10.757,0.958-24.84-1.081-41.144-3.442c-21.731-3.147-45.806-6.63-70.381-4.345V118.725h7.222c5.523,0,10.001-4.478,10.001-10
	c0-5.523-4.478-10-10.001-10h-26.396L131.296,59.733L131.296,59.733z M145.66,457.595c-5.522,5.15-14.204,4.847-19.354-0.675
	L23.665,346.868c-5.149-5.521-4.847-14.203,0.674-19.354c2.675-2.495,6.17-3.803,9.815-3.671c3.655,0.127,7.042,1.67,9.537,4.346
	l102.643,110.052c2.495,2.674,3.798,6.16,3.671,9.815C149.878,451.714,148.335,455.1,145.66,457.595z M483.436,292.473
	c-7.891,2.662-26.771,10.105-50.662,19.523c-31.652,12.479-71.047,28.008-102.421,39.337c-38.497,13.901-49.37,15.567-89.509,13.726
	l-63.456-2.915c-3.527-0.159-6.896,1.558-8.832,4.521l-25.388,38.859l-74.524-79.904c40.292-65.068,100.614-56.344,149.34-49.287
	c16.814,2.436,32.695,4.735,45.784,3.57c5.322-0.473,23.327-2.396,42.39-4.43c18.149-1.937,36.919-3.939,42.068-4.398
	c5.499-0.477,10.318,3.535,10.807,8.963c0.153,1.698,0.56,6.209-11.98,11.438c-26.76,11.159-55.184,20.516-77.983,25.671
	c-5.387,1.218-8.766,6.573-7.548,11.959c1.219,5.388,6.569,8.77,11.96,7.549c23.873-5.398,53.494-15.138,81.271-26.719
	c9.646-4.021,15.679-8.891,19.32-13.893l100.441-23.357c10.603-2.247,15.807,2.045,17.143,6.817
	C492.934,284.08,490.888,289.859,483.436,292.473L483.436,292.473z"/>
<path fill="#FFFFFF" d="M202.697,118.725c5.523,0,10-4.478,10-10.001c0-5.523-4.477-10-10-10h-0.007c-5.523,0-9.997,4.477-9.997,10
	C192.693,114.247,197.174,118.725,202.697,118.725z"/>
</svg>
