<?xml version="1.0" encoding="utf-8"?>
<!-- Generator: Adobe Illustrator 16.0.0, SVG Export Plug-In . SVG Version: 6.00 Build 0)  -->
<!DOCTYPE svg PUBLIC "-//W3C//DTD SVG 1.1//EN" "http://www.w3.org/Graphics/SVG/1.1/DTD/svg11.dtd">
<svg version="1.1" id="Capa_1" xmlns="http://www.w3.org/2000/svg" xmlns:xlink="http://www.w3.org/1999/xlink" x="0px" y="0px"
	 width="512px" height="576.5px" viewBox="0 -64.5 512 576.5" enable-background="new 0 -64.5 512 576.5" xml:space="preserve">
<g>
	<path fill="#FFFFFF" d="M479.716,249.667h-70.06V0H102.323v249.667H32.284L230.514,482H122.656v30h266.666v-30H281.486
		L479.716,249.667z M132.323,30h247.334v249.667h35.027L256,465.65L97.316,279.667h35.007V30z"/>
	<polygon fill="#FFFFFF" points="225.587,232.699 319.647,94.955 286.393,94.955 192.332,232.699 	"/>
	<path fill="#FFFFFF" d="M269.862,196.295c0,24.598,15.741,38.372,36.6,38.372s36.602-13.774,36.602-38.372
		c0-24.4-15.742-38.371-36.602-38.371C285.604,157.924,269.862,171.895,269.862,196.295z M315.121,196.295
		c0,13.185-4.329,17.12-8.658,17.12s-8.658-3.935-8.658-17.12c0-13.184,4.329-17.119,8.658-17.119S315.121,183.111,315.121,196.295z
		"/>
	<path fill="#FFFFFF" d="M205.516,169.73c20.858,0,36.6-13.774,36.6-38.373c0-24.4-15.742-38.371-36.6-38.371
		s-36.601,13.971-36.601,38.371C168.916,155.956,184.658,169.73,205.516,169.73z M205.516,114.239c4.329,0,8.658,3.935,8.658,17.119
		c0,13.185-4.329,17.121-8.658,17.121c-4.329,0-8.658-3.936-8.658-17.121C196.858,118.174,201.187,114.239,205.516,114.239z"/>
</g>
</svg>
