<?xml version="1.0" encoding="utf-8"?>
<!-- Generator: Adobe Illustrator 16.0.2, SVG Export Plug-In . SVG Version: 6.00 Build 0)  -->
<!DOCTYPE svg PUBLIC "-//W3C//DTD SVG 1.1//EN" "http://www.w3.org/Graphics/SVG/1.1/DTD/svg11.dtd">
<svg version="1.1" id="Capa_1" xmlns="http://www.w3.org/2000/svg" xmlns:xlink="http://www.w3.org/1999/xlink" x="0px" y="0px"
	 width="612px" height="792px" viewBox="0 0 612 792" enable-background="new 0 0 612 792" xml:space="preserve">
<g>
	<g>
		<path fill="#FFFFFF" d="M408.74,482.49c-14.5,0-26.297-10.21-26.297-22.76c0-12.551,11.797-22.762,26.297-22.762
			c14.501,0,26.297,10.211,26.297,22.762c0,6.601,5.353,11.953,11.953,11.953s11.953-5.353,11.953-11.953
			c0-21.904-16.32-40.322-38.25-45.32v-6.217c0-6.601-5.353-11.953-11.953-11.953c-6.6,0-11.953,5.353-11.953,11.953v6.217
			c-21.929,4.998-38.25,23.416-38.25,45.32c0,25.731,22.521,46.666,50.203,46.666c14.501,0,26.297,10.21,26.297,22.761
			s-11.796,22.762-26.297,22.762c-14.5,0-26.297-10.211-26.297-22.762c0-6.601-5.353-11.953-11.953-11.953
			c-6.6,0-11.953,5.353-11.953,11.953c0,21.904,16.321,40.321,38.25,45.32v5.164c0,6.601,5.354,11.953,11.953,11.953
			c6.601,0,11.953-5.353,11.953-11.953v-5.164c21.93-4.999,38.25-23.416,38.25-45.32C458.944,503.425,436.423,482.49,408.74,482.49z
			"/>
	</g>
</g>
<g>
	<g>
		<path fill="#FFFFFF" d="M539.66,411.39c-15.614-24.331-37.612-43.8-63.616-56.301c-5.951-2.861-13.094-0.355-15.953,5.595
			c-2.86,5.95-0.355,13.091,5.595,15.951c45.315,21.783,74.594,68.328,74.594,118.576c0,21.501-5.3,42.824-15.324,61.667
			c-3.102,5.827-0.891,13.066,4.938,16.167c1.788,0.951,3.71,1.403,5.604,1.403c4.276,0,8.414-2.303,10.563-6.342
			c11.859-22.285,18.127-47.493,18.127-72.896C564.186,465.377,555.705,436.391,539.66,411.39z"/>
	</g>
</g>
<g>
	<g>
		<path fill="#FFFFFF" d="M427.53,339.822l-0.804-0.001c-6.601,0-11.953,5.352-11.953,11.953s5.353,11.953,11.953,11.953
			l0.691,0.001c0.02,0,0.037,0,0.058,0c6.575,0,11.921-5.314,11.952-11.896C439.456,345.23,434.13,339.853,427.53,339.822z"/>
	</g>
</g>
<g>
	<g>
		<path fill="#FFFFFF" d="M351.907,613.788c-45.314-21.785-74.593-68.329-74.593-118.576c0-21.501,5.3-42.824,15.325-61.667
			c3.101-5.827,0.89-13.066-4.938-16.167c-5.826-3.101-13.067-0.891-16.166,4.938c-11.859,22.287-18.127,47.494-18.127,72.896
			c0,29.835,8.48,58.818,24.525,83.821c15.614,24.33,37.612,43.8,63.616,56.302c1.67,0.803,3.435,1.182,5.171,1.182
			c4.451,0,8.724-2.497,10.782-6.776C360.361,623.79,357.858,616.648,351.907,613.788z"/>
	</g>
</g>
<g>
	<g>
		<path fill="#FFFFFF" d="M390.868,626.696l-0.692-0.003c-6.631-0.012-11.977,5.294-12.007,11.897
			c-0.03,6.602,5.298,11.978,11.898,12.009l0.801,0.003c6.601,0,11.953-5.353,11.953-11.953S397.469,626.696,390.868,626.696z"/>
	</g>
</g>
<g>
	<g>
		<path fill="#FFFFFF" d="M463.073,299.381c-1.454-3.467-3.236-6.733-5.311-9.764h31.119c30.317,0,54.983-24.667,54.983-54.984
			s-24.666-54.984-54.983-54.984h-95.721c6.085-8.848,9.658-19.552,9.658-31.078c0-30.317-24.667-54.984-54.984-54.984H54.985
			C24.666,93.586,0,118.253,0,148.57c0,30.318,24.666,54.984,54.984,54.984h95.72c-6.085,8.848-9.658,19.552-9.658,31.078
			s3.572,22.23,9.658,31.078h-31.173c-30.318,0-54.984,24.666-54.984,54.984c0,17.412,8.145,32.95,20.816,43.031
			c-12.672,10.081-20.816,25.619-20.816,43.031s8.145,32.95,20.816,43.031c-12.672,10.081-20.816,25.619-20.816,43.031
			s8.145,32.949,20.816,43.031c-12.672,10.081-20.816,25.619-20.816,43.031c0,30.317,24.666,54.983,54.984,54.983h140.867
			c37.109,39.693,89.901,64.549,148.398,64.549C520.843,698.415,612,607.258,612,495.212
			C612,401.957,548.852,323.184,463.073,299.381z M488.882,203.554c17.137,0,31.077,13.942,31.077,31.078
			s-13.94,31.078-31.077,31.078h-76.5H196.031c-17.137,0-31.078-13.942-31.078-31.078s13.941-31.078,31.078-31.078H488.882z
			 M54.985,179.648c-17.138,0-31.078-13.942-31.078-31.078s13.94-31.078,31.078-31.078h292.851
			c17.137,0,31.078,13.942,31.078,31.078s-13.941,31.078-31.078,31.078H54.985z M119.531,289.617h292.851
			c4.814,0,9.425,1.119,13.561,3.122c-5.654-0.475-11.37-0.73-17.146-0.73c-56.114,0-106.986,22.865-143.795,59.765H119.531
			c-17.137,0-31.078-13.942-31.078-31.078S102.395,289.617,119.531,289.617z M119.531,375.679h125.047
			c-13.569,18.591-24.061,39.559-30.723,62.156h-94.324c-17.138,0-31.078-13.941-31.078-31.078S102.394,375.679,119.531,375.679z
			 M119.531,461.742h88.835c-1.813,10.893-2.771,22.07-2.771,33.47c0,9.737,0.704,19.312,2.034,28.687h-88.098
			c-17.138,0-31.078-13.941-31.078-31.078C88.453,475.682,102.394,461.742,119.531,461.742z M119.531,609.96
			c-17.138,0-31.078-13.94-31.078-31.077c0-17.138,13.94-31.078,31.078-31.078h92.978c6.032,22.487,15.83,43.444,28.68,62.155
			H119.531z M408.797,674.509c-98.864,0-179.296-80.433-179.296-179.297s80.432-179.297,179.296-179.297
			s179.297,80.433,179.297,179.297S507.661,674.509,408.797,674.509z"/>
	</g>
</g>
</svg>
