<?xml version="1.0" encoding="utf-8"?>
<!-- Generator: Adobe Illustrator 16.0.0, SVG Export Plug-In . SVG Version: 6.00 Build 0)  -->
<!DOCTYPE svg PUBLIC "-//W3C//DTD SVG 1.1//EN" "http://www.w3.org/Graphics/SVG/1.1/DTD/svg11.dtd">
<svg version="1.1" id="圖層_1" xmlns="http://www.w3.org/2000/svg" xmlns:xlink="http://www.w3.org/1999/xlink" x="0px" y="0px"
	 width="499px" height="499px" viewBox="0 0 499 499" enable-background="new 0 0 499 499" xml:space="preserve">
<path fill="#FFFFFF" d="M449.094,95.269H81.797c-27.557,0.012-49.894,22.348-49.905,49.905v156.899
	C-1.61,337.524-9.541,390.069,12.008,433.825c21.549,43.76,68.03,69.512,116.555,64.572c48.524-4.94,88.865-39.53,101.15-86.732
	h219.381c27.557-0.008,49.897-22.349,49.905-49.905V145.174C498.991,117.617,476.651,95.281,449.094,95.269z M51.854,185.098
	h427.184v43.916H51.854V185.098z M81.797,115.231h367.297c16.52,0.047,29.896,13.428,29.943,29.943v19.962H51.854v-19.962
	C51.869,128.643,65.266,115.243,81.797,115.231z M116.73,478.938c-53.468,0-96.814-43.348-96.814-96.815
	c0-53.472,43.347-96.815,96.814-96.815c53.473,0,96.815,43.344,96.815,96.815C213.494,435.567,170.179,478.888,116.73,478.938z
	 M449.094,391.702H233.109c0.301-3.092,0.398-6.288,0.398-9.481c0.039-43.104-23.689-82.717-61.711-103.022
	c-38.021-20.305-84.14-17.996-119.942,6.009v-36.231h427.184V361.76C478.99,378.278,465.614,391.655,449.094,391.702z"/>
<path fill="#FFFFFF" d="M399.689,287.305c-14.675-0.004-28.134,8.152-34.934,21.159c-8.409-16.087-26.714-24.353-44.341-20.025
	c-17.626,4.332-30.021,20.138-30.021,38.291c0,18.148,12.395,33.954,30.021,38.285c17.627,4.328,35.932-3.938,44.341-20.023
	c8.964,17.143,29.035,25.248,47.387,19.143s29.564-24.621,26.469-43.713C435.519,301.329,419.031,287.301,399.689,287.305z
	 M329.823,346.192c-7.88-0.004-14.983-4.757-17.989-12.04c-3.006-7.286-1.325-15.665,4.262-21.222
	c5.591-5.559,13.977-7.201,21.244-4.155c7.271,3.045,11.989,10.172,11.946,18.052C349.254,337.544,340.544,346.212,329.823,346.192z
	 M399.689,346.192c-7.88-0.004-14.983-4.757-17.989-12.04c-3.006-7.286-1.325-15.665,4.262-21.222
	c5.591-5.559,13.978-7.201,21.244-4.155c7.271,3.045,11.989,10.172,11.946,18.052C419.12,337.544,410.41,346.212,399.689,346.192z"
	/>
<path fill="#FFFFFF" d="M147.172,351.081l-40.922,40.922l-19.86-20.063c-3.86-3.914-10.16-3.957-14.075-0.098
	c-3.914,3.856-3.957,10.157-0.098,14.071l26.949,27.15c1.863,1.903,4.417,2.983,7.084,2.995c2.647-0.02,5.186-1.057,7.088-2.897
	l48.006-48.006c1.871-1.867,2.92-4.397,2.92-7.037c0-2.639-1.049-5.174-2.92-7.037C157.422,347.187,151.094,347.187,147.172,351.081
	z"/>
</svg>
