<svg id="icons" enable-background="new 0 0 64 64" height="512" viewBox="0 0 64 64" width="512" xmlns="http://www.w3.org/2000/svg"><path d="m41.502 64c2.757 0 5-2.243 5-5v-4.998-42.002-7c0-2.757-2.243-5-5-5h-28.003c-2.757 0-5 2.243-5 5v7 42.002 4.998c0 2.757 2.243 5 5 5zm-31.003-59c0-1.654 1.346-3 3-3h28.003c1.654 0 3 1.346 3 3v7 42.002c0 1.654-1.346 3-3 3h-28.003c-1.654 0-3-1.346-3-3v-42.002zm0 54v-1.023c.838.635 1.87 1.025 3 1.025h28.003c1.13 0 2.162-.391 3-1.025v1.023c0 1.654-1.346 3-3 3h-28.003c-1.654 0-3-1.346-3-3z"/><path d="m13.502 50.998h3.978c.007 0 .013.004.02.004s.013-.004.02-.004h4.074c.476 2.836 2.941 5.005 5.91 5.005s5.435-2.169 5.91-5.005h4.068c.007 0 .013.004.02.004s.013-.004.02-.004h3.979c1.103 0 2-.897 2-2v-43.995c0-1.103-.897-2-2-2h-27.999c-1.103 0-2 .897-2 2v43.995c0 1.103.897 2 2 2zm9.541-4.995c-.741.825-1.256 1.854-1.449 2.995h-3.095v-2.995zm-6.544 2.995h-2.997v-2.995h2.997zm11.004 5.005c-2.206 0-4-1.794-4-4s1.794-4 4-4 4 1.794 4 4-1.794 4-4 4zm13.996-8v2.995h-2.998v-2.995zm-4.998 2.995h-3.089c-.193-1.141-.708-2.17-1.449-2.995h4.538zm4.998-43.995v39h-27.997v-39z"/><path d="m27.533 49.002h-.011c-.552 0-.994.447-.994 1s.452 1 1.005 1c.552 0 1-.447 1-1s-.448-1-1-1z"/><path d="m49.794 53.709 2 2c.195.195.451.293.707.293s.512-.098.707-.293l1.999-1.999c.093-.092.166-.203.217-.326.051-.122.077-.252.077-.382v-43.004c0-.004-.002-.006-.002-.01-.005-1.649-1.348-2.99-2.999-2.99-1.654 0-3 1.346-3 3v43.003c0 .13.026.26.077.382.051.123.124.234.217.326zm2.707-.121-1.001-1.001v-6.584h2.001v6.585zm1-9.585h-2.001v-25.001h2.001zm-1.001-35.005c.552 0 1 .448 1 1 0 .002.001.003.001.005v6.999h-2.001v-7.004c0-.552.448-1 1-1z"/></svg>