<?xml version="1.0" encoding="utf-8"?>
<!-- Generator: Adobe Illustrator 16.0.2, SVG Export Plug-In . SVG Version: 6.00 Build 0)  -->
<!DOCTYPE svg PUBLIC "-//W3C//DTD SVG 1.1//EN" "http://www.w3.org/Graphics/SVG/1.1/DTD/svg11.dtd">
<svg version="1.1" id="Layer_1" xmlns="http://www.w3.org/2000/svg" xmlns:xlink="http://www.w3.org/1999/xlink" x="0px" y="0px"
	 width="512px" height="512px" viewBox="0 0 512 512" enable-background="new 0 0 512 512" xml:space="preserve">
<g id="XMLID_1153_">
	<g id="XMLID_525_">
		<path id="XMLID_558_" fill="#FFFFFF" d="M498.142,311.667c-5.523,0-10,4.479-10,10v28.854c0,15.221-12.383,27.604-27.604,27.604
			h-69.146c-5.523,0-10,4.479-10,10V492h-28V374.376c0-17.806,14.485-32.291,32.291-32.291h48.383c5.523,0,10-4.478,10-10V224.393
			c0-11.994,9.634-21.775,21.57-22.026c0.12,0.001,0.237,0.009,0.358,0.009c0.157,0,0.313-0.01,0.47-0.012
			c11.985,0.193,21.679,9.997,21.679,22.029v17.756c0,5.522,4.477,10,10,10s10-4.478,10-10v-17.756
			c0-12.526-5.513-23.782-14.233-31.49c10.983-8.414,18.085-21.654,18.085-36.527c0-25.363-20.636-46-46-46
			c-25.363,0-46,20.637-46,46c0,14.927,7.15,28.208,18.2,36.617c-8.659,7.706-14.128,18.923-14.128,31.399v97.691h-38.383
			c-6.23,0-12.206,1.101-17.752,3.107c3.563-1.529,6.062-5.068,6.062-9.192v-40c0-5.521-4.477-10-10-10h-50.098
			c21.962-17.222,36.098-43.99,36.098-74c0-51.832-42.168-94-93.999-94c-51.832,0-94,42.168-94,94c0,30.01,14.136,56.778,36.098,74
			h-50.098c-5.523,0-10,4.479-10,10v40c0,4.111,2.481,7.64,6.028,9.176c-5.531-1.996-11.491-3.091-17.704-3.091H87.934v-97.691
			c0-12.477-5.469-23.694-14.128-31.399c11.05-8.41,18.2-21.691,18.2-36.617c0-25.363-20.636-46-46-46s-46,20.637-46,46
			c0,14.873,7.101,28.113,18.085,36.527c-8.719,7.708-14.233,18.964-14.233,31.49V245c0,5.523,4.478,10,10,10
			c5.523,0,10-4.477,10-10v-20.606c0-12.031,9.693-21.835,21.68-22.029c0.156,0.002,0.311,0.012,0.469,0.012
			c0.12,0,0.239-0.008,0.359-0.009c11.936,0.251,21.569,10.031,21.569,22.026v107.691c0,5.522,4.478,10,10,10h48.383
			c17.806,0,32.291,14.485,32.291,32.291V492h-28V388.125c0-5.521-4.477-10-10-10H51.463c-15.221,0-27.604-12.384-27.604-27.604V325
			c0-5.521-4.477-10-10-10c-5.522,0-10,4.479-10,10v25.521c0,10.313,3.308,19.864,8.903,27.667
			c-5.006,0.547-8.903,4.786-8.903,9.937V502c0,5.522,4.478,10,10,10h154.75c5.523,0,10-4.478,10-10V374.376
			c0-22.314-14.056-41.4-33.775-48.894c0.994,0.331,2.055,0.518,3.161,0.518h78v126h-14c-16.542,0-30,13.459-30,30v20
			c0,5.522,4.477,10,10,10h127.999c5.523,0,10-4.478,10-10v-20c0-16.541-13.458-30-30-30h-13.999V326h77.999
			c1.179,0,2.305-0.214,3.354-0.589c-19.814,7.445-33.955,26.581-33.955,48.965V502c0,5.522,4.477,10,10,10h154.75
			c5.523,0,10-4.478,10-10V388.125c0-5.15-3.896-9.39-8.903-9.937c5.595-7.805,8.903-17.354,8.903-27.667v-28.854
			C508.142,316.145,503.664,311.667,498.142,311.667z M439.993,156.376c0-14.336,11.664-26,26-26s26,11.664,26,26
			c0,14.18-11.411,25.736-25.53,25.988c-0.12-0.001-0.239-0.009-0.359-0.009c-0.157,0-0.313,0.01-0.469,0.012
			C451.464,182.174,439.993,170.594,439.993,156.376z M20.006,156.376c0-14.336,11.664-26,26-26s26,11.664,26,26
			c0,14.217-11.47,25.797-25.641,25.991c-0.157-0.002-0.313-0.012-0.47-0.012c-0.12,0-0.238,0.008-0.358,0.009
			C31.417,182.113,20.006,170.556,20.006,156.376z M23.858,398.125h86.75V492h-86.75V398.125z M181.993,192
			c0-40.804,33.195-74,74-74c40.804,0,73.999,33.196,73.999,74c0,40.805-33.195,74-73.999,74
			C215.189,266,181.993,232.804,181.993,192z M309.992,482v10H201.993v-10c0-5.514,4.485-10,10-10h87.999
			C305.507,472,309.992,476.486,309.992,482z M265.993,452h-20V326h20V452z M353.992,306H157.993v-20h195.999V306z M488.142,492
			h-86.75v-93.875h86.75V492z"/>
		<path id="XMLID_761_" fill="#FFFFFF" d="M498.143,271.67c-2.63,0-5.21,1.061-7.07,2.931c-1.859,1.859-2.93,4.439-2.93,7.069
			c0,2.631,1.07,5.2,2.93,7.07c1.86,1.859,4.44,2.93,7.07,2.93s5.21-1.069,7.07-2.93c1.859-1.87,2.93-4.439,2.93-7.07
			c0-2.63-1.07-5.21-2.93-7.069C503.353,272.729,500.773,271.67,498.143,271.67z"/>
		<path id="XMLID_887_" fill="#FFFFFF" d="M20.933,292.069c1.86-1.859,2.92-4.439,2.92-7.069s-1.06-5.21-2.92-7.069
			c-1.859-1.86-4.439-2.931-7.07-2.931c-2.64,0-5.21,1.069-7.079,2.931c-1.86,1.859-2.921,4.439-2.921,7.069s1.061,5.21,2.921,7.069
			c1.869,1.86,4.439,2.931,7.079,2.931C16.493,295,19.073,293.93,20.933,292.069z"/>
		<path id="XMLID_889_" fill="#FFFFFF" d="M255.993,166.139c5.484,0,9.947,3.635,9.947,8.104c0,5.523,4.478,10,10,10
			c5.523,0,10-4.477,10-10c0-12.209-8.342-22.62-19.956-26.489c-0.087-5.447-4.522-9.839-9.991-9.839
			c-5.47,0-9.905,4.392-9.992,9.839c-11.614,3.87-19.956,14.28-19.956,26.489c0,15.497,13.435,28.104,29.948,28.104
			c5.484,0,9.947,3.635,9.947,8.104s-4.462,8.104-9.947,8.104c-5.486,0-9.948-3.636-9.948-8.104c0-5.522-4.478-10-10-10
			c-5.523,0-10,4.478-10,10c0,12.222,8.358,22.642,19.992,26.501c0.439,5.116,4.726,9.134,9.956,9.134
			c5.229,0,9.516-4.017,9.956-9.134c11.632-3.859,19.991-14.279,19.991-26.501c0-15.496-13.435-28.104-29.947-28.104
			c-5.485,0-9.948-3.636-9.948-8.104S250.508,166.139,255.993,166.139z"/>
		<path id="XMLID_908_" fill="#FFFFFF" d="M256.126,61.052c5.522,0,10-4.478,10-10V10c0-5.522-4.478-10-10-10
			c-5.523,0-10,4.478-10,10v41.052C246.126,56.574,250.603,61.052,256.126,61.052z"/>
		<path id="XMLID_909_" fill="#FFFFFF" d="M195.956,82.239c1.953,1.953,4.512,2.929,7.07,2.929c2.56,0,5.119-0.976,7.071-2.929
			c3.905-3.905,3.905-10.237,0-14.143l-34.14-34.141c-3.905-3.904-10.237-3.904-14.144,0c-3.904,3.905-3.904,10.237,0,14.144
			L195.956,82.239z"/>
		<path id="XMLID_910_" fill="#FFFFFF" d="M309.907,84.263c2.561,0,5.121-0.978,7.073-2.932l33.19-33.21
			c3.903-3.906,3.901-10.237-0.005-14.142c-3.906-3.903-10.237-3.902-14.142,0.004l-33.189,33.21
			c-3.904,3.906-3.902,10.238,0.004,14.142C304.791,83.288,307.35,84.263,309.907,84.263z"/>
	</g>
</g>
</svg>
