<?xml version="1.0" encoding="utf-8"?>
<!-- Generator: Adobe Illustrator 16.0.2, SVG Export Plug-In . SVG Version: 6.00 Build 0)  -->
<!DOCTYPE svg PUBLIC "-//W3C//DTD SVG 1.1//EN" "http://www.w3.org/Graphics/SVG/1.1/DTD/svg11.dtd">
<svg version="1.1" id="圖層_1" xmlns="http://www.w3.org/2000/svg" xmlns:xlink="http://www.w3.org/1999/xlink" x="0px" y="0px"
	 width="512px" height="512px" viewBox="0 0 512 512" enable-background="new 0 0 512 512" xml:space="preserve">
<path fill="#FFFFFF" d="M482,0H30C13.457,0,0,13.457,0,30v46c0,5.523,4.477,10,10,10h10v100H10c-5.523,0-10,4.477-10,10
	s4.477,10,10,10h10v100H10c-5.523,0-10,4.477-10,10s4.477,10,10,10h10v100H10c-5.523,0-10,4.477-10,10v46c0,16.543,13.457,30,30,30
	h452c16.543,0,30-13.457,30-30v-46c0-5.523-4.477-10-10-10h-10V326h10c5.523,0,10-4.477,10-10s-4.477-10-10-10h-10V206h10
	c5.523,0,10-4.477,10-10s-4.477-10-10-10h-10V86h10c5.523,0,10-4.477,10-10V30C512,13.457,498.543,0,482,0z M492,482
	c0,5.516-4.484,10-10,10H30c-5.516,0-10-4.484-10-10v-36h472V482z M232,426H80v-20h152V426z M412,386h-20v-20h20V386z M432,406v20
	h-60v-20H432z M332,386h-20v-20h20V386z M352,406v20h-60v-20H352z M472,426h-20v-30c0-5.523-4.477-10-10-10h-10v-30
	c0-5.523-4.477-10-10-10h-40c-5.523,0-10,4.477-10,10v30h-20v-30c0-5.523-4.477-10-10-10h-40c-5.523,0-10,4.477-10,10v30h-10
	c-5.523,0-10,4.477-10,10v30h-20v-30c0-5.523-4.477-10-10-10H70c-5.523,0-10,4.477-10,10v30H40V326h432V426z M180,246v60h-40v-60
	H180z M120,306H80v-60h40V306z M372,246v60h-40v-60H372z M432,246v60h-40v-60H432z M312,306h-40v-60h40V306z M472,306h-20v-70
	c0-5.523-4.477-10-10-10H262c-5.523,0-10,4.477-10,10v70h-52v-70c0-5.523-4.477-10-10-10H70c-5.523,0-10,4.477-10,10v70H40V206h432
	V306z M180,186h-40v-20h40V186z M120,146H80v-20h40V146z M80,166h40v20H80V166z M372,146v40h-40v-40H372z M432,146v40h-40v-40H432z
	 M312,186h-40v-40h40V186z M472,186h-20v-50c0-5.523-4.477-10-10-10H262c-5.523,0-10,4.477-10,10v50h-52v-30c0-5.523-4.477-10-10-10
	h-50v-30c0-5.523-4.477-10-10-10H70c-5.523,0-10,4.477-10,10v70H40V86h432V186z M492,66H20V30c0-5.516,4.484-10,10-10h452
	c5.516,0,10,4.484,10,10V66z"/>
</svg>
