<?xml version="1.0" encoding="utf-8"?>
<!-- Generator: Adobe Illustrator 16.0.2, SVG Export Plug-In . SVG Version: 6.00 Build 0)  -->
<!DOCTYPE svg PUBLIC "-//W3C//DTD SVG 1.1//EN" "http://www.w3.org/Graphics/SVG/1.1/DTD/svg11.dtd">
<svg version="1.1" id="Capa_1" xmlns="http://www.w3.org/2000/svg" xmlns:xlink="http://www.w3.org/1999/xlink" x="0px" y="0px"
	 width="612px" height="792px" viewBox="0 0 612 792" enable-background="new 0 0 612 792" xml:space="preserve">
<g>
	<g>
		<path fill="#FFFFFF" d="M497.25,599.203c-6.599,0-11.953,5.355-11.953,11.953c0,6.599,5.354,11.953,11.953,11.953
			c6.598,0,11.953-5.354,11.953-11.953C509.203,604.558,503.848,599.203,497.25,599.203z"/>
	</g>
</g>
<g>
	<g>
		<path fill="#FFFFFF" d="M533.11,146.696v-20.837C533.11,106.087,517.023,90,497.25,90h-382.5
			c-19.773,0-35.859,16.087-35.859,35.859v20.837C0.924,290.688,0.003,286.413,0,293.19c0,0.005,0,0.008,0,0.013v23.906
			c0,20.719,11.979,39.987,31.078,50.944v321.993c0,6.601,5.353,11.953,11.953,11.953h525.938c6.6,0,11.953-5.353,11.953-11.953
			V368.053C599.828,357.106,612,337.61,612,317.109v-23.906c0-0.005,0-0.008,0-0.013C611.996,286.34,610.316,289.284,533.11,146.696
			z M579.831,281.25h-73.966l-39.844-119.531h48.067L579.831,281.25z M413.578,305.156h71.719v11.953
			c0,19.773-16.087,35.859-35.859,35.859c-19.773,0-35.859-16.086-35.859-35.859V305.156z M411.75,281.25l-19.921-119.531h48.992
			l39.843,119.531H411.75z M102.797,125.859c0-6.591,5.362-11.953,11.953-11.953h382.5c6.591,0,11.953,5.362,11.953,11.953v11.953
			c-11.382,0-394.937,0-406.406,0V125.859z M389.672,305.156v11.953c0,19.773-16.087,35.859-35.859,35.859
			c-19.773,0-35.859-16.086-35.859-35.859v-11.953H389.672z M317.953,281.25V161.719h49.64l19.922,119.531H317.953z M224.486,281.25
			l19.922-119.531h49.64V281.25H224.486z M294.047,305.156v11.953c0,19.773-16.087,35.859-35.859,35.859
			c-19.773,0-35.859-16.086-35.859-35.859v-11.953H294.047z M131.334,281.25l39.843-119.531h48.993L200.248,281.25H131.334z
			 M198.422,305.156v11.953c0,19.773-16.087,35.859-35.859,35.859c-19.773,0-35.859-16.086-35.859-35.859v-11.953H198.422z
			 M97.91,161.719h48.067L106.134,281.25H32.168L97.91,161.719z M23.906,317.109v-11.953h78.891v11.953
			c0,18.768-18.802,35.859-39.445,35.859c-5.205,0-10.598-1.129-15.618-3.277C33.482,343.63,23.906,330.535,23.906,317.109z
			 M246.235,678.094H126.703V575.297h119.531V678.094z M246.235,551.39H126.703V448.594h119.531V551.39z M557.016,678.094H270.141
			V436.64c0-6.6-5.353-11.953-11.953-11.953H114.75c-6.601,0-11.953,5.354-11.953,11.953v241.453H54.985V376.291
			c2.771,0.376,5.562,0.584,8.367,0.584c15.731,0,31.634-6.232,43.626-17.1c2.652-2.403,5.041-4.973,7.185-7.666
			c10.87,14.99,28.51,24.766,48.4,24.766c19.53,0,36.899-9.416,47.813-23.948c10.913,14.532,28.282,23.948,47.813,23.948
			s36.899-9.416,47.813-23.948c10.913,14.532,28.282,23.948,47.813,23.948c19.529,0,36.898-9.416,47.813-23.948
			c10.913,14.532,28.282,23.948,47.813,23.948c19.89,0,37.53-9.775,48.4-24.766c2.143,2.693,4.531,5.262,7.184,7.666
			c11.992,10.867,27.895,17.1,43.627,17.1c2.799,0,5.59-0.2,8.367-0.579V678.094z M588.094,317.109
			c0,13.804-9.933,27.049-24.713,32.961c-4.833,1.925-9.789,2.898-14.732,2.898c-20.645,0-39.445-17.092-39.445-35.859v-11.953
			h78.891V317.109z"/>
	</g>
</g>
<g>
	<g>
		<path fill="#FFFFFF" d="M521.156,551.39h-11.953V436.64c0-6.6-5.354-11.953-11.953-11.953H353.813
			c-6.601,0-11.953,5.354-11.953,11.953v114.75h-11.953c-6.601,0-11.953,5.354-11.953,11.953c0,6.601,5.353,11.953,11.953,11.953
			h191.25c6.6,0,11.953-5.353,11.953-11.953C533.11,556.744,527.756,551.39,521.156,551.39z M485.297,551.39H365.766V448.594
			h119.531V551.39z"/>
	</g>
</g>
<g>
	<g>
		<path fill="#FFFFFF" d="M449.438,599.203h-95.625c-6.601,0-11.953,5.354-11.953,11.953c0,6.601,5.353,11.953,11.953,11.953h95.625
			c6.6,0,11.953-5.353,11.953-11.953C461.391,604.556,456.037,599.203,449.438,599.203z"/>
	</g>
</g>
</svg>
