<?xml version="1.0" encoding="utf-8"?>
<!-- Generator: Adobe Illustrator 16.0.2, SVG Export Plug-In . SVG Version: 6.00 Build 0)  -->
<!DOCTYPE svg PUBLIC "-//W3C//DTD SVG 1.1//EN" "http://www.w3.org/Graphics/SVG/1.1/DTD/svg11.dtd">
<svg version="1.1" id="Capa_1" xmlns="http://www.w3.org/2000/svg" xmlns:xlink="http://www.w3.org/1999/xlink" x="0px" y="0px"
	 width="612px" height="792px" viewBox="0 0 612 792" enable-background="new 0 0 612 792" xml:space="preserve">
<g>
	<g>
		<path fill="#FFFFFF" d="M462.214,453.857c-42.538,0-77.144,34.605-77.144,77.143c0,42.538,34.605,77.144,77.144,77.144
			c42.545,0,77.143-34.605,77.143-77.144C539.357,488.463,504.751,453.857,462.214,453.857z M462.214,569.572
			c-21.271,0-38.571-17.3-38.571-38.572c0-21.271,17.299-38.571,38.571-38.571c21.271,0,38.571,17.3,38.571,38.571
			C500.785,552.273,483.486,569.572,462.214,569.572z"/>
	</g>
</g>
<g>
	<g>
		<path fill="#FFFFFF" d="M198.643,453.857c-42.537,0-77.143,34.605-77.143,77.143c0,42.538,34.605,77.144,77.143,77.144
			c42.538,0,77.144-34.605,77.144-77.144C275.786,488.463,241.181,453.857,198.643,453.857z M198.643,569.572
			c-21.271,0-38.571-17.3-38.571-38.572c0-21.271,17.3-38.571,38.571-38.571c21.266,0,38.571,17.3,38.571,38.571
			C237.214,552.273,219.914,569.572,198.643,569.572z"/>
	</g>
</g>
<g>
	<g>
		<path fill="#FFFFFF" d="M514.163,233.049c-3.278-6.512-9.945-10.62-17.235-10.62H395.357v38.572h89.678l52.516,104.451
			l34.47-17.332L514.163,233.049z"/>
	</g>
</g>
<g>
	<g>
		<rect x="258.429" y="512.358" fill="#FFFFFF" width="145.929" height="38.571"/>
	</g>
</g>
<g>
	<g>
		<path fill="#FFFFFF" d="M140.785,512.358H73.929c-10.652,0-19.285,8.634-19.285,19.285c0,10.652,8.634,19.285,19.285,19.285
			h66.857c10.652,0,19.285-8.634,19.285-19.285C160.072,520.99,151.438,512.358,140.785,512.358z"/>
	</g>
</g>
<g>
	<g>
		<path fill="#FFFFFF" d="M607.95,394.457l-37.935-48.857c-3.645-4.706-9.27-7.457-15.229-7.457H414.643v-135
			c0-10.652-8.634-19.285-19.285-19.285H73.929c-10.652,0-19.285,8.634-19.285,19.285s8.634,19.285,19.285,19.285h302.143v135
			c0,10.652,8.634,19.285,19.285,19.285h149.985l28.086,36.18v99.463h-53.357c-10.652,0-19.285,8.634-19.285,19.285
			c0,10.653,8.634,19.285,19.285,19.285h72.643c10.653,0,19.285-8.634,19.287-19.285V406.286
			C612,402.004,610.573,397.839,607.95,394.457z"/>
	</g>
</g>
<g>
	<g>
		<path fill="#FFFFFF" d="M139.5,414.643H50.785c-10.652,0-19.285,8.634-19.285,19.285c0,10.653,8.634,19.285,19.285,19.285h88.714
			c10.652,0,19.285-8.634,19.285-19.285C158.785,423.277,150.152,414.643,139.5,414.643z"/>
	</g>
</g>
<g>
	<g>
		<path fill="#FFFFFF" d="M183.857,338.785H19.285C8.634,338.785,0,347.419,0,358.072c0,10.652,8.634,19.285,19.285,19.285h164.571
			c10.653,0,19.285-8.634,19.285-19.285C203.142,347.42,194.51,338.785,183.857,338.785z"/>
	</g>
</g>
<g>
	<g>
		<path fill="#FFFFFF" d="M215.357,262.928H50.785c-10.652,0-19.285,8.634-19.285,19.285c0,10.652,8.634,19.285,19.285,19.285
			h164.571c10.653,0,19.285-8.634,19.285-19.285C234.644,271.562,226.01,262.928,215.357,262.928z"/>
	</g>
</g>
</svg>
