<?xml version="1.0" encoding="utf-8"?>
<!-- Generator: Adobe Illustrator 16.0.2, SVG Export Plug-In . SVG Version: 6.00 Build 0)  -->
<!DOCTYPE svg PUBLIC "-//W3C//DTD SVG 1.1//EN" "http://www.w3.org/Graphics/SVG/1.1/DTD/svg11.dtd">
<svg version="1.1" id="Capa_1" xmlns="http://www.w3.org/2000/svg" xmlns:xlink="http://www.w3.org/1999/xlink" x="0px" y="0px"
	 width="512px" height="512px" viewBox="0 0 512 512" enable-background="new 0 0 512 512" xml:space="preserve">
<g>
	<path fill="#FFFFFF" d="M482,166.603l14.442,8.423l15.114-25.915L255.998,0.067L0.44,149.183l15.119,25.911L30,166.669v254.265H0
		v30h271v61h241v-151h-30V166.603z M60,149.164L256.002,34.799L452,149.106v211.826h-61v-180H121v240H60V149.164z M361,240.933H151
		v-30h210V240.933z M151,270.933h210v30H151V270.933z M151,420.933v-90h210v30h-90v60H151z M482,481.933H301v-91h181V481.933z"/>
	<path fill="#FFFFFF" d="M181,120.933h150v30H181V120.933z"/>
</g>
</svg>
