<?xml version="1.0" encoding="utf-8"?>
<!-- Generator: Adobe Illustrator 16.0.0, SVG Export Plug-In . SVG Version: 6.00 Build 0)  -->
<!DOCTYPE svg PUBLIC "-//W3C//DTD SVG 1.1//EN" "http://www.w3.org/Graphics/SVG/1.1/DTD/svg11.dtd">
<svg version="1.1" id="Capa_1" xmlns="http://www.w3.org/2000/svg" xmlns:xlink="http://www.w3.org/1999/xlink" x="0px" y="0px"
	 width="612px" height="792px" viewBox="0 0 612 792" enable-background="new 0 0 612 792" xml:space="preserve">
<g>
	<g>
		<path fill="#FFFFFF" d="M589.875,697.417H507.03c10.939-7.375,19.052-19.666,22.862-31.958h11.8
			c26.796,0,48.429-22.248,48.429-49.044v-35.03c0-19.053-11.063-36.261-28.394-44.25l-41.791-19.053l-36.998-59.122
			c-11.186-17.577-30.605-28.271-51.502-28.271H272.997c-18.931,0-36.752,8.851-48.185,23.969l-47.567,62.563l-79.896,21.88
			c-21.142,5.776-35.769,24.951-35.769,46.831v30.605c0,26.796,21.879,49.044,48.552,49.044h5.654
			c3.688,12.291,11.923,24.583,22.861,31.958H34.416V197.025c0-34.663,28.394-62.441,63.057-62.441h169.133
			c30.36,0,56.418,21.633,61.826,51.501c-40.438,6.515-70.185,41.301-70.308,82.231v8.604c0,6.883,5.53,12.414,12.414,12.537
			h142.459c6.885-0.123,12.292-5.654,12.292-12.537v-8.604c-0.123-41.546-30.729-76.822-72.028-82.477
			C347.484,142.45,310.364,110,266.483,110H97.473c-48.307,0-87.64,38.842-87.64,87.025V710.2c0,6.761,5.653,11.8,12.415,11.8
			h567.627c6.76,0,12.291-5.531,12.291-12.291C602.166,702.948,596.635,697.417,589.875,697.417z M345.395,209.562
			c29.745,1.844,53.346,25.566,55.189,55.189H282.953C284.92,232.302,312.945,207.595,345.395,209.562z M114.067,640.876h-3.934
			c-13.152,0-23.969-11.186-23.969-24.461V585.81c0-10.816,7.252-20.28,17.699-23.107l83.951-22.862
			c2.582-0.737,4.917-2.213,6.516-4.425l50.149-65.884c6.638-8.974,17.331-14.258,28.518-14.258h158.438
			c12.414,0,23.969,6.392,30.606,16.962l38.964,62.195c1.229,2.09,3.072,3.688,5.284,4.672l45.11,20.525
			c8.481,3.935,14.013,12.415,14.013,21.879v35.031c0,13.275-10.692,24.461-23.846,24.461h-9.956
			c-4.425-33.557-35.276-57.033-68.71-52.607c-27.41,3.688-49.044,25.196-52.607,52.607H235.385
			c-4.426-33.557-35.154-57.033-68.711-52.607C139.264,591.832,117.631,613.466,114.067,640.876z M174.787,685.126
			c-20.159,0-36.631-16.471-36.631-36.63c-0.121-20.28,16.35-36.629,36.631-36.629c20.279,0,36.629,16.471,36.629,36.629
			C211.416,668.777,194.946,685.126,174.787,685.126z M210.924,697.417c10.815-7.375,19.052-19.666,22.739-31.958h178.229
			c3.688,12.292,11.923,24.583,22.862,31.958H210.924z M470.892,685.126c-20.281,0-36.629-16.471-36.629-36.63
			c0-20.158,16.471-36.629,36.629-36.629c20.281,0,36.629,16.471,36.629,36.629C507.521,668.777,491.05,685.126,470.892,685.126z"/>
	</g>
</g>
<g>
	<g>
		<path fill="#FFFFFF" d="M341.706,300.52c-6.761,0-12.292,5.531-12.292,12.292v21.264c0,6.761,5.531,12.292,12.292,12.292
			s12.291-5.531,12.291-12.292v-21.264C353.997,306.052,348.467,300.52,341.706,300.52z"/>
	</g>
</g>
<g>
	<g>
		<path fill="#FFFFFF" d="M401.936,300.52c-6.761,0-12.292,5.531-12.292,12.292v21.264c0,6.761,5.531,12.292,12.292,12.292
			s12.292-5.531,12.292-12.292v-21.264C414.228,306.052,408.697,300.52,401.936,300.52z"/>
	</g>
</g>
<g>
	<g>
		<path fill="#FFFFFF" d="M281.478,300.52c-6.76,0-12.291,5.531-12.291,12.292v21.264c0,6.761,5.531,12.292,12.291,12.292
			c6.761,0,12.292-5.531,12.292-12.292v-21.264C293.77,306.052,288.239,300.52,281.478,300.52z"/>
	</g>
</g>
<g>
	<g>
		<path fill="#FFFFFF" d="M341.706,360.381c-6.761,0-12.292,5.531-12.292,12.291v21.265c0,6.761,5.531,12.292,12.292,12.292
			s12.291-5.53,12.291-12.292v-21.265C353.997,365.912,348.467,360.381,341.706,360.381z"/>
	</g>
</g>
<g>
	<g>
		<path fill="#FFFFFF" d="M401.936,360.381c-6.761,0-12.292,5.531-12.292,12.291v21.265c0,6.761,5.531,12.292,12.292,12.292
			s12.292-5.53,12.292-12.292v-21.265C414.228,365.912,408.697,360.381,401.936,360.381z"/>
	</g>
</g>
<g>
	<g>
		<path fill="#FFFFFF" d="M281.478,360.381c-6.76,0-12.291,5.531-12.291,12.291v21.265c0,6.761,5.531,12.292,12.291,12.292
			c6.761,0,12.292-5.53,12.292-12.292v-21.265C293.77,365.912,288.239,360.381,281.478,360.381z"/>
	</g>
</g>
</svg>
