<svg id="圖層_12" data-name="圖層 12" xmlns="http://www.w3.org/2000/svg" viewBox="0 0 512 512"><defs><style>.cls-1{fill:#473b33;}</style></defs><title>head-vip</title><path class="cls-1" d="M497.75,222.76s0,0,0,0L289.27,14.28a47,47,0,0,0-66.53,0L14.4,222.62c-.07.07-.15.14-.21.21A47,47,0,0,0,45.49,303a14.08,14.08,0,0,0,1.45.07h8.31V456.44a55.12,55.12,0,0,0,55.06,55.06h81.55a15,15,0,0,0,15-15V376.26A25.14,25.14,0,0,1,232,351.15h48.1a25.14,25.14,0,0,1,25.12,25.11V496.53a15,15,0,0,0,15,15h81.55a55.12,55.12,0,0,0,55.07-55.06V303.05h7.7a47.05,47.05,0,0,0,33.29-80.29Zm-21.2,45.33a17,17,0,0,1-12.09,5H441.78a15,15,0,0,0-15,15V456.44a25.14,25.14,0,0,1-25.12,25.12H335.11V376.26a55.12,55.12,0,0,0-55.06-55.06H232a55.13,55.13,0,0,0-55.06,55.06v105.3H110.31a25.15,25.15,0,0,1-25.12-25.12V288.08a15,15,0,0,0-15-15H47.93c-.23,0-.46,0-.7,0A17.09,17.09,0,0,1,35.45,243.9h0L243.91,35.45a17.09,17.09,0,0,1,24.18,0l208.4,208.39.09.09A17.14,17.14,0,0,1,476.55,268.09Z"/></svg>