<svg id="圖層_12" data-name="圖層 12" xmlns="http://www.w3.org/2000/svg" viewBox="0 0 512 512"><defs><style>.cls-1{fill:#473b33;}</style></defs><title>head-vip</title><path class="cls-1" d="M174.48,381.13a47,47,0,1,0,47,47A47,47,0,0,0,174.48,381.13Zm0,73.14a26.12,26.12,0,1,1,26.12-26.12A26.11,26.11,0,0,1,174.48,454.27Z"/><path class="cls-1" d="M373,381.13a47,47,0,1,0,47,47A47,47,0,0,0,373,381.13Zm0,73.14a26.12,26.12,0,1,1,26.12-26.12A26.11,26.11,0,0,1,373,454.27Z"/><path class="cls-1" d="M479.07,106.84a13.15,13.15,0,0,0-8.36-4.18L130.59,98l-9.4-28.73a48.08,48.08,0,0,0-44.93-32.4h-35a10.45,10.45,0,1,0,0,20.9h35A27.18,27.18,0,0,1,101.34,76l66.35,200.1-5.23,12a50.19,50.19,0,0,0,4.7,45.45,48.61,48.61,0,0,0,39.19,21.95H409.58a10.45,10.45,0,0,0,0-20.9H206.35a26.69,26.69,0,0,1-21.95-12.54A28.76,28.76,0,0,1,181.79,297l4.18-9.4,220-23a57.47,57.47,0,0,0,49.64-43.89l25.07-105A8.9,8.9,0,0,0,479.07,106.84ZM435.18,216a35.52,35.52,0,0,1-31.87,27.69L186,266.19,137.38,118.86l320.27,4.7Z"/></svg>