<svg id="圖層_12" data-name="圖層 12" xmlns="http://www.w3.org/2000/svg" viewBox="0 0 512 512"><defs><style>.cls-1{fill:#473b33;}</style></defs><title>head-vip</title><path class="cls-1" d="M255.83,28A228.31,228.31,0,1,0,416.94,94.73,227.84,227.84,0,0,0,255.83,28ZM132.68,423.15V403.43a123.16,123.16,0,1,1,246.31,0v19.72A207.38,207.38,0,0,1,132.68,423.15ZM399,406.4v-3c0-78.92-64.22-143.14-143.15-143.14S112.69,324.51,112.69,403.43v3A207.3,207.3,0,0,1,48,255.83C48,141.22,141.23,48,255.83,48s207.85,93.24,207.85,207.85A207.3,207.3,0,0,1,399,406.4Z"/><path class="cls-1" d="M256,95.1a77.25,77.25,0,1,0,77.25,77.25A77.25,77.25,0,0,0,256,95.1Zm0,134.52a57.27,57.27,0,1,1,57.27-57.27A57.28,57.28,0,0,1,256,229.62Z"/></svg>