<?xml version="1.0" encoding="utf-8"?>
<!-- Generator: Adobe Illustrator 23.0.5, SVG Export Plug-In . SVG Version: 6.00 Build 0)  -->
<svg version="1.1" id="圖層_2" xmlns="http://www.w3.org/2000/svg" xmlns:xlink="http://www.w3.org/1999/xlink" x="0px" y="0px"
	 viewBox="0 0 396.9 453.5" style="enable-background:new 0 0 396.9 453.5;" xml:space="preserve">
<style type="text/css">
	.st0{fill-rule:evenodd;clip-rule:evenodd;fill:#FFFFFF;}
</style>
<g>
	<path class="st0" d="M167.3,388c-57.3,0-104.9-34.6-121.4-88.1c-7.5-24.2-8.9-49.5-4.2-75.1C46,201.4,55.2,178,69,155.1
		c13.4-22.1,42.9-55.7,71.3-74.5c14.7-9.8,28-15,38.3-15c1.2,0,2.3,0.1,3.4,0.2c13.2,1.5,28.1,8.5,42.1,19.7
		c13.1,10.6,24.4,24.1,31.1,37.3c10.1,19.8,8.1,27.6-10.1,39.5c-5.8,3.7-12.5,6.8-19.7,10.1c-4.7,2.2-9.5,4.4-14.3,6.9
		c-9.2,4.7-23.3,12-24.4,25.8c-1,12.3,8.9,21.1,16.4,26.7c10.2,7.6,21.5,13.9,32.5,20c30.7,17.1,49.4,28.8,47.9,53
		c-1.4,24.6-17.8,47.3-46.3,63.9C215.9,381.4,191.7,388,167.3,388C167.3,388,167.3,388,167.3,388z M168.6,101
		c-23.5,0-48.6,17-68.9,46.6c-21.4,31-30.7,67.9-27.8,109.6c3.8,53.8,29.3,83.1,75.7,87l0.3,0l0.3,0c0.9,0,1.8,0,2.7,0
		c28.7,0,58.1-13.2,68.4-30.8c5.4-9.3,5.6-19.5,0.5-28.6l-0.2-0.4l-0.2-0.4c-8-12.2-21.7-22.3-39.6-33.7l-0.1-0.1
		c-0.9-0.5-1.7-1.1-2.5-1.6c0,0-3.6-2.3-5.3-3.4c-19.2-12.2-41-26.1-39.9-37.3l0-0.2c0.7-7.9,21.6-19.4,35.4-27
		c20.5-11.3,39.8-22,43.8-38.5c1.6-6.2,1.4-16-8.3-26.6l-0.3-0.3l-0.3-0.3C192.7,105.8,181,101,168.6,101z"/>
	<path class="st0" d="M341.8,170.8c-18.5-15-45.8-12.2-60.9,6.5c-5.2,6.4-8.2,13.9-9.2,21.5l-11.4,7.3c-3.5,2.2-2.9,7.5,1,8.9
		l13.1,4.9c3.1,8,8.6,15.2,16.3,20.4c18.4,12.4,43.7,8.4,57.6-8.9C363.2,212.8,360.3,185.7,341.8,170.8z"/>
	<path class="st0" d="M155.2,142.6c1.4,2.6,0.4,5.8-2.2,7.1c-2.6,1.4-5.8,0.4-7.1-2.2c-1.4-2.6-0.4-5.8,2.2-7.1
		C150.7,139,153.9,140,155.2,142.6z"/>
	<path class="st0" d="M180.3,129.5c1.4,2.6,0.4,5.8-2.2,7.1c-2.6,1.4-5.8,0.4-7.1-2.2c-1.4-2.6-0.4-5.8,2.2-7.1
		C175.7,125.9,178.9,126.9,180.3,129.5z"/>
</g>
</svg>
