<svg id="圖層_3" data-name="圖層 3" xmlns="http://www.w3.org/2000/svg" viewBox="0 0 512 512"><defs><style>.cls-1{fill:#fbbb00;}.cls-2{fill:#518ef8;}.cls-3{fill:#28b446;}.cls-4{fill:#f14336;}</style></defs><title>google</title><path class="cls-1" d="M127.7,304.1l-16,59.9-58.6,1.2A230.61,230.61,0,0,1,51.4,150h0l52.2,9.6,22.9,51.9a136.65,136.65,0,0,0-7.4,44.5A135,135,0,0,0,127.7,304.1Z"/><path class="cls-2" d="M482.4,213a233.93,233.93,0,0,1,4,43,229.67,229.67,0,0,1-86.1,179.7h0l-65.7-3.4-9.3-58.1a137.53,137.53,0,0,0,59.1-70.1H261.1V213H482.4Z"/><path class="cls-3" d="M400.2,435.7h0A230.43,230.43,0,0,1,53.1,365.2l74.7-61.1a137,137,0,0,0,197.4,70.2Z"/><path class="cls-4" d="M403.1,78.6l-74.6,61.1a137,137,0,0,0-202,71.8L51.4,150h0A230.52,230.52,0,0,1,403.1,78.6Z"/></svg>