<svg id="圖層_2" data-name="圖層 2" xmlns="http://www.w3.org/2000/svg" xmlns:xlink="http://www.w3.org/1999/xlink" viewBox="0 0 512 512"><defs><style>.cls-1{fill:url(#未命名漸層_4);}.cls-2{fill:url(#未命名漸層_2);}.cls-3{fill:url(#未命名漸層_3);}</style><linearGradient id="未命名漸層_4" x1="42.97" y1="42.97" x2="469.03" y2="469.03" gradientTransform="matrix(1, 0, 0, -1, 0, 512)" gradientUnits="userSpaceOnUse"><stop offset="0" stop-color="#ffd600"/><stop offset="0.5" stop-color="#ff0100"/><stop offset="1" stop-color="#d800b9"/></linearGradient><linearGradient id="未命名漸層_2" x1="163.04" y1="163.04" x2="348.95" y2="348.95" gradientTransform="matrix(1, 0, 0, -1, 0, 512)" gradientUnits="userSpaceOnUse"><stop offset="0" stop-color="#ff6400"/><stop offset="0.5" stop-color="#ff0100"/><stop offset="1" stop-color="#fd0056"/></linearGradient><linearGradient id="未命名漸層_3" x1="370.93" y1="370.93" x2="414.37" y2="414.38" gradientTransform="matrix(1, 0, 0, -1, 0, 512)" gradientUnits="userSpaceOnUse"><stop offset="0" stop-color="#f30072"/><stop offset="1" stop-color="#e50097"/></linearGradient></defs><title>ig</title><path class="cls-1" d="M510.46,150.46c-1.25-27.25-5.57-45.86-11.9-62.15A125.58,125.58,0,0,0,469,43a125.5,125.5,0,0,0-45.34-29.53C407.4,7.11,388.8,2.79,361.55,1.55S325.52,0,256,0,177.75.3,150.45,1.54,104.6,7.12,88.31,13.44A125.58,125.58,0,0,0,43,43,125.61,125.61,0,0,0,13.43,88.31C7.11,104.6,2.79,123.21,1.55,150.45S0,186.47,0,256s.3,78.25,1.55,105.55,5.57,45.85,11.9,62.14A125.43,125.43,0,0,0,43,469a125.54,125.54,0,0,0,45.35,29.53c16.28,6.33,34.89,10.65,62.14,11.9S186.48,512,256,512s78.25-.29,105.55-1.54,45.86-5.57,62.14-11.9a130.89,130.89,0,0,0,74.87-74.87c6.33-16.29,10.65-34.9,11.9-62.14S512,325.53,512,256,511.7,177.76,510.46,150.46Zm-46.08,209c-1.14,25-5.31,38.52-8.81,47.54A84.8,84.8,0,0,1,407,455.57c-9,3.51-22.57,7.68-47.53,8.81-27,1.24-35.09,1.5-103.45,1.5s-76.46-.26-103.45-1.5c-25-1.13-38.51-5.3-47.53-8.81a79.33,79.33,0,0,1-29.44-19.15A79.42,79.42,0,0,1,56.43,407c-3.5-9-7.68-22.58-8.81-47.54-1.23-27-1.49-35.09-1.49-103.44s.26-76.46,1.49-103.45c1.14-25,5.31-38.52,8.81-47.54A79.45,79.45,0,0,1,75.58,75.58,79.31,79.31,0,0,1,105,56.44c9-3.51,22.57-7.68,47.53-8.82,27-1.23,35.09-1.49,103.45-1.49h0c68.35,0,76.45.26,103.45,1.49,25,1.14,38.51,5.31,47.53,8.82a79.19,79.19,0,0,1,29.43,19.14A79.21,79.21,0,0,1,455.56,105c3.51,9,7.68,22.58,8.82,47.54,1.23,27,1.49,35.09,1.49,103.44S465.61,332.46,464.38,359.45Z"/><path class="cls-2" d="M256,124.54A131.46,131.46,0,1,0,387.46,256,131.46,131.46,0,0,0,256,124.54Zm0,216.79A85.33,85.33,0,1,1,341.33,256,85.32,85.32,0,0,1,256,341.33Z"/><path class="cls-3" d="M423.37,119.35a30.72,30.72,0,1,1-30.72-30.72A30.72,30.72,0,0,1,423.37,119.35Z"/></svg>