<svg id="Capa_1" data-name="Capa 1" xmlns="http://www.w3.org/2000/svg" viewBox="0 0 512 512"><defs><style>.cls-1{fill:#777;}</style></defs><title>sp-cart</title><path class="cls-1" d="M486.21,105.11c-1.93-1.94-3.87-3.87-7.74-3.87H110.91l-9.67-50.3c0-3.87-5.81-7.74-9.68-7.74h-58c-5.81,0-9.68,3.87-9.68,9.67s3.87,9.68,9.68,9.68h50.3l46.43,236c5.8,30.95,34.82,54.17,65.77,54.17H418.5c5.81,0,9.67-3.87,9.67-9.68s-3.86-9.67-9.67-9.67H198c-15.47,0-31-7.74-38.69-21.28l282.45-38.69a8.31,8.31,0,0,0,7.73-7.74l38.7-154.76S488.15,107,486.21,105.11ZM432,256,149.6,292.76,114.78,118.65H464.93Z"/><path class="cls-1" d="M188.29,372.07a48.37,48.37,0,1,0,48.36,48.37A47.89,47.89,0,0,0,188.29,372.07Zm0,77.38c-15.48,0-29-13.54-29-29s13.54-29,29-29,29,13.54,29,29S203.77,449.45,188.29,449.45Z"/><path class="cls-1" d="M381.75,372.07a48.37,48.37,0,1,0,48.36,48.37A47.9,47.9,0,0,0,381.75,372.07Zm0,77.38c-15.48,0-29-13.54-29-29s13.54-29,29-29,29,13.54,29,29S397.22,449.45,381.75,449.45Z"/></svg>