<svg id="圖層_3" data-name="圖層 3" xmlns="http://www.w3.org/2000/svg" viewBox="0 0 50 50"><defs><style>.cls-1{fill:#fff;}</style></defs><title>h-head03</title><path class="cls-1" d="M30.31,37.42a.85.85,0,0,1,1,.14L41.45,47.68c2,2,4.84,2.5,6.63.71l.31-.31c1.79-1.79,1.31-4.61-.71-6.63L37.54,31.31a.84.84,0,0,1-.12-1,19.5,19.5,0,0,0-3-24A19.88,19.88,0,0,0,6.31,34.43,19.49,19.49,0,0,0,30.31,37.42ZM10,30.76a14.69,14.69,0,1,1,20.77,0A14.7,14.7,0,0,1,10,30.76Z"/><path class="cls-1" d="M27.6,17.94a8.81,8.81,0,0,0-11.55-4.68,2.05,2.05,0,0,1-1.6-3.78,12.92,12.92,0,0,1,16.93,6.86,2.05,2.05,0,0,1-3.78,1.6Z"/></svg>