<svg xmlns="http://www.w3.org/2000/svg" viewBox="0 0 50 50"><defs><style>.cls-1{fill:#fff;}</style></defs><title>h-head01</title><g id="圖層_2" data-name="圖層 2"><path class="cls-1" d="M25,49.5A24.5,24.5,0,1,1,49.5,25,24.53,24.53,0,0,1,25,49.5ZM16,41a36.9,36.9,0,0,0,4.39,6.83l.12.14.18,0a24.87,24.87,0,0,0,3.2.36l.53,0V40.26H15.67Zm9.53-.23v7.62l.53,0A22.47,22.47,0,0,0,29.3,48l.17,0,.12-.14A35.61,35.61,0,0,0,34,41l.35-.72H25.56ZM8,41.09a23.37,23.37,0,0,0,9.3,6l1.46.5-.89-1.26a38.59,38.59,0,0,1-3.33-5.79l-.13-.29H7.23Zm27.38-.55a38.31,38.31,0,0,1-3.32,5.79l-.89,1.26,1.46-.5a23.47,23.47,0,0,0,9.32-6l.8-.84H35.54ZM38.83,26a38.49,38.49,0,0,1-2.54,12.4l-.26.68h7.63l.15-.2a23.26,23.26,0,0,0,4.54-12.83l0-.53H38.85ZM25.56,39.12h9.29l.13-.31a36.37,36.37,0,0,0,2.74-12.73v-.52H25.56Zm-13.28-13A35.83,35.83,0,0,0,15,38.81l.13.31h9.27V25.56H12.27Zm-10.62,0A23.26,23.26,0,0,0,6.2,38.92l.15.2h7.59l-.26-.68a36.71,36.71,0,0,1-2.53-12.39v-.49H1.63ZM36.32,11.56A36.66,36.66,0,0,1,38.85,24v.49h9.51l0-.53A23.18,23.18,0,0,0,43.8,11.08l-.15-.2H36.06ZM25.56,24.44H37.73v-.52A36,36,0,0,0,35,11.19l-.13-.31H25.56ZM15,11.19a36.37,36.37,0,0,0-2.74,12.73v.52H24.44V10.88H15.15ZM6.2,11.08A23.26,23.26,0,0,0,1.66,23.91l0,.53h9.51V24a37.15,37.15,0,0,1,2.49-12.39l.26-.68H6.35ZM32.09,3.67a39,39,0,0,1,3.34,5.79l.13.29h7.21L42,8.91a23.33,23.33,0,0,0-9.31-6l-1.47-.5ZM25.56,9.75h8.77L34,9A37.24,37.24,0,0,0,29.59,2.2l-.12-.14-.18,0a24.87,24.87,0,0,0-3.2-.36l-.53,0ZM23.92,1.66A24.18,24.18,0,0,0,20.7,2l-.17,0-.12.14A35.61,35.61,0,0,0,16,9l-.35.72h8.79V1.63ZM17.29,2.93A23.29,23.29,0,0,0,8,8.91l-.8.84h7.16l.13-.29a36.26,36.26,0,0,1,3.34-5.77l.91-1.27Z"/><path class="cls-1" d="M25,1A24.44,24.44,0,0,1,30,1.51L31.68,4A37.07,37.07,0,0,1,35,9.68l.27.57h8.68a24,24,0,0,1,0,29.5h-8.7l-.27.58A37.24,37.24,0,0,1,31.68,46L30,48.48a24,24,0,0,1-9.93,0L18.31,46A37.15,37.15,0,0,1,15,40.32l-.27-.57H6.08a24,24,0,0,1,0-29.5h8.63L15,9.67A35.15,35.15,0,0,1,18.27,4L20,1.52A23.94,23.94,0,0,1,25,1m.06,9.25H35.14l-.72-1.44A37,37,0,0,0,30,1.89l-.23-.29-.37-.07a25.77,25.77,0,0,0-3.27-.37l-1.05,0v9.14m-10.22,0H25V1.11l-1.05,0a23.45,23.45,0,0,0-3.29.37l-.35.07L20,1.88a36,36,0,0,0-4.47,6.93l-.72,1.44M38.37,24.94H48.89l0-1.05a23.6,23.6,0,0,0-4.64-13.1l-.3-.41H35.32l.54,1.36A36.48,36.48,0,0,1,38.35,24l0,1m-13.31,0H38.25l0-1A36.44,36.44,0,0,0,35.42,11l-.25-.62H25.06V24.94m-13.31,0H24.94V10.38H14.81l-.25.62a36.68,36.68,0,0,0-2.78,12.91l0,1m-10.64,0H11.63l0-1A36.68,36.68,0,0,1,14.1,11.74l.53-1.36H6.1l-.3.41a23.78,23.78,0,0,0-4.64,13.1l0,1.05m24,14.68H35.19l.25-.62a36.68,36.68,0,0,0,2.78-12.91l0-1H25.06V39.62m10.24,0h8.61l.3-.41a23.78,23.78,0,0,0,4.64-13.1l0-1.05H38.37l0,1a38.37,38.37,0,0,1-2.51,12.24l-.53,1.36m-20.47,0H24.94V25.06H11.75l0,1A36.58,36.58,0,0,0,14.58,39l.25.62m-8.73,0h8.58l-.54-1.36A36.48,36.48,0,0,1,11.65,26l0-1H1.11l0,1.05A23.78,23.78,0,0,0,5.8,39.21l.3.41m19,9.27,1.05,0a23.45,23.45,0,0,0,3.29-.37l.35-.07.23-.28a36,36,0,0,0,4.47-6.93l.72-1.44H25.05v9.14m-.11,0V39.76H14.86l.72,1.44A37,37,0,0,0,20,48.12l.23.29.37.07a25.77,25.77,0,0,0,3.27.37l1.05,0M30.46,1.63a24,24,0,0,1,13.44,8.6L42.33,8.57a23.76,23.76,0,0,0-9.51-6.13l-2.36-.81m-10.93,0-2.4.83A23.65,23.65,0,0,0,7.67,8.57L6.09,10.23a24.07,24.07,0,0,1,13.44-8.6M6.1,39.77l1.57,1.66a23.72,23.72,0,0,0,9.5,6.13l2.32.8A24,24,0,0,1,6.1,39.77m37.72.1a24,24,0,0,1-13.36,8.5l2.36-.81a23.93,23.93,0,0,0,9.52-6.13l1.48-1.56M25,0A25,25,0,1,0,50,25,25,25,0,0,0,25,0Zm1.06,9.25V2.16a23,23,0,0,1,3.14.36,36,36,0,0,1,4.33,6.73Zm-9.61,0A34.87,34.87,0,0,1,20.8,2.52,21.53,21.53,0,0,1,24,2.16V9.25h-7.5Zm19.43,0a38.2,38.2,0,0,0-3.39-5.87,22.89,22.89,0,0,1,9.12,5.87Zm-27.49,0A22.88,22.88,0,0,1,17.45,3.4a36.39,36.39,0,0,0-3.38,5.85Zm31,14.69a37.7,37.7,0,0,0-2.56-12.56h6.6a22.65,22.65,0,0,1,4.45,12.56Zm-13.29,0V11.38H34.5a35.4,35.4,0,0,1,2.72,12.56Zm-13.28,0a35.69,35.69,0,0,1,2.7-12.56h8.46V23.94Zm-10.62,0A22.75,22.75,0,0,1,6.61,11.38h6.56a37.91,37.91,0,0,0-2.52,12.56Zm23.9,14.68V26.06H37.22a35.69,35.69,0,0,1-2.7,12.56Zm10.7,0a39.55,39.55,0,0,0,2.58-12.56h8.51A22.75,22.75,0,0,1,43.4,38.62Zm-21.26,0a35.45,35.45,0,0,1-2.72-12.56H23.94V38.62Zm-8.89,0A22.75,22.75,0,0,1,2.16,26.06h8.49a37.7,37.7,0,0,0,2.56,12.56Zm25.88,8a38.08,38.08,0,0,0,3.37-5.87h5.76a23,23,0,0,1-9.13,5.87Zm-6.44,1.22V40.75h7.5a34.87,34.87,0,0,1-4.35,6.73,21.53,21.53,0,0,1-3.15.36Zm-8.56-1.22a23,23,0,0,1-9.1-5.87h5.73a39.79,39.79,0,0,0,3.37,5.87Zm6.45,1.23a23,23,0,0,1-3.14-.36,36,36,0,0,1-4.33-6.73h7.47v7.09Z"/></g></svg>