<svg id="圖層_1" data-name="圖層 1" xmlns="http://www.w3.org/2000/svg" viewBox="0 0 70 70"><defs><style>.cls-1{fill:#fff;}</style></defs><title>heg_icon</title><path class="cls-1" d="M64.1,10.54A5,5,0,0,0,60.59,12h-3.9V8.09a1,1,0,0,0-1-1H1.88a1,1,0,0,0-1,1v47.6A7.22,7.22,0,0,0,8.09,62.9H62.26a7.23,7.23,0,0,0,6.86-7.21V15.55A5,5,0,0,0,64.1,10.54ZM59.34,14a5.07,5.07,0,0,0-.26,1.57v40l-2.39,0V14ZM8.09,60.91a5.22,5.22,0,0,1-5.21-5.22V9.09H54.7v46.6a7.19,7.19,0,0,0,2.23,5.22Zm59-5.22a5.21,5.21,0,0,1-10.07,1.9l3,0a1,1,0,0,0,1-1v-41a3,3,0,0,1,6,0Z"/><path class="cls-1" d="M48,13.42H9a1,1,0,0,0,0,2H48a1,1,0,0,0,0-2Z"/><path class="cls-1" d="M48,20.28H29.75a1,1,0,0,0,0,2H48a1,1,0,0,0,0-2Z"/><path class="cls-1" d="M48,27.14H29.75a1,1,0,0,0,0,2H48a1,1,0,1,0,0-2Z"/><path class="cls-1" d="M48,34H29.75a1,1,0,0,0,0,2H48a1,1,0,0,0,0-2Z"/><path class="cls-1" d="M48,40.86H29.75a1,1,0,0,0,0,2H48a1,1,0,1,0,0-2Z"/><path class="cls-1" d="M48,47.72H29.75a1,1,0,0,0,0,2H48a1,1,0,0,0,0-2Z"/><path class="cls-1" d="M48,54.58H9a1,1,0,0,0,0,2H48a1,1,0,1,0,0-2Z"/><path class="cls-1" d="M9,49.72H24.25a1,1,0,0,0,1-1V21.28a1,1,0,0,0-1-1H9a1,1,0,0,0-1,1V48.72A1,1,0,0,0,9,49.72Zm1-27.44H23.25V47.72H10Z"/></svg>