<svg id="圖層_1" data-name="圖層 1" xmlns="http://www.w3.org/2000/svg" viewBox="0 0 70 70"><defs><style>.cls-1{fill:#fff;}</style></defs><title>heg_icon</title><path class="cls-1" d="M46.69,21h-.3A23.52,23.52,0,1,0,4.71,39.9l-2.5,6.35a1,1,0,0,0,.22,1.08,1,1,0,0,0,.72.31,1,1,0,0,0,.35-.06l6.76-2.5a23.42,23.42,0,0,0,13.05,4h.3a23.52,23.52,0,0,0,36.13,15l6.76,2.49a.84.84,0,0,0,.35.07,1,1,0,0,0,.72-.31,1,1,0,0,0,.22-1.08l-2.5-6.35A23.51,23.51,0,0,0,46.69,21ZM11,43.15a1,1,0,0,0-1-.16l-5.13,1.9,1.89-4.78a.09.09,0,0,1,0,0,.29.29,0,0,0,0-.09.36.36,0,0,0,0-.11.17.17,0,0,0,0-.07v-.12a.15.15,0,0,0,0-.07.51.51,0,0,0,0-.13.14.14,0,0,1,0-.06l-.05-.12,0-.06a1,1,0,0,0-.08-.11v0A21.48,21.48,0,1,1,11,43.15ZM60,62a1,1,0,0,0-1,.16A21.5,21.5,0,0,1,25.65,48.91a23.55,23.55,0,0,0,21.18-23.4c0-.85,0-1.69-.13-2.51A21.49,21.49,0,0,1,63.35,58.08a0,0,0,0,1,0,0l-.08.12,0,.06a1.17,1.17,0,0,0,0,.11.14.14,0,0,1,0,.07.5.5,0,0,0,0,.12.2.2,0,0,0,0,.07v.13a.17.17,0,0,0,0,.07.43.43,0,0,0,0,.11.29.29,0,0,0,0,.09.06.06,0,0,1,0,0l1.89,4.78Z"/><path class="cls-1" d="M23,30.12a2.66,2.66,0,0,0-1.9.7,2.56,2.56,0,0,0,0,3.6,2.9,2.9,0,0,0,3.8,0,2.56,2.56,0,0,0,0-3.6A2.66,2.66,0,0,0,23,30.12Z"/><path class="cls-1" d="M28.05,16.92a7.51,7.51,0,0,0-4.62-1.31,8.25,8.25,0,0,0-5.56,2.08,1.19,1.19,0,0,0-.42.92,1.45,1.45,0,0,0,.47,1.07,1.47,1.47,0,0,0,1,.37h.05a1.91,1.91,0,0,0,1.07-.4,4.91,4.91,0,0,1,3-1,4,4,0,0,1,2.35.62A2,2,0,0,1,26.23,21a1.85,1.85,0,0,1-.41,1.13,5.06,5.06,0,0,1-1,1c-.41.33-.83.65-1.26,1a8,8,0,0,0-1.22,1.18,4.52,4.52,0,0,0-.82,1.43,1.34,1.34,0,0,0,0,.35,1,1,0,0,0,.34.76,1.67,1.67,0,0,0,1.22.5h.15c.71,0,1.28-.49,1.71-1.46a3.87,3.87,0,0,1,.89-1.22,11.9,11.9,0,0,1,1.29-1.08,15.87,15.87,0,0,0,1.3-1,4.51,4.51,0,0,0,1-1.29,3.19,3.19,0,0,0,.41-1.61A4.44,4.44,0,0,0,28.05,16.92Z"/><path class="cls-1" d="M57.38,37.86h-8.5a1,1,0,0,0,0,2h8.5a1,1,0,0,0,0-2Z"/><path class="cls-1" d="M57.38,43.61H43.63a1,1,0,1,0,0,2H57.38a1,1,0,0,0,0-2Z"/><path class="cls-1" d="M57.38,49.36H37.88a1,1,0,1,0,0,2h19.5a1,1,0,0,0,0-2Z"/><path class="cls-1" d="M57.38,55.11H37.88a1,1,0,1,0,0,2h19.5a1,1,0,0,0,0-2Z"/></svg>