<svg id="圖層_1" data-name="圖層 1" xmlns="http://www.w3.org/2000/svg" viewBox="0 0 70 70"><defs><style>.cls-1{fill:#fff;}</style></defs><title>heg_icon</title><path class="cls-1" d="M66.33,22.55a.93.93,0,0,0-1.31,0l-2.13,2.13-1.22-1.23a.93.93,0,0,0-1.31,0l-2,2.05a.91.91,0,0,0-.27.65.93.93,0,0,0,.27.65l.79.79L54.73,32V12.41h10a.93.93,0,0,0,.92-.93,6.34,6.34,0,0,0-6.33-6.33H15.85a6.34,6.34,0,0,0-6.33,6.33V57.59H.84a.93.93,0,0,0-.92.93,6.34,6.34,0,0,0,6.33,6.33H48.39a6.34,6.34,0,0,0,6.34-6.33V43.3l10-10,.79.79a.92.92,0,0,0,1.3,0l2-2.05a.92.92,0,0,0,0-1.3l-1.22-1.22,2.13-2.13a.93.93,0,0,0,0-1.31Zm-5,7.22L42.42,48.64l-.88-.87L60.42,28.9ZM40.71,49.58l2.07,2.07L40,52.37Zm23-39H55a4.49,4.49,0,0,1,8.79,0ZM6.25,63a4.49,4.49,0,0,1-4.39-3.56H42.13A6.27,6.27,0,0,0,43.93,63Zm46.63-4.48a4.49,4.49,0,0,1-9,0,.93.93,0,0,0-.92-.93H11.36V11.48A4.49,4.49,0,0,1,15.85,7h39A6.32,6.32,0,0,0,53,11a.91.91,0,0,0-.16.51V33.82L39.59,47.12h0a.27.27,0,0,0-.07.08l0,.06a1.28,1.28,0,0,0-.13.29l-1.51,5.86a.92.92,0,0,0,.24.88.91.91,0,0,0,.65.27.85.85,0,0,0,.23,0L44.81,53a.79.79,0,0,0,.28-.13l.06,0,.08-.06,0,0,7.63-7.63Zm.62-16.6a.89.89,0,0,0-.56.56L44.6,50.82l-.88-.88L62.59,31.07l.88.88Zm12.71-9.84-5.93-5.93.73-.74L67,31.34Zm.17-3.92L64.19,26l1.48-1.48,2.19,2.18Z"/><path class="cls-1" d="M24.66,15.2H39.59a.93.93,0,0,0,0-1.85H24.66a.93.93,0,0,0,0,1.85Z"/><path class="cls-1" d="M16.21,20.4H48.05a.92.92,0,1,0,0-1.84H16.21a.92.92,0,1,0,0,1.84Z"/><path class="cls-1" d="M16.21,25.6H48.05a.92.92,0,1,0,0-1.84H16.21a.92.92,0,0,0,0,1.84Z"/><path class="cls-1" d="M16.21,30.8H48.05a.92.92,0,1,0,0-1.84H16.21a.92.92,0,0,0,0,1.84Z"/><path class="cls-1" d="M16.21,36H48.05a.92.92,0,0,0,0-1.84H16.21a.92.92,0,0,0,0,1.84Z"/><path class="cls-1" d="M34.89,39.36H16.21a.92.92,0,0,0,0,1.84H34.89a.92.92,0,1,0,0-1.84Z"/></svg>