<svg id="圖層_1" data-name="圖層 1" xmlns="http://www.w3.org/2000/svg" viewBox="0 0 70 70"><defs><style>.cls-1{fill:#fff;}</style></defs><title>heg_icon</title><path class="cls-1" d="M68.87,62.05a1,1,0,0,0-1.48,0l-.23.23-4.89-5,3.54-3.46a1.06,1.06,0,0,0,0-1.49,1,1,0,0,0-1.48,0l-1.93,1.89L44.92,36.32a6.2,6.2,0,0,0-.61-.54,23.37,23.37,0,1,0-8.47,8.35,6.93,6.93,0,0,0,.5.58l12.51,13a1,1,0,0,0,.46.28l4.53,4.62-1.92,1.88a1,1,0,0,0,.73,1.8,1.06,1.06,0,0,0,.74-.3l2.67-2.62h0l1.27-1.24,4.89,5-.63.62a1.06,1.06,0,0,0,0,1.49,1,1,0,0,0,.75.31,1,1,0,0,0,.73-.3l5.8-5.68A1,1,0,0,0,68.87,62.05Zm-10-4.41-4.15-4.23,2-2,4.14,4.23Zm-6.37-5h0l-2.79,2.72L46.39,52,48,50.47a1,1,0,1,0-1.41-1.55l-1.71,1.55-1.76-1.8,1.62-1.47a1,1,0,0,0-1.41-1.55l-1.68,1.52-3.84-3.92a3.89,3.89,0,0,1,2.78-6.63h0a3.86,3.86,0,0,1,2.75,1.17L55.2,50l-2.69,2.63ZM35.88,31.69a3.24,3.24,0,0,0-2.57.08l-6.37-6.4a1,1,0,0,0-1.48,0,1.07,1.07,0,0,0,0,1.49l6.37,6.4a3.18,3.18,0,0,0-.13,2.51,13.91,13.91,0,0,1-7.49,2.16A14.06,14.06,0,1,1,38.26,23.86,13.89,13.89,0,0,1,35.88,31.69Zm-1.94,3.77-.1-.12a1.09,1.09,0,0,1,1.59-1.48l.08.08h0l1.73,1.62a6.58,6.58,0,0,0-.83.67c-.15.15-.28.3-.41.45s-.22.28-.32.42ZM24.2,45.13A21.25,21.25,0,1,1,42.45,34.8a5.74,5.74,0,0,0-1.76-.28,6.43,6.43,0,0,0-1.32.14L37.55,33a16,16,0,0,0,2.81-9.1A16.15,16.15,0,1,0,33,37.43l1.82,1.71a6.08,6.08,0,0,0,.09,3.11A21.16,21.16,0,0,1,24.2,45.13Zm27,11.74,2-2,4.15,4.23-2,2Zm7.64,3.76.77-.75,1.17-1.15,4.89,5-1.94,1.89Z"/><path class="cls-1" d="M22.83,15.61H21a1.05,1.05,0,0,0,0,2.1h1.8a1.05,1.05,0,0,0,0-2.1Z"/><path class="cls-1" d="M18.09,18.28a1,1,0,0,0-1.32.66c-.11.34-1.06,3.29-.69,5.13a1,1,0,0,0,1,.84l.21,0a1,1,0,0,0,.82-1.24,10.81,10.81,0,0,1,.62-4A1,1,0,0,0,18.09,18.28Z"/></svg>