<svg id="圖層_1" data-name="圖層 1" xmlns="http://www.w3.org/2000/svg" viewBox="0 0 50 50"><defs><style>.cls-1{fill:#010002;}.cls-2,.cls-3{fill:none;stroke:#010002;stroke-miterlimit:10;}.cls-2{stroke-width:2px;}</style></defs><title>fot-bot-icon</title><path class="cls-1" d="M32.37,42.11a2,2,0,0,1,.18.82A2,2,0,0,1,32.24,44a2,2,0,0,1-.86.77l-1.73.81a9.46,9.46,0,0,1-2,.67,10,10,0,0,1-5.35-.35,12.6,12.6,0,0,1-3.12-1.59,15.85,15.85,0,0,1-2.79-2.5A19.08,19.08,0,0,1,14,38.54q-.66-1-1.38-2.28c-.41-.73-.88-1.6-1.41-2.62s-1.05-2.14-1.59-3.38-1-2.33-1.3-3.25-.57-1.7-.75-2.31a16.77,16.77,0,0,1-.42-1.84A19.69,19.69,0,0,1,6.56,20a18.89,18.89,0,0,1-.2-2.79,16.5,16.5,0,0,1,.36-3.48,12.29,12.29,0,0,1,1.11-3.1,10.2,10.2,0,0,1,1.9-2.57,9.32,9.32,0,0,1,2.72-1.84l1.71-.79A2.14,2.14,0,0,1,15,5.29,1.86,1.86,0,0,1,16,5.61a2,2,0,0,1,.73.87l3.29,7.45a2.14,2.14,0,0,1,.17.81,2.07,2.07,0,0,1-.31,1.11,1.85,1.85,0,0,1-.86.75l-3.38,1.56a2.19,2.19,0,0,0-1,.9,2.4,2.4,0,0,0-.36,1.28,2.49,2.49,0,0,0,.2,1L20,34a2.21,2.21,0,0,0,.9,1.08,2.37,2.37,0,0,0,1.25.34,2.28,2.28,0,0,0,.93-.21l3.38-1.55a2.09,2.09,0,0,1,.8-.17,1.86,1.86,0,0,1,1.06.32,2,2,0,0,1,.75.86Z"/><path class="cls-2" d="M27.63,8.29a9.18,9.18,0,0,1,4.3,1.54,9.3,9.3,0,0,1,2.51,12.9"/><path class="cls-3" d="M35.25,3.54A9.31,9.31,0,0,1,42.06,18"/></svg>