<svg id="圖層_1" data-name="圖層 1" xmlns="http://www.w3.org/2000/svg" viewBox="0 0 87.4 83.3"><title>fot-icon02</title><path d="M87.4,35.5C87.4,15.9,67.8,0,43.7,0S0,15.9,0,35.5C0,53,15.5,67.7,36.5,70.5c1.4.3,3.4.9,3.8,2.2a9,9,0,0,1,.1,4s-.5,3.1-.6,3.7c-.2,1.1-.9,4.3,3.8,2.4S68.8,68,77.9,57.4h0C84.3,50.3,87.4,43.3,87.4,35.5ZM28.3,45.9a.88.88,0,0,1-.8.9H15.2a1.42,1.42,0,0,1-.6-.2h0a1.42,1.42,0,0,1-.2-.6h0V27a.9.9,0,0,1,.9-.9h3.1a.9.9,0,0,1,.9.9V42h8.3a.82.82,0,0,1,.8.9v3Zm7.4,0a.82.82,0,0,1-.9.8H31.7a.88.88,0,0,1-.9-.8v-19a.82.82,0,0,1,.9-.8h3.1a.88.88,0,0,1,.9.8Zm21.1,0a.82.82,0,0,1-.9.8H52.4c-.1-.1-.2-.1-.2-.2L43.5,34.7V46a.82.82,0,0,1-.9.8H39.5a.88.88,0,0,1-.9-.8V27a.82.82,0,0,1,.9-.8h3.2l.1.1h0a.1.1,0,0,0,.1.1L52,38.2V26.9a.82.82,0,0,1,.9-.8H56a.88.88,0,0,1,.9.8v19Zm16.9-16a.88.88,0,0,1-.8.9H64.6V34h8.3a.82.82,0,0,1,.8.9V38a.88.88,0,0,1-.8.9H64.6V42h8.3a.82.82,0,0,1,.8.9V46a.88.88,0,0,1-.8.9H60.6a1.42,1.42,0,0,1-.6-.2h0a1.42,1.42,0,0,1-.2-.6h0v-19h0a1.42,1.42,0,0,1,.2-.6h0a1.42,1.42,0,0,1,.6-.2H72.8a.82.82,0,0,1,.8.9v2.7Z"/></svg>