<svg id="svg7898" xmlns="http://www.w3.org/2000/svg" viewBox="0 0 300 300.01"><defs><style>.cls-1{fill:#00b900;}.cls-2{fill:#fff;}</style></defs><title>fot-h-icon02</title><circle class="cls-1" cx="150" cy="150" r="149"/><g id="g7930"><g id="g7962"><path id="path7964" class="cls-2" d="M235.52,145.67c0-37.86-38-68.67-84.62-68.67s-84.63,30.81-84.63,68.67c0,34,30.11,62.38,70.77,67.75,2.76.6,6.51,1.82,7.46,4.17.85,2.14.56,5.5.27,7.66l-1.2,7.24c-.37,2.14-1.7,8.37,7.33,4.56s48.73-28.69,66.48-49.13h0c12.26-13.45,18.14-27.09,18.14-42.25"/></g><g id="g7966"><path id="path7968" class="cls-1" d="M133.7,127.37h-5.93a1.65,1.65,0,0,0-1.65,1.65v36.87a1.65,1.65,0,0,0,1.65,1.65h5.93a1.65,1.65,0,0,0,1.65-1.65V129a1.65,1.65,0,0,0-1.65-1.65"/></g><g id="g7970"><path id="path7972" class="cls-1" d="M174.56,127.37h-5.94A1.65,1.65,0,0,0,167,129v21.9L150.08,128.1l-.13-.16h0l-.1-.1,0,0-.09-.07s0,0,0,0l-.09-.06-.05,0-.09,0,0,0-.09,0-.06,0-.09,0-.06,0-.1,0h-6.23a1.65,1.65,0,0,0-1.65,1.65v36.87a1.65,1.65,0,0,0,1.65,1.65h5.93a1.65,1.65,0,0,0,1.65-1.65V144l16.92,22.85a1.63,1.63,0,0,0,.42.41h0l.1.06.05,0,.07,0,.09,0,0,0,.12,0h0a1.93,1.93,0,0,0,.42.06h5.94a1.65,1.65,0,0,0,1.65-1.65V129a1.65,1.65,0,0,0-1.65-1.65"/></g><g id="g7974"><path id="path7976" class="cls-1" d="M119.39,158.3H103.27V129a1.65,1.65,0,0,0-1.65-1.65H95.68A1.65,1.65,0,0,0,94,129v36.87h0A1.64,1.64,0,0,0,94.5,167l0,0,0,0a1.67,1.67,0,0,0,1.14.46h23.71a1.65,1.65,0,0,0,1.65-1.65V160a1.65,1.65,0,0,0-1.65-1.65"/></g><g id="g7978"><path id="path7980" class="cls-1" d="M207.34,136.61A1.64,1.64,0,0,0,209,135V129a1.64,1.64,0,0,0-1.64-1.65H183.62a1.64,1.64,0,0,0-1.14.47,0,0,0,0,0,0,0l0,0A1.66,1.66,0,0,0,182,129h0v36.87h0a1.63,1.63,0,0,0,.46,1.14,0,0,0,0,0,0,0s0,0,0,0a1.67,1.67,0,0,0,1.14.46h23.72a1.64,1.64,0,0,0,1.64-1.65V160a1.64,1.64,0,0,0-1.64-1.65H191.21v-6.23h16.13a1.64,1.64,0,0,0,1.64-1.65v-5.93a1.64,1.64,0,0,0-1.64-1.65H191.21v-6.23Z"/></g></g></svg>