<svg id="圖層_1" data-name="圖層 1" xmlns="http://www.w3.org/2000/svg" viewBox="0 0 150 20"><title>inp-con-line</title><path d="M129.44,8.11c-1.11,0-2.22,0-3.32.1-.56,0-1.11.06-1.67,0h-1.71l-3.46,0c-1.13,0-2.26.07-3.4.15-.57,0-1.15.08-1.72.1s-1.17,0-1.76,0c-1.16,0-2.34,0-3.51-.06s-2.32-.3-3.49-.45-2.32-.29-3.49-.36c-.36,0-.71,0-1.07-.05l-.67,0-1.65-.08c-1.12-.08-2.23-.23-3.35-.28a16,16,0,0,0-3.46.1c-.47.08-.93.19-1.39.28s-.89.16-1.33.23c-1.1.14-2.19.24-3.29.33s-2.31.18-3.46.31S80,8.8,78.8,8.92s-2.33.24-3.49.34c-.59.05-1.17.09-1.76.12l-1.85.09c-1.19,0-2.37.1-3.56.12-2.32,0-4.64-.09-7,0-1.23,0-2.46.12-3.68.23L55.65,10,54,10.1c-2.39.17-4.78.26-7.17.39l-3.67.2c-1.12.05-2.24.07-3.36.07s-2.44,0-3.66-.07c-.57,0-1.14-.06-1.71-.1s-1.24-.11-1.86-.13c-1.18,0-2.35,0-3.52,0s-2.31.09-3.46.18-2.42.3-3.63.49c-.58.09-1.15.19-1.72.3a12.29,12.29,0,0,0-1.57.36l-.8.25-.43.16-.28.1a1.12,1.12,0,0,0-.33.16.19.19,0,0,0-.07.19h0a.14.14,0,0,0,.21.1h0l0,0,.72-.19.61-.13,1.1-.25c.77-.17,1.55-.29,2.33-.41h0q1.78-.24,3.6-.36c1.17-.07,2.34-.09,3.51-.13s2.27,0,3.4,0,2.4.19,3.61.31a52.1,52.1,0,0,0,7.06.28c2.36-.09,4.71-.25,7.07-.34l3.76-.15,1.74-.08c.61,0,1.21,0,1.82,0,1.21,0,2.41,0,3.62,0s2.34,0,3.51.07,2.36.09,3.54.13,2.35,0,3.53,0,2.41-.08,3.62-.17L78.6,11c1.14-.11,2.29-.24,3.43-.37s2.36-.23,3.54-.31,2.23-.17,3.34-.3c.63-.07,1.25-.16,1.88-.28s1-.22,1.52-.3a15.34,15.34,0,0,1,1.66,0c.54,0,1.08,0,1.61,0s1.12.09,1.67.15,1.14.1,1.7.13,1.12.06,1.68.08h.4c.43,0,.87,0,1.3,0,1.16.09,2.32.23,3.47.39.55.07,1.1.17,1.65.25s1.23.14,1.85.17c1.18.06,2.38.05,3.56.05s2.29-.1,3.43-.17,2.26-.11,3.38-.17,2.22-.13,3.33-.14h1.62c.58,0,1.17,0,1.75-.07,1.08-.08,2.17-.1,3.25-.12h.75a7.63,7.63,0,0,0,.95-.09,4.54,4.54,0,0,0,.81-.19,4.77,4.77,0,0,0,1-.43.47.47,0,0,0-.08-.78c-.62-.15-1.25-.28-1.88-.38a8.12,8.12,0,0,0-.85-.07Z"/></svg>