<svg id="圖層_1" data-name="圖層 1" xmlns="http://www.w3.org/2000/svg" viewBox="0 0 695 370"><defs><style>.cls-1{opacity:0.95;}.cls-2{fill:#005ead;}.cls-3{opacity:0.1;}.cls-4{opacity:0.8;}.cls-5,.cls-7,.cls-8,.cls-9{fill:#fff;}.cls-6{fill:none;stroke:#fff;stroke-miterlimit:10;stroke-width:8px;opacity:0.35;}.cls-7{opacity:0.6;}.cls-8{opacity:0.78;}.cls-9{opacity:0.89;}</style></defs><title>item-serv-bg</title><g class="cls-1"><rect class="cls-2" width="695" height="370"/></g><g class="cls-3"><g class="cls-4"><polygon class="cls-5" points="180.9 191 43.57 323.7 45.67 325.92 183.01 193.22 180.9 191"/><polygon class="cls-5" points="189.5 200.03 52.16 332.73 54.2 334.88 191.54 202.18 189.5 200.03"/><polygon class="cls-5" points="198.09 209.07 60.75 341.77 62.73 343.84 200.06 211.14 198.09 209.07"/><polygon class="cls-5" points="206.68 218.1 69.35 350.8 71.26 352.81 208.59 220.11 206.68 218.1"/><polygon class="cls-5" points="215.28 227.13 77.94 359.83 79.78 361.77 217.12 229.07 215.28 227.13"/><polygon class="cls-5" points="223.87 236.17 86.53 368.87 88.31 370.74 225.65 238.04 223.87 236.17"/><polygon class="cls-5" points="232.46 245.2 95.13 377.9 96.84 379.7 234.17 247 232.46 245.2"/><polygon class="cls-5" points="241.05 254.24 103.72 386.93 105.36 388.67 242.7 255.97 241.05 254.24"/><polygon class="cls-5" points="249.65 263.27 112.31 395.97 113.89 397.63 251.23 264.93 249.65 263.27"/><polygon class="cls-5" points="258.24 272.3 120.9 405 122.42 406.59 259.75 273.89 258.24 272.3"/><polygon class="cls-5" points="266.83 281.33 129.5 414.04 130.94 415.56 268.28 282.86 266.83 281.33"/><polygon class="cls-5" points="275.42 290.37 138.09 423.07 139.47 424.52 276.81 291.82 275.42 290.37"/><polygon class="cls-5" points="284.02 299.4 146.68 432.1 148 433.49 285.33 300.79 284.02 299.4"/><polygon class="cls-5" points="292.61 308.44 155.28 441.14 156.53 442.45 293.86 309.75 292.61 308.44"/><polygon class="cls-5" points="301.2 317.47 163.87 450.17 165.05 451.42 302.39 318.71 301.2 317.47"/><polygon class="cls-5" points="309.8 326.5 172.46 459.2 173.58 460.38 310.92 327.68 309.8 326.5"/><polygon class="cls-5" points="318.39 335.54 181.05 468.24 182.11 469.34 319.44 336.64 318.39 335.54"/></g><rect class="cls-6" x="-96.41" y="352.92" width="149.19" height="149.19" transform="translate(-308.68 109.79) rotate(-45)"/><polygon class="cls-7" points="76.21 213.79 77.13 228.57 91.55 231.93 77.78 237.36 79.04 252.11 69.61 240.7 55.97 246.45 63.92 233.96 54.23 222.77 68.56 226.47 76.21 213.79"/><polygon class="cls-8" points="50.11 271.46 50.75 281.67 60.71 283.99 51.19 287.75 52.06 297.94 45.55 290.05 36.13 294.02 41.62 285.4 34.93 277.66 44.83 280.22 50.11 271.46"/><polygon class="cls-9" points="28 326.92 28.45 334.19 35.54 335.84 28.77 338.51 29.39 345.77 24.76 340.15 18.05 342.98 21.96 336.84 17.19 331.34 24.24 333.16 28 326.92"/></g></svg>