<?xml version="1.0" encoding="utf-8"?>
<!-- Generator: Adobe Illustrator 23.0.3, SVG Export Plug-In . SVG Version: 6.00 Build 0)  -->
<svg version="1.1" id="圖層_1" xmlns="http://www.w3.org/2000/svg" xmlns:xlink="http://www.w3.org/1999/xlink" x="0px" y="0px"
	 viewBox="0 0 55 55" style="enable-background:new 0 0 55 55;" xml:space="preserve">
<style type="text/css">
	.st0{fill:#00B900;}
	.st1{fill:#FFFFFF;}
</style>
<g>
	<circle class="st0" cx="27.5" cy="27.5" r="27.5"/>
	<g id="TYPE_A_19_">
		<g>
			<path class="st1" d="M45.8,25.8c0-8.2-8.2-14.8-18.3-14.8C17.4,11,9.2,17.7,9.2,25.8c0,7.3,6.5,13.5,15.3,14.6
				c0.6,0.1,1.4,0.4,1.6,0.9c0.2,0.5,0.1,1.2,0.1,1.7c0,0-0.2,1.3-0.3,1.6c-0.1,0.5-0.4,1.8,1.6,1c2-0.8,10.5-6.2,14.4-10.6h0
				C44.5,32.1,45.8,29.1,45.8,25.8"/>
			<g>
				<path class="st0" d="M23.8,21.9h-1.3c-0.2,0-0.4,0.2-0.4,0.4v8c0,0.2,0.2,0.4,0.4,0.4h1.3c0.2,0,0.4-0.2,0.4-0.4v-8
					C24.1,22.1,24,21.9,23.8,21.9"/>
				<path class="st0" d="M32.6,21.9h-1.3c-0.2,0-0.4,0.2-0.4,0.4V27l-3.7-4.9c0,0,0,0,0,0c0,0,0,0,0,0c0,0,0,0,0,0c0,0,0,0,0,0
					c0,0,0,0,0,0c0,0,0,0,0,0c0,0,0,0,0,0c0,0,0,0,0,0c0,0,0,0,0,0c0,0,0,0,0,0c0,0,0,0,0,0c0,0,0,0,0,0c0,0,0,0,0,0c0,0,0,0,0,0
					c0,0,0,0,0,0c0,0,0,0,0,0c0,0,0,0,0,0c0,0,0,0,0,0c0,0,0,0,0,0h-1.3c-0.2,0-0.4,0.2-0.4,0.4v8c0,0.2,0.2,0.4,0.4,0.4H27
					c0.2,0,0.4-0.2,0.4-0.4v-4.7l3.7,4.9c0,0,0.1,0.1,0.1,0.1c0,0,0,0,0,0c0,0,0,0,0,0c0,0,0,0,0,0c0,0,0,0,0,0c0,0,0,0,0,0
					c0,0,0,0,0,0c0,0,0,0,0,0c0,0,0,0,0,0c0,0,0.1,0,0.1,0h1.3c0.2,0,0.4-0.2,0.4-0.4v-8C33,22.1,32.8,21.9,32.6,21.9"/>
				<path class="st0" d="M20.7,28.6h-3.5v-6.3c0-0.2-0.2-0.4-0.4-0.4h-1.3c-0.2,0-0.4,0.2-0.4,0.4v8v0c0,0.1,0,0.2,0.1,0.2
					c0,0,0,0,0,0c0,0,0,0,0,0c0.1,0.1,0.2,0.1,0.2,0.1h0h5.1c0.2,0,0.4-0.2,0.4-0.4v-1.3C21,28.7,20.9,28.6,20.7,28.6"/>
				<path class="st0" d="M39.7,23.9c0.2,0,0.4-0.2,0.4-0.4v-1.3c0-0.2-0.2-0.4-0.4-0.4h-5.1h0c-0.1,0-0.2,0-0.2,0.1c0,0,0,0,0,0
					c0,0,0,0,0,0c-0.1,0.1-0.1,0.2-0.1,0.2v0v8v0c0,0.1,0,0.2,0.1,0.2c0,0,0,0,0,0c0,0,0,0,0,0c0.1,0.1,0.2,0.1,0.2,0.1h0h5.1
					c0.2,0,0.4-0.2,0.4-0.4v-1.3c0-0.2-0.2-0.4-0.4-0.4h-3.5v-1.3h3.5c0.2,0,0.4-0.2,0.4-0.4v-1.3c0-0.2-0.2-0.4-0.4-0.4h-3.5v-1.3
					H39.7z"/>
			</g>
		</g>
	</g>
</g>
</svg>
