<svg id="圖層_1" data-name="圖層 1" xmlns="http://www.w3.org/2000/svg" viewBox="0 0 200 100"><defs><style>.cls-1{font-size:24.13px;font-family:TaipeiSansTCBeta-Bold, Taipei Sans TC Beta;font-weight:700;letter-spacing:0.05em;}.cls-1,.cls-3{fill:#005eac;}.cls-2{fill:#e62327;}</style></defs><title>logo</title><text class="cls-1" transform="matrix(1, 0, 0, 0.91, 33.47, 94.05)"><tspan xml:space="preserve">美  英 留遊學</tspan></text><rect class="cls-2" x="64.09" y="84.77" width="2.41" height="2.36"/><path class="cls-3" d="M168.51,10.92V43.08c0,4-1,7.12-3,9.23s-4.67,3.07-8.41,3.07-6.45-1-8.58-3-3.14-5.19-3.14-9.61V10.92h-9.67V43c0,6.4,1.88,11.61,5.58,15.49s9,5.93,15.67,5.93,11.83-2,15.58-5.81,5.59-9.16,5.59-15.89V10.92Z"/><path class="cls-3" d="M73.79,10.8H45.15v8.9H73.79Z"/><path class="cls-3" d="M124.38,23.89a25.93,25.93,0,0,0-10.12-9.66,30.18,30.18,0,0,0-14.57-3.49H94.36v9.17h5a21,21,0,0,1,10.12,2.33A16.22,16.22,0,0,1,116,28.55a18.28,18.28,0,0,1,2.31,9.16A18,18,0,0,1,116,46.89a16.17,16.17,0,0,1-6.57,6.25,20.91,20.91,0,0,1-10,2.3H94.36v9.18h5.33a30,30,0,0,0,14.2-3.41,26.7,26.7,0,0,0,10.29-9.6,26.27,26.27,0,0,0,3.83-14A26.5,26.5,0,0,0,124.38,23.89Z"/><rect class="cls-3" x="83.17" y="10.74" width="8.97" height="53.88"/><path class="cls-3" d="M73.79,33.25H45.15v8.91H73.79Z"/><path class="cls-3" d="M73.79,55.72a1.5,1.5,0,0,0,0-.22H45.15v.4A11.91,11.91,0,0,1,43.83,61a10.65,10.65,0,0,1-3,3.54l33-.09Z"/><path class="cls-2" d="M42.89,4,19.48,18.19a8.63,8.63,0,0,0,8.06,4.19,9.82,9.82,0,0,0,4.6-1.5L34,19.76V64.41a8.71,8.71,0,0,0,4.62-1.27,8.92,8.92,0,0,0,3.18-3.41A9.89,9.89,0,0,0,42.89,55V4Z"/></svg>