<svg id="圖層_1" data-name="圖層 1" xmlns="http://www.w3.org/2000/svg" viewBox="0 0 512 512"><defs><style>.cls-1{fill:#0e315f;}</style></defs><title>f-icon</title><path class="cls-1" d="M256,202.66A53.34,53.34,0,1,0,309.36,256,53.34,53.34,0,0,0,256,202.66Zm124.71-41a54,54,0,0,0-30.41-30.41c-21-8.29-71-6.43-94.3-6.43s-73.25-1.93-94.31,6.43a54,54,0,0,0-30.41,30.41c-8.28,21-6.43,71.05-6.43,94.33s-1.85,73.27,6.47,94.34a54,54,0,0,0,30.41,30.41c21,8.29,71,6.43,94.31,6.43s73.24,1.93,94.3-6.43a54,54,0,0,0,30.41-30.41c8.35-21,6.43-71.05,6.43-94.33s1.92-73.26-6.43-94.33ZM256,338a81.9,81.9,0,1,1,.2,0Zm85.38-148.3a19.14,19.14,0,1,1,19.13-19.15h0a19.1,19.1,0,0,1-19,19.18h-.07ZM432,32H80A48,48,0,0,0,32,80V432a48,48,0,0,0,48,48H432a48,48,0,0,0,48-48V80A48,48,0,0,0,432,32ZM414.88,322c-1.29,25.63-7.14,48.34-25.85,67s-41.4,24.63-67,25.85c-26.41,1.49-105.59,1.49-132,0-25.63-1.29-48.26-7.15-67-25.85S98.4,347.58,97.18,322c-1.49-26.42-1.49-105.61,0-132,1.29-25.63,7.07-48.34,25.85-67s41.47-24.56,67-25.78c26.41-1.49,105.59-1.49,132,0,25.63,1.29,48.33,7.15,67,25.85s24.63,41.42,25.85,67.05C416.37,216.44,416.37,295.56,414.88,322Z"/></svg>