<svg id="圖層_1" data-name="圖層 1" xmlns="http://www.w3.org/2000/svg" viewBox="0 0 512 512"><defs><style>.cls-1{fill:#0e315f;}</style></defs><title>f-icon</title><path class="cls-1" d="M304.1,204.2v71.1a3.16,3.16,0,0,1-3.2,3.2H289.5a3.31,3.31,0,0,1-2.6-1.3l-32.6-44v42.2a3.16,3.16,0,0,1-3.2,3.2H239.7a3.16,3.16,0,0,1-3.2-3.2V204.3a3.16,3.16,0,0,1,3.2-3.2H251a3,3,0,0,1,2.6,1.4l32.6,44V204.3a3.16,3.16,0,0,1,3.2-3.2h11.4a3.16,3.16,0,0,1,3.3,3.1Zm-82-3.2H210.7a3.16,3.16,0,0,0-3.2,3.2v71.1a3.16,3.16,0,0,0,3.2,3.2h11.4a3.16,3.16,0,0,0,3.2-3.2V204.2a3.22,3.22,0,0,0-3.2-3.2Zm-27.5,59.6H163.5V204.2a3.16,3.16,0,0,0-3.2-3.2H148.9a3.16,3.16,0,0,0-3.2,3.2v71.1a2.94,2.94,0,0,0,.9,2.2,3.37,3.37,0,0,0,2.2.9h45.7a3.16,3.16,0,0,0,3.2-3.2V263.8a3.2,3.2,0,0,0-3.1-3.2ZM364.1,201H318.4a3.22,3.22,0,0,0-3.2,3.2v71.1a3.22,3.22,0,0,0,3.2,3.2h45.7a3.16,3.16,0,0,0,3.2-3.2V263.9a3.16,3.16,0,0,0-3.2-3.2H333v-12h31.1a3.16,3.16,0,0,0,3.2-3.2V234a3.16,3.16,0,0,0-3.2-3.2H333v-12h31.1a3.16,3.16,0,0,0,3.2-3.2V204.2a3.36,3.36,0,0,0-3.2-3.2ZM480,113.7V399c-.1,44.8-36.8,81.1-81.7,81H113c-44.8-.1-81.1-36.9-81-81.7V113c.1-44.8,36.9-81.1,81.7-81H399C443.8,32.1,480.1,68.8,480,113.7ZM418.4,236.3c0-73-73.2-132.4-163.1-132.4S92.2,163.3,92.2,236.3c0,65.4,58,120.2,136.4,130.6,19.1,4.1,16.9,11.1,12.6,36.8-.7,4.1-3.3,16.1,14.1,8.8s93.9-55.3,128.2-94.7C407.1,291.8,418.4,265.5,418.4,236.3Z"/></svg>