<svg id="圖層_1" data-name="圖層 1" xmlns="http://www.w3.org/2000/svg" viewBox="0 0 512 512"><defs><style>.cls-1{fill:#0e315f;}</style></defs><title>f-icon</title><path class="cls-1" d="M218.8,202.1,314,256.2l-95.2,54.1ZM480,80V432a48,48,0,0,1-48,48H80a48,48,0,0,1-48-48V80A48,48,0,0,1,80,32H432A48,48,0,0,1,480,80ZM438,256.3s0-59.6-7.6-88.2a45.64,45.64,0,0,0-32.2-32.4C369.9,128,256,128,256,128s-113.9,0-142.2,7.7a45.64,45.64,0,0,0-32.2,32.4C74,196.6,74,256.3,74,256.3s0,59.6,7.6,88.2a45,45,0,0,0,32.2,31.9C142.1,384,256,384,256,384s113.9,0,142.2-7.7a45,45,0,0,0,32.2-31.9c7.6-28.5,7.6-88.1,7.6-88.1Z"/></svg>