<svg id="圖層_1" data-name="圖層 1" xmlns="http://www.w3.org/2000/svg" viewBox="0 0 24 24"><defs><style>.cls-1{fill:none;stroke:#888;stroke-linecap:round;stroke-linejoin:round;stroke-width:2px;}</style></defs><title>f-icon01</title><path class="cls-1" d="M22,16.92v3a2,2,0,0,1-2,2h-.19a19.79,19.79,0,0,1-8.63-3.07,19.52,19.52,0,0,1-6-6A19.82,19.82,0,0,1,2.12,4.18,2,2,0,0,1,3.93,2H7.11a2,2,0,0,1,2,1.72,13,13,0,0,0,.7,2.81,2,2,0,0,1-.45,2.11L8.09,9.91a16,16,0,0,0,6,6l1.27-1.27a2,2,0,0,1,2.11-.45,13,13,0,0,0,2.81.7A2,2,0,0,1,22,16.92Z"/></svg>