<?xml version="1.0" encoding="utf-8"?>
<!-- Generator: Adobe Illustrator 23.1.0, SVG Export Plug-In . SVG Version: 6.00 Build 0)  -->
<svg version="1.1" id="Layer_1" xmlns="http://www.w3.org/2000/svg" xmlns:xlink="http://www.w3.org/1999/xlink" x="0px" y="0px"
	 viewBox="0 0 492 492" style="enable-background:new 0 0 492 492;" xml:space="preserve">
<style type="text/css">
	.st0{fill:#FFFFFF;}
</style>
<g>
	<g>
		<path class="st0" d="M246.1,101.4c-7.2-0.1-14,2.7-19.1,7.8L7.9,328.4c-5.1,5-7.9,11.8-7.9,19c0,7.2,2.8,13.9,7.9,19L24,382.6
			c5,5.1,11.8,7.9,19,7.9s13.9-2.8,19-7.9l184.1-184.1l183.8,183.9c10.5,10.5,27.6,10.5,38.1,0l16.1-16.3c5.1-5,7.9-11.8,7.9-19
			c0-7.2-2.8-13.9-7.9-19L265.2,109.2C260.1,104.1,253.3,101.4,246.1,101.4z"/>
	</g>
</g>
</svg>
