<?xml version="1.0" encoding="utf-8"?>
<!-- Generator: Adobe Illustrator 16.0.2, SVG Export Plug-In . SVG Version: 6.00 Build 0)  -->
<!DOCTYPE svg PUBLIC "-//W3C//DTD SVG 1.1//EN" "http://www.w3.org/Graphics/SVG/1.1/DTD/svg11.dtd">
<svg version="1.1" id="圖層_1" xmlns="http://www.w3.org/2000/svg" xmlns:xlink="http://www.w3.org/1999/xlink" x="0px" y="0px"
	 width="138.9px" height="138.9px" viewBox="0 0 138.9 138.9" enable-background="new 0 0 138.9 138.9" xml:space="preserve">
<rect x="0.001" y="0.001" fill="#00B900" width="138.897" height="138.897"/>
<path fill="#FFFFFF" d="M117.793,67.211c0-20.767-21.253-37.662-47.381-37.662c-26.122,0-47.378,16.896-47.378,37.662
	c0,18.616,16.855,34.209,39.624,37.156c1.543,0.328,3.644,0.997,4.174,2.289c0.479,1.174,0.313,3.012,0.153,4.195
	c0,0-0.556,3.276-0.676,3.975c-0.207,1.173-0.952,4.589,4.103,2.501c5.059-2.087,27.288-15.735,37.228-26.943h-0.001
	C114.505,83.009,117.793,75.523,117.793,67.211"/>
<path fill="#00B900" d="M60.787,57.176h-3.324c-0.509,0-0.923,0.405-0.923,0.902v20.222c0,0.497,0.414,0.901,0.923,0.901h3.324
	c0.51,0,0.923-0.404,0.923-0.901V58.079C61.71,57.582,61.297,57.176,60.787,57.176"/>
<path fill="#00B900" d="M83.662,57.176H80.34c-0.511,0-0.924,0.405-0.924,0.902v12.014l-9.462-12.515
	c-0.02-0.032-0.046-0.063-0.071-0.091c-0.001-0.002-0.003-0.004-0.005-0.006c-0.02-0.02-0.037-0.039-0.056-0.056
	c-0.006-0.004-0.012-0.011-0.018-0.016c-0.015-0.012-0.032-0.028-0.048-0.039c-0.008-0.008-0.016-0.013-0.024-0.019
	c-0.016-0.011-0.032-0.021-0.049-0.032c-0.008-0.006-0.019-0.01-0.028-0.016c-0.017-0.009-0.032-0.019-0.049-0.027
	c-0.01-0.004-0.019-0.009-0.028-0.014c-0.019-0.007-0.035-0.015-0.054-0.021c-0.011-0.004-0.019-0.008-0.03-0.011
	c-0.017-0.007-0.035-0.012-0.054-0.018c-0.012-0.003-0.021-0.005-0.033-0.008c-0.018-0.004-0.034-0.008-0.053-0.011
	c-0.014-0.002-0.026-0.004-0.038-0.005c-0.017-0.002-0.033-0.004-0.048-0.006c-0.018-0.001-0.032-0.002-0.049-0.003
	c-0.012,0-0.021-0.001-0.031-0.001h-3.326c-0.508,0-0.923,0.405-0.923,0.902v20.222c0,0.497,0.415,0.901,0.923,0.901h3.326
	c0.508,0,0.922-0.404,0.922-0.901v-12.01l9.472,12.531c0.065,0.09,0.146,0.164,0.233,0.222c0.004,0.003,0.008,0.005,0.012,0.008
	c0.019,0.011,0.038,0.024,0.056,0.033c0.01,0.005,0.018,0.009,0.026,0.014c0.015,0.008,0.03,0.017,0.045,0.022
	c0.014,0.006,0.028,0.011,0.045,0.018c0.01,0.002,0.02,0.007,0.026,0.009c0.023,0.009,0.043,0.016,0.063,0.022
	c0.004,0,0.01,0.002,0.014,0.002c0.074,0.02,0.155,0.03,0.237,0.03h3.322c0.511,0,0.923-0.404,0.923-0.901V58.079
	C84.585,57.582,84.173,57.176,83.662,57.176"/>
<path fill="#00B900" d="M52.775,74.139h-9.03v-16.06c0-0.499-0.413-0.903-0.922-0.903h-3.324c-0.509,0-0.923,0.404-0.923,0.903
	v20.219v0.003c0,0.242,0.1,0.463,0.259,0.622c0.003,0.005,0.006,0.012,0.012,0.016c0.004,0.003,0.009,0.007,0.013,0.013
	c0.167,0.156,0.391,0.253,0.638,0.253h0.001h13.276c0.51,0,0.922-0.406,0.922-0.906v-3.255
	C53.697,74.545,53.285,74.139,52.775,74.139"/>
<path fill="#00B900" d="M102.015,62.24c0.511,0,0.921-0.405,0.921-0.904v-3.255c0-0.499-0.41-0.904-0.921-0.904H88.739h-0.002
	c-0.249,0-0.473,0.098-0.64,0.254c-0.004,0.005-0.007,0.007-0.011,0.01c-0.006,0.005-0.012,0.01-0.016,0.016
	c-0.156,0.162-0.256,0.381-0.256,0.623v0.001v20.217v0.003c0,0.242,0.1,0.463,0.258,0.622c0.002,0.006,0.01,0.012,0.014,0.016
	c0.004,0.003,0.009,0.01,0.012,0.012c0.168,0.154,0.39,0.254,0.639,0.254h0.002h13.275c0.511,0,0.921-0.407,0.921-0.906v-3.255
	c0-0.498-0.41-0.904-0.921-0.904h-9.027v-3.418h9.027c0.511,0,0.921-0.404,0.921-0.904v-3.254c0-0.5-0.41-0.905-0.921-0.905h-9.027
	V62.24H102.015z"/>
</svg>
