<svg id="Layer_1" data-name="Layer 1" xmlns="http://www.w3.org/2000/svg" viewBox="0 0 175 50"><defs><style>.cls-1{fill:#040000;}.cls-2{fill:#901d22;}.cls-3{fill:#fff;}.cls-4{fill:#d71718;}</style></defs><title>logo</title><g id="logo_英文版_" data-name="logo 英文版 "><g id="组_421" data-name="组 421"><g id="组_419" data-name="组 419"><g id="组_418" data-name="组 418"><path id="路径_293" data-name="路径 293" class="cls-1" d="M80.68,1.48h9.57V4.12h-6V7.38h5.63V10H84.22v5.73H80.68Z"/><path id="路径_294" data-name="路径 294" class="cls-1" d="M96.46,1.48V9.67c0,2.47,1.05,3.71,2.84,3.71s2.89-1.18,2.89-3.71V1.48h3.54v8c0,4.4-2.45,6.5-6.55,6.5s-6.26-2-6.26-6.54V1.48Z"/><path id="路径_295" data-name="路径 295" class="cls-1" d="M115.64,4.19h-4.23V1.48h12V4.19h-4.28V15.73h-3.54Z"/><path id="路径_296" data-name="路径 296" class="cls-1" d="M127.33,12.08l-1.12,3.66h-3.65l4.77-14.26H132l4.89,14.26H133l-1.21-3.66Zm4-2.41-1-3c-.28-.84-.56-1.9-.79-2.75h0c-.23.85-.47,1.93-.72,2.75l-.93,3Z"/></g></g><g id="组_420" data-name="组 420"><path id="路径_297" data-name="路径 297" class="cls-1" d="M79.85,32l1.63-11.4h.19l4.63,9.36,4.59-9.36h.19L92.72,32H91.6l-1.13-8.15-4,8.15h-.29l-4.08-8.21L81,32Z"/><path id="路径_298" data-name="路径 298" class="cls-1" d="M104,23.53V32h-1.06V30.51a4.55,4.55,0,0,1-1.54,1.25,4.26,4.26,0,0,1-4.91-.88,4.36,4.36,0,0,1-1.27-3.16,4.25,4.25,0,0,1,1.28-3.11,4.15,4.15,0,0,1,3.08-1.29,3.93,3.93,0,0,1,1.87.44,4.27,4.27,0,0,1,1.48,1.32V23.53Zm-4.33.83a3.26,3.26,0,0,0-2.89,1.7A3.48,3.48,0,0,0,98,30.73a3.14,3.14,0,0,0,1.66.45,3.37,3.37,0,0,0,1.69-.45,3.15,3.15,0,0,0,1.22-1.21,3.47,3.47,0,0,0,.43-1.73,3.32,3.32,0,0,0-1-2.44,3.18,3.18,0,0,0-2.37-1Z"/><path id="路径_299" data-name="路径 299" class="cls-1" d="M108.15,20.4h1.09v3.14H111v.93h-1.72V32h-1.09v-7.5h-1.48v-.93h1.48Z"/><path id="路径_300" data-name="路径 300" class="cls-1" d="M120.48,29.17l.91.48a5,5,0,0,1-1,1.42,4,4,0,0,1-1.32.83,4.76,4.76,0,0,1-1.67.28,4,4,0,0,1-3.23-1.35,4.64,4.64,0,0,1-.18-5.92,4,4,0,0,1,3.35-1.59A4.13,4.13,0,0,1,120.74,25a4.56,4.56,0,0,1,.93,2.88h-7.59a3.46,3.46,0,0,0,.94,2.41,3,3,0,0,0,2.25.94,3.58,3.58,0,0,0,1.25-.22,3.32,3.32,0,0,0,1-.6A5.1,5.1,0,0,0,120.48,29.17Zm0-2.27a3.66,3.66,0,0,0-.63-1.39,3.11,3.11,0,0,0-1.1-.84,3.4,3.4,0,0,0-1.44-.32,3.1,3.1,0,0,0-2.13.8,3.61,3.61,0,0,0-1,1.75Z"/><path id="路径_301" data-name="路径 301" class="cls-1" d="M124.08,23.53h1.1v1.24a3.89,3.89,0,0,1,1-1.09,1.91,1.91,0,0,1,2.11-.08l-.57.92a1.42,1.42,0,0,0-.57-.15,1.55,1.55,0,0,0-1,.45,2.79,2.79,0,0,0-.77,1.38,13.52,13.52,0,0,0-.19,2.91V32h-1.11Z"/><path id="路径_302" data-name="路径 302" class="cls-1" d="M130.43,20.06a.83.83,0,0,1,.63.27.82.82,0,0,1,.26.63.89.89,0,0,1-.89.89.89.89,0,0,1-.89-.89.9.9,0,0,1,.26-.64A.88.88,0,0,1,130.43,20.06Zm-.54,3.47H131V32h-1.08Z"/><path id="路径_303" data-name="路径 303" class="cls-1" d="M142.42,23.53V32h-1.07V30.51a4.42,4.42,0,0,1-1.53,1.25,4.27,4.27,0,0,1-4.91-.88,4.38,4.38,0,0,1-1.27-3.16,4.29,4.29,0,0,1,1.28-3.11A4.16,4.16,0,0,1,138,23.32a4,4,0,0,1,1.88.44,4.24,4.24,0,0,1,1.47,1.32V23.53Zm-4.33.83a3.26,3.26,0,0,0-2.89,1.7,3.39,3.39,0,0,0,0,3.4,3.31,3.31,0,0,0,1.22,1.27,3.23,3.23,0,0,0,1.66.45,3.31,3.31,0,0,0,1.68-.45A3.11,3.11,0,0,0,141,29.52a3.5,3.5,0,0,0,.43-1.73,3.36,3.36,0,0,0-1-2.44A3.22,3.22,0,0,0,138.09,24.36Z"/><path id="路径_304" data-name="路径 304" class="cls-1" d="M145.49,20.28h1.09V32h-1.09Z"/><path id="路径_305" data-name="路径 305" class="cls-1" d="M79.25,35.79V34.67h6.24v1.12H83V46.07H81.79V35.79Z"/><path id="路径_306" data-name="路径 306" class="cls-1" d="M94.07,43.27l.92.48a5,5,0,0,1-1,1.43,4.35,4.35,0,0,1-1.33.82,4.5,4.5,0,0,1-1.66.29,4.06,4.06,0,0,1-3.23-1.35,4.6,4.6,0,0,1-1.17-3.06,4.5,4.5,0,0,1,1-2.86,4,4,0,0,1,3.34-1.6,4.19,4.19,0,0,1,3.45,1.64,4.6,4.6,0,0,1,.93,2.88H87.68a3.42,3.42,0,0,0,.94,2.41,3,3,0,0,0,2.24.94,3.55,3.55,0,0,0,1.25-.23,3.26,3.26,0,0,0,1-.59A4.68,4.68,0,0,0,94.07,43.27Zm0-2.27a3.54,3.54,0,0,0-.63-1.38,2.92,2.92,0,0,0-1.1-.84,3.39,3.39,0,0,0-1.43-.32,3.08,3.08,0,0,0-2.14.8,3.56,3.56,0,0,0-1,1.74Z"/><path id="路径_307" data-name="路径 307" class="cls-1" d="M106.27,39.39l-.86.54a3.63,3.63,0,0,0-3-1.49,3.51,3.51,0,0,0-2.55,1,3.17,3.17,0,0,0-1,2.4,3.44,3.44,0,0,0,.47,1.74,3.23,3.23,0,0,0,1.28,1.26,3.76,3.76,0,0,0,1.83.45,3.71,3.71,0,0,0,3-1.48l.87.56a4,4,0,0,1-1.63,1.41,5.17,5.17,0,0,1-2.32.51A4.57,4.57,0,0,1,99,45a4.13,4.13,0,0,1-1.31-3.09A4.41,4.41,0,0,1,100,38a4.94,4.94,0,0,1,2.41-.59,5.22,5.22,0,0,1,1.61.26,4.33,4.33,0,0,1,1.32.67A3.55,3.55,0,0,1,106.27,39.39Z"/><path id="路径_308" data-name="路径 308" class="cls-1" d="M109.14,34.39h1.09v4.76a4.6,4.6,0,0,1,1.44-1.3,3.68,3.68,0,0,1,1.72-.43,3,3,0,0,1,1.68.48,2.9,2.9,0,0,1,1.08,1.29,7.07,7.07,0,0,1,.35,2.54v4.34h-1.09v-4a10.64,10.64,0,0,0-.12-1.95,2.2,2.2,0,0,0-.73-1.26,2.22,2.22,0,0,0-1.39-.42,2.7,2.7,0,0,0-1.76.65,3,3,0,0,0-1,1.61,11.08,11.08,0,0,0-.15,2.3v3.09h-1.09Z"/><path id="路径_309" data-name="路径 309" class="cls-1" d="M119.61,37.64h1.09v1.51a4.6,4.6,0,0,1,1.44-1.3,3.68,3.68,0,0,1,1.72-.43,3,3,0,0,1,1.67.48,2.93,2.93,0,0,1,1.09,1.3,6.77,6.77,0,0,1,.34,2.53v4.34h-1.08v-4a10.64,10.64,0,0,0-.12-1.95,2.18,2.18,0,0,0-.72-1.26,2.27,2.27,0,0,0-1.4-.42,2.71,2.71,0,0,0-1.76.65,3,3,0,0,0-1,1.61,11.08,11.08,0,0,0-.15,2.3v3.09h-1.09Z"/><path id="路径_310" data-name="路径 310" class="cls-1" d="M134.08,37.42a4.13,4.13,0,0,1,3.22,1.41,4.52,4.52,0,0,1-.06,6.13,4.45,4.45,0,0,1-6.3,0l0,0a4.5,4.5,0,0,1-.07-6.12A4.16,4.16,0,0,1,134.08,37.42Zm0,1.06a3.1,3.1,0,0,0-2.32,1,3.36,3.36,0,0,0-1,2.42,3.41,3.41,0,0,0,.45,1.7,3.13,3.13,0,0,0,1.2,1.22,3.37,3.37,0,0,0,3.31,0,3.2,3.2,0,0,0,1.2-1.22,3.5,3.5,0,0,0,.44-1.7,3.32,3.32,0,0,0-1-2.42,3.14,3.14,0,0,0-2.32-1Z"/><path id="路径_311" data-name="路径 311" class="cls-1" d="M141.1,34.39h1.09V46.07H141.1Z"/><path id="路径_312" data-name="路径 312" class="cls-1" d="M149.23,37.42a4.2,4.2,0,0,1,3.23,1.41,4.52,4.52,0,0,1-.07,6.13,4.47,4.47,0,0,1-6.31,0l0,0a4.5,4.5,0,0,1-.07-6.12A4.18,4.18,0,0,1,149.23,37.42Zm0,1.06a3.12,3.12,0,0,0-2.33,1,3.35,3.35,0,0,0-1,2.42,3.5,3.5,0,0,0,.44,1.7,3.2,3.2,0,0,0,1.2,1.22,3.38,3.38,0,0,0,3.32,0,3.17,3.17,0,0,0,1.19-1.22,3.5,3.5,0,0,0-.53-4.12,3.2,3.2,0,0,0-2.33-1Z"/><path id="路径_313" data-name="路径 313" class="cls-1" d="M163.69,37.64h1.09v6.72a8.07,8.07,0,0,1-.31,2.59A3.35,3.35,0,0,1,163,48.74a4.82,4.82,0,0,1-2.54.63,5.65,5.65,0,0,1-1.95-.31,3.81,3.81,0,0,1-1.4-.82,4.74,4.74,0,0,1-1-1.51h1.17A3.21,3.21,0,0,0,158.51,48a4.12,4.12,0,0,0,1.89.4,3.9,3.9,0,0,0,1.87-.41,2.54,2.54,0,0,0,1.09-1,4.65,4.65,0,0,0,.33-2v-.44a4,4,0,0,1-1.5,1.19,4.41,4.41,0,0,1-4.06-.16,4.15,4.15,0,0,1-1.59-1.55,4.28,4.28,0,0,1-.55-2.15,4.39,4.39,0,0,1,4.36-4.37,4.11,4.11,0,0,1,1.76.39,5.07,5.07,0,0,1,1.58,1.29Zm-3.2.83a3.51,3.51,0,0,0-1.71.44,3.21,3.21,0,0,0-1.24,1.24,3.35,3.35,0,0,0-.45,1.7,3,3,0,0,0,.93,2.29,3.66,3.66,0,0,0,4.82,0,3.18,3.18,0,0,0,.9-2.36,3.4,3.4,0,0,0-.41-1.71,3.14,3.14,0,0,0-1.19-1.18A3.38,3.38,0,0,0,160.49,38.47Z"/><path id="路径_314" data-name="路径 314" class="cls-1" d="M167,37.64h1.14l2.9,6.49,2.82-6.49H175l-5,11.51h-1.14l1.62-3.71Z"/></g></g><g id="组_422" data-name="组 422"><g id="路径_315" data-name="路径 315"><path class="cls-2" d="M66,12.57,18.6,33.68,4.27,40.06l8.18,8.84L69.56,23.47Z"/><path class="cls-3" d="M12.36,49.34l-8.71-9.4L66.24,12.07,70,23.67ZM4.88,40.19l7.66,8.26L69.11,23.27l-3.32-10.2Z"/></g><g id="路径_316" data-name="路径 316"><path class="cls-2" d="M39.24,23.47l-3.55-10.9L31.87.79,20.28.39l3.95,12.18,1.28,3.94,2.27,7,2.41,7.44,6,18.46,9-7.56Z"/><path class="cls-3" d="M36,50,19.76,0,32.14.43l13.48,41.5ZM20.79.77l15.58,48,8.4-7.05L31.6,1.15Z"/></g><g id="路径_317" data-name="路径 317"><path class="cls-4" d="M30.19,30.91,5,12.57.54,23.47l35.65,25.9,9-7.56Z"/><path class="cls-3" d="M36.21,49.84.1,23.6,4.78,12l41,29.79ZM1,23.34,36.17,48.9l8.43-7.07L5.11,13.14Z"/></g><g id="路径_318" data-name="路径 318"><path class="cls-4" d="M20.28.39,15.35,12.57,11,23.47,4.24,40.06l8.19,8.83,6.15-15.21L22.7,23.47l2.81-7,1.6-3.94L31.87.79Z"/><path class="cls-3" d="M12.56,49.57,3.81,40.14,20,0,32.4.44ZM4.67,40l7.64,8.24,19-47.08L20.52.76Z"/></g><g id="路径_319" data-name="路径 319"><path class="cls-4" d="M66,12.57H5L.54,23.47h69Z"/><path class="cls-3" d="M70.06,23.84H0L4.7,12.2H66.28Zm-69-.73h68l-3.3-10.17H5.2Z"/></g></g></g></svg>