<svg xmlns="http://www.w3.org/2000/svg" viewBox="0 0 175 50"><defs><style>.cls-1{fill:#040000;}.cls-2{fill:#0d4089;}.cls-3{fill:#1c5c9f;}.cls-4{fill:#2479b6;}.cls-5{fill:#6f88be;}.cls-6{fill:#82c5e8;}.cls-7{stroke:#000;stroke-miterlimit:10;stroke-width:0.5px;}</style></defs><title>logo-2</title><g id="Layer_1" data-name="Layer 1"><g id="组_419" data-name="组 419"><g id="组_418" data-name="组 418"><path id="路径_293" data-name="路径 293" class="cls-1" d="M56.23,12.71H66v2.68h-6.1v3.32h5.73v2.66H59.83V27.2h-3.6Z"/><path id="路径_294" data-name="路径 294" class="cls-1" d="M72.28,12.71V21c0,2.51,1.07,3.77,2.89,3.77s2.94-1.2,2.94-3.77V12.71h3.6v8.13c0,4.48-2.5,6.61-6.67,6.61s-6.36-2-6.36-6.65V12.71Z"/><path id="路径_295" data-name="路径 295" class="cls-1" d="M91.78,15.46h-4.3V12.71h12.2v2.75H95.33V27.2h-3.6Z"/><path id="路径_296" data-name="路径 296" class="cls-1" d="M103.67,23.49l-1.14,3.72H98.82l4.85-14.5h4.75l5,14.5h-4l-1.23-3.72ZM107.74,21l-1-3.05c-.28-.86-.57-1.94-.8-2.8h0c-.24.86-.48,2-.73,2.8l-1,3.05Z"/></g></g></g><g id="圖層_3" data-name="圖層 3"><rect class="cls-2" x="0.13" width="20.8" height="35.08"/><rect class="cls-3" x="0.13" y="35.08" width="20.8" height="14.92"/><rect class="cls-4" x="20.93" width="15.11" height="18.46"/><rect class="cls-5" x="20.93" y="18.46" width="15.11" height="16.62"/><rect class="cls-6" x="36.04" width="7.5" height="18.46"/></g><g id="圖層_4" data-name="圖層 4"><polygon points="56.23 33.51 56.23 34.76 60.36 34.76 60.36 44 62.18 44 62.18 34.68 66.21 34.68 66.21 33.51 56.23 33.51"/><path class="cls-7" d="M65.77,40.11c0-2.41,2.14-3.91,4.42-3.91,2.43,0,3.89,1.28,3.89,3.45a2.74,2.74,0,0,1-.06.59H66.89c0,1.81,1.51,3.08,3.68,3.08a5.6,5.6,0,0,0,2.67-.64l.42.6a7.15,7.15,0,0,1-3.21.72C67.87,44,65.77,42.55,65.77,40.11Zm7.31-.51c0-1.8-1.12-2.7-2.87-2.7a3.16,3.16,0,0,0-3.32,2.7Z"/><path class="cls-7" d="M95.81,39.94c0-2.41,2.13-3.91,4.42-3.91s3.88,1.28,3.88,3.45a3.61,3.61,0,0,1,0,.59H96.93c0,1.81,1.5,3.08,3.67,3.08a5.61,5.61,0,0,0,2.68-.64l.42.6a7.19,7.19,0,0,1-3.21.72C97.91,43.83,95.81,42.38,95.81,39.94Zm7.3-.51a2.53,2.53,0,0,0-2.86-2.71,3.16,3.16,0,0,0-3.32,2.71Z"/><path class="cls-7" d="M78.78,39.93,76,36.46h1.1l1.4,1.79c.31.41.63.81,1,1.2h.06c.31-.39.6-.79.91-1.2l1.35-1.79h1L80,40l3.08,3.73H81.94l-1.56-1.93a11.58,11.58,0,0,0-1-1.32h-.09c-.34.42-.66.87-1,1.32l-1.47,1.93H75.69Z"/><path class="cls-7" d="M87,34.18c0-.42.38-.67.85-.67s.86.25.86.67-.41.64-.86.64S87,34.56,87,34.18Zm.33,2.39h1V44h-1Zm5-3.06h.82V44h-.82Z"/></g></svg>