<?xml version="1.0" standalone="no"?>
<!DOCTYPE svg PUBLIC "-//W3C//DTD SVG 20010904//EN"
 "http://www.w3.org/TR/2001/REC-SVG-20010904/DTD/svg10.dtd">
<svg version="1.0" xmlns="http://www.w3.org/2000/svg"
 width="511.000000pt" height="511.000000pt" viewBox="0 0 511.000000 511.000000"
 preserveAspectRatio="xMidYMid meet">
<metadata>
Created by potrace 1.11, written by Peter Selinger 2001-2013
</metadata>
<g transform="translate(0.000000,511.000000) scale(0.100000,-0.100000)"
fill="#000000" stroke="none">
<path d="M1010 4941 c-1 -14 -2 -199 -3 -410 l-2 -384 -40 -14 c-249 -86 -430
-322 -460 -600 -6 -53 -5 -53 22 -53 16 -1 89 -1 163 -2 l134 -1 18 73 c23 92
54 145 118 203 160 144 416 112 533 -66 31 -47 53 -99 62 -145 2 -9 4 -540 4
-1179 l1 -1163 165 0 165 0 0 1178 c-1 1302 2 1242 -65 1389 -40 87 -105 173
-182 242 -61 55 -189 123 -265 142 l-48 11 0 403 0 402 -160 0 -160 0 0 -26z"/>
<path d="M2669 4961 c-1 -3 -2 -186 -3 -405 l-1 -399 -52 -18 c-221 -75 -389
-254 -455 -484 l-22 -80 -1 -915 0 -915 23 -75 c13 -41 35 -97 49 -125 30 -59
102 -161 135 -190 155 -138 302 -198 488 -198 267 0 495 145 621 394 74 146
73 130 72 1082 0 467 -3 880 -7 918 -11 133 -87 301 -178 399 -81 87 -231 180
-315 196 -32 6 -33 8 -33 53 0 25 -1 208 -3 406 l-2 360 -157 1 c-87 1 -159
-2 -159 -5z m265 -1132 c83 -22 176 -100 219 -184 39 -77 40 -92 38 -980 -1
-742 -4 -867 -17 -914 -29 -101 -97 -181 -193 -229 -49 -24 -68 -27 -151 -27
-82 0 -103 4 -152 27 -105 49 -189 161 -206 274 -4 27 -7 434 -7 904 l0 855
31 66 c40 83 88 137 156 174 90 50 181 60 282 34z"/>
<path d="M2548 3037 c-1 -7 -2 -95 -2 -197 l-1 -186 38 2 c24 1 36 -3 34 -10
-2 -6 -18 -10 -36 -9 -28 1 -31 -1 -25 -19 4 -15 3 -18 -6 -13 -9 6 -9 2 0
-16 18 -34 24 -38 15 -9 -7 24 -7 24 12 8 11 -10 26 -18 34 -18 8 0 3 6 -11
13 -27 13 -33 38 -12 45 7 2 10 -2 6 -11 -3 -8 1 -18 8 -23 7 -4 10 -4 6 1 -4
4 -3 16 3 27 9 16 13 17 27 6 13 -11 14 -11 8 1 -6 9 -5 12 4 9 15 -5 21 -46
8 -54 -4 -3 -8 -11 -8 -17 0 -7 7 -4 15 6 7 11 11 25 8 33 -3 8 -1 14 5 14 6
0 13 -6 15 -12 8 -19 0 48 -8 73 -5 14 -3 19 3 15 6 -3 14 -1 18 5 5 8 3 9 -7
4 -12 -8 -12 -6 0 8 12 15 11 20 -5 40 -19 22 -19 22 2 4 11 -9 23 -15 26 -12
2 3 5 -2 5 -10 0 -8 -5 -15 -10 -15 -6 0 -7 -3 -4 -6 3 -4 2 -14 -3 -23 -5
-10 -5 -23 0 -30 10 -16 31 -5 24 12 -2 7 4 13 14 14 29 2 22 -25 -10 -38 -15
-6 -28 -16 -28 -21 0 -6 6 -5 14 1 23 20 40 -20 20 -47 -9 -13 -11 -22 -5 -22
6 0 11 5 11 11 0 5 4 7 10 4 6 -4 7 1 3 11 -9 24 14 9 28 -18 10 -18 9 -20 -7
-14 -17 6 -34 -8 -34 -29 0 -5 5 -3 10 5 5 8 17 15 27 15 12 0 17 6 15 19 -3
17 -2 18 12 7 20 -17 21 -5 1 15 -26 27 -16 38 12 13 14 -13 23 -18 19 -11 -4
6 -2 12 3 12 6 0 11 5 11 11 0 8 -6 7 -17 -2 -15 -12 -16 -12 -10 4 4 10 7 21
7 23 0 3 5 2 12 -2 7 -5 8 -3 3 6 -6 10 -4 12 9 7 10 -4 22 -7 27 -7 6 0 7 -5
4 -10 -4 -6 -11 -8 -16 -5 -5 4 -9 1 -9 -4 0 -6 10 -10 23 -8 19 2 22 -2 20
-28 -2 -26 -1 -28 9 -11 8 14 7 25 -6 46 -20 35 -20 41 -1 34 8 -4 13 -9 11
-13 -2 -3 2 -15 10 -26 8 -10 14 -15 14 -9 0 5 6 2 13 -6 16 -20 53 -48 44
-34 -4 7 0 14 8 18 18 6 37 -25 26 -43 -5 -7 -12 -12 -17 -11 -5 0 -10 -6 -12
-14 -2 -9 1 -16 7 -16 6 0 7 7 4 17 -4 10 -2 14 5 9 21 -13 31 27 14 56 -9 16
-20 28 -25 28 -4 0 -6 -4 -3 -9 3 -5 -1 -12 -10 -15 -12 -5 -15 -2 -10 9 3 9
2 13 -4 10 -13 -8 -53 20 -56 39 -1 7 -5 22 -8 33 -4 13 -2 20 8 20 8 0 15 -7
15 -16 2 -38 5 -50 13 -45 4 3 8 1 8 -5 0 -5 12 -9 28 -8 27 2 87 -45 74 -58
-4 -3 2 -3 13 1 18 7 18 6 6 -9 -9 -11 -10 -17 -2 -17 11 0 12 4 15 39 0 11 4
23 9 27 4 4 7 12 7 18 0 5 -6 1 -14 -9 -8 -11 -12 -23 -10 -27 7 -11 -8 -10
-26 2 -8 5 -15 23 -16 40 -1 25 1 28 12 19 9 -7 12 -20 8 -32 -4 -13 -2 -17 5
-13 6 4 11 14 11 22 0 8 4 14 9 14 5 0 8 8 6 18 -1 9 0 21 3 26 12 21 8 54 -6
48 -11 -4 -10 2 3 22 17 25 17 26 -1 19 -16 -5 -17 -4 -8 8 7 8 12 27 12 42 0
27 -17 40 -63 51 -10 3 -22 8 -99 40 -29 12 -42 13 -52 5 -17 -14 -48 7 -37
25 3 6 3 8 -2 4 -4 -4 -13 -4 -19 1 -20 15 -78 31 -90 24 -18 -12 -45 -13 -51
-4 -3 5 0 13 6 17 7 4 9 3 5 -4 -4 -7 1 -10 14 -9 23 1 28 17 5 17 -8 0 -17
-1 -18 -2 -2 -2 -11 3 -21 11 -9 8 -19 11 -22 8 -3 -3 -17 1 -31 8 -14 7 -32
11 -39 8 -8 -3 -14 -1 -14 5 0 15 -30 23 -32 9z m18 -48 c2 -35 -5 -33 -12 5
-2 14 -1 26 3 26 5 0 9 -14 9 -31z m41 4 c-4 -3 0 -11 8 -17 11 -8 12 -15 4
-26 -9 -13 -10 -12 -5 2 3 11 -2 19 -16 24 -16 5 -18 8 -7 15 17 10 25 12 16
2z m70 -15 c-3 -8 -6 -5 -6 6 -1 11 2 17 5 13 3 -3 4 -12 1 -19z m3 -22 c0 4
3 4 7 1 3 -4 -4 -16 -17 -27 -30 -26 -38 -26 -15 0 19 21 7 28 -13 8 -9 -9
-12 -9 -12 0 0 7 5 12 11 12 5 0 7 5 3 11 -4 8 0 8 15 0 11 -7 21 -9 21 -5z
m84 3 c-4 -8 0 -9 15 -4 11 3 21 2 21 -3 0 -7 -33 -10 -48 -3 -5 2 8 21 14 21
3 0 2 -5 -2 -11z m-164 -9 c0 -5 -4 -10 -10 -10 -5 0 -10 5 -10 10 0 6 5 10
10 10 6 0 10 -4 10 -10z m10 -50 c14 0 13 18 -2 23 -7 2 -6 3 2 3 9 -1 14 -10
12 -25 -2 -23 -1 -23 22 -8 22 15 25 15 30 0 6 -14 9 -14 29 4 12 11 29 18 37
15 13 -5 13 -3 1 11 -14 17 -29 12 -54 -18 -5 -6 -7 -4 -5 4 2 8 14 21 25 28
20 13 24 12 44 -11 24 -27 51 -37 29 -11 -9 10 -9 15 -1 15 6 0 11 -4 11 -9 0
-5 11 -8 25 -5 14 2 36 -2 47 -11 20 -13 24 -13 42 3 12 10 16 12 11 3 -6 -11
-4 -13 7 -8 9 3 19 3 23 -1 4 -4 12 -7 18 -7 7 0 12 -7 12 -15 0 -8 9 -16 20
-18 16 -3 17 -1 5 7 -9 7 -10 11 -3 11 6 0 15 -5 18 -10 4 -6 14 -9 23 -8 12
2 16 -3 14 -16 -3 -17 -2 -18 12 -7 9 8 18 12 21 10 10 -10 13 -59 4 -65 -6
-4 -6 -10 0 -18 11 -13 5 -26 -12 -26 -5 0 -6 8 -3 18 5 14 4 14 -9 -2 -11
-14 -15 -16 -15 -5 0 12 -2 12 -9 -1 -6 -8 -7 -19 -3 -25 3 -5 -2 -4 -11 4
-12 9 -17 10 -17 2 0 -7 -4 -10 -9 -6 -14 8 -34 -33 -24 -48 4 -6 9 -20 10
-31 3 -15 1 -17 -11 -7 -8 7 -12 20 -9 28 5 12 3 14 -7 8 -8 -5 -11 -4 -7 3 4
5 4 18 1 27 -5 12 -9 13 -14 5 -5 -8 -9 -7 -13 5 -5 10 -3 14 5 9 7 -5 8 -3 3
6 -5 9 -4 11 3 6 8 -5 10 -1 6 11 -4 14 -3 15 4 4 7 -9 12 -10 16 -2 4 6 2 11
-4 11 -7 0 -9 9 -5 23 5 20 5 20 -9 -3 -9 -14 -15 -19 -16 -11 0 8 -3 11 -7 8
-3 -4 -16 1 -27 10 -20 17 -20 17 -6 -1 8 -11 10 -17 4 -13 -7 4 -18 -1 -25
-10 -12 -14 -12 -16 0 -8 9 5 12 4 7 -3 -3 -5 -3 -12 1 -15 5 -2 2 -2 -6 0 -7
2 -21 -2 -29 -9 -13 -11 -14 -11 -7 2 8 13 7 13 -10 0 -17 -13 -18 -13 -10 0
8 13 7 13 -10 0 -17 -13 -18 -13 -10 0 5 8 10 21 11 28 2 11 -1 11 -14 0 -16
-12 -16 -11 -2 7 14 19 14 19 -4 5 -15 -11 -18 -12 -12 -1 7 11 5 11 -9 3 -11
-6 -20 -23 -21 -43 -2 -25 0 -30 7 -19 8 11 12 12 16 3 2 -7 9 -13 14 -13 6 0
7 6 3 13 -4 6 -3 8 1 4 5 -4 10 -14 11 -22 2 -11 -2 -12 -16 -5 -9 5 -27 7
-39 5 -17 -3 -19 -1 -13 13 10 20 10 43 1 40 -4 -2 -16 6 -28 16 -25 23 -41
13 -18 -11 12 -14 13 -22 4 -38 -14 -25 -16 -65 -3 -65 11 0 6 -7 -9 -12 -9
-3 -14 23 -16 81 -1 16 -4 20 -9 11 -5 -8 -9 -9 -14 -1 -4 6 -3 11 2 11 5 0 9
7 9 16 0 14 -2 14 -15 -2 -14 -18 -14 -18 -8 1 4 11 4 16 0 12 -4 -4 -14 -1
-22 6 -13 10 -14 9 -7 -2 6 -10 4 -12 -6 -6 -8 5 -11 5 -7 0 4 -4 2 -15 -5
-23 -6 -9 -7 -13 -1 -9 6 3 11 0 11 -8 0 -8 -5 -11 -10 -8 -6 3 -7 1 -3 -5 5
-8 1 -10 -10 -5 -13 5 -14 8 -5 11 11 4 11 6 0 13 -12 7 -12 9 0 9 10 0 11 3
2 14 -8 10 -9 16 -1 21 6 3 7 12 3 18 -11 18 -12 38 -2 31 5 -3 9 2 9 11 0 9
-4 14 -8 11 -4 -2 -8 4 -9 14 -2 18 -1 18 16 2 12 -12 15 -22 9 -34 -5 -10 -4
-19 2 -23 9 -6 14 8 11 28 0 4 3 7 8 7 5 0 -4 13 -19 30 -16 17 -27 40 -26 54
l1 24 22 -24 c12 -13 27 -24 33 -24z m215 40 c3 -5 1 -10 -4 -10 -6 0 -11 5
-11 10 0 6 2 10 4 10 3 0 8 -4 11 -10z m103 -184 c3 -3 0 -11 -5 -18 -5 -7 -9
-29 -7 -48 2 -33 2 -34 -11 -10 -7 14 -17 23 -21 22 -4 -2 -11 2 -15 10 -7 10
-9 10 -9 0 0 -7 -4 -10 -10 -7 -6 4 -7 -1 -3 -11 4 -12 3 -15 -5 -10 -6 4 -19
-2 -29 -13 -9 -11 -21 -17 -26 -14 -6 4 -7 1 -1 -8 5 -8 9 -27 10 -44 l2 -30
-24 30 c-30 38 -31 54 -2 29 13 -10 18 -12 12 -4 -17 22 -13 51 5 48 11 -2 16
4 15 18 -1 14 6 21 20 22 21 1 69 8 74 11 1 0 -2 10 -8 20 -9 17 -7 19 11 16
12 -3 24 -7 27 -9z m-279 -65 c11 -20 10 -26 -4 -40 -10 -9 -15 -10 -11 -3 4
6 2 13 -3 13 -21 3 -26 4 -38 12 -8 5 -13 3 -14 -5 0 -10 -2 -10 -6 0 -2 6 -8
10 -12 8 -4 -3 -8 2 -8 10 0 8 6 13 13 10 7 -3 18 2 24 10 7 8 9 14 4 14 -5 0
-2 5 6 10 11 7 11 10 2 10 -7 0 -10 5 -7 10 7 11 32 -16 54 -59z m121 58 c0
-6 7 -8 16 -5 14 5 15 4 5 -8 -7 -8 -18 -13 -25 -10 -14 5 -18 34 -4 34 4 0 8
-5 8 -11z m323 -28 c5 -5 4 -12 -4 -16 -8 -6 -10 -4 -4 6 7 11 5 11 -10 -1
-17 -14 -18 -13 -12 3 4 11 3 16 -4 12 -5 -4 -7 -16 -4 -28 5 -17 4 -19 -4 -7
-5 8 -13 11 -18 7 -4 -5 -1 -12 6 -16 8 -5 10 -14 6 -21 -5 -8 -12 -2 -21 20
-18 41 -18 41 4 38 9 -2 16 2 15 9 -3 13 35 9 50 -6z m-78 -61 c-3 -4 4 -11
15 -15 11 -3 20 -11 20 -18 0 -8 -3 -8 -11 0 -6 6 -18 9 -27 6 -10 -4 -13 -2
-8 5 4 7 2 12 -5 12 -8 0 -7 5 2 17 8 10 9 14 2 10 -15 -10 -25 7 -16 28 5 15
8 14 20 -9 8 -15 11 -31 8 -36z m-120 22 c8 -22 -11 -38 -28 -23 -12 9 -16 8
-20 -4 -4 -9 -13 -12 -24 -9 -15 5 -15 4 -3 -5 8 -5 11 -13 7 -18 -5 -4 -12
-1 -17 7 -9 14 13 50 29 48 18 -2 32 3 27 10 -3 5 1 9 9 9 8 0 17 -7 20 -15z
m207 5 c-10 -12 -12 -17 -12 -39 0 -8 -5 -7 -15 3 -20 19 -11 44 16 46 15 1
18 -1 11 -10z"/>
<path d="M2560 2911 c0 -6 7 -14 16 -19 9 -5 15 -12 15 -15 -1 -4 2 -7 5 -6
13 2 22 -25 15 -40 -5 -9 -6 -21 -4 -28 5 -13 -14 -12 -37 2 -12 7 -13 6 -3
-6 9 -11 9 -19 2 -26 -8 -8 -7 -13 2 -18 7 -5 10 -4 6 2 -4 6 0 16 7 22 8 7
17 8 20 3 6 -11 46 -10 64 2 8 5 20 2 30 -6 20 -17 29 -17 58 0 12 6 24 8 28
5 3 -3 6 0 6 8 1 16 24 -19 25 -36 0 -17 29 -11 44 9 17 23 22 76 8 76 -5 0
-7 -6 -4 -14 4 -10 0 -14 -14 -11 -10 2 -19 0 -19 -5 0 -4 -8 -7 -17 -5 -10 1
-26 -2 -35 -7 -14 -6 -16 -5 -12 7 4 8 1 15 -5 15 -6 0 -10 -3 -10 -7 4 -26
-2 -35 -14 -24 -8 6 -18 7 -22 3 -5 -4 -5 -2 -1 5 4 7 13 10 22 6 9 -3 14 0
12 8 -2 8 4 13 13 13 12 -1 16 6 15 22 0 13 -5 22 -11 20 -5 -2 -9 -9 -7 -15
1 -6 -2 -11 -6 -11 -5 0 -17 -8 -28 -17 -19 -18 -37 -25 -61 -26 -7 0 -10 -3
-8 -7 2 -3 -7 -6 -20 -6 -13 0 -21 4 -19 8 3 5 9 6 14 3 5 -3 11 -1 15 5 5 9
-7 14 -27 11 -4 0 -5 6 -1 15 5 12 7 13 14 3 4 -8 11 -11 14 -7 4 4 -4 20 -16
37 -25 34 -69 67 -69 52z m162 -126 c3 0 9 -3 13 -7 4 -3 0 -5 -9 -4 -9 1 -22
8 -29 16 -10 10 -9 11 3 4 8 -5 18 -9 22 -9z m108 2 c0 13 24 12 28 -2 2 -6
-7 -17 -19 -25 -13 -8 -20 -10 -16 -3 4 6 3 14 -3 18 -5 3 -10 12 -10 18 0 7
4 6 10 -3 5 -8 10 -10 10 -3z"/>
<path d="M2840 2780 c-9 -6 -10 -10 -3 -10 6 0 15 5 18 10 8 12 4 12 -15 0z"/>
<path d="M2705 2890 c-18 -19 -19 -30 -4 -30 5 0 7 5 4 10 -3 6 -1 10 5 10 7
0 10 -6 7 -14 -3 -8 -1 -16 6 -19 6 -2 3 -6 -7 -10 -11 -4 -15 -3 -10 4 4 7 1
10 -7 7 -8 -3 -13 -11 -11 -17 1 -6 -1 -10 -5 -10 -20 3 -34 -2 -28 -11 4 -6
22 -2 47 11 22 11 37 23 34 26 -9 9 32 35 44 28 5 -3 8 -18 6 -34 -2 -18 2
-28 11 -28 7 0 13 4 13 8 0 4 9 6 20 4 18 -3 25 5 21 28 -1 9 11 9 28 -2 7 -5
11 -13 7 -19 -3 -5 2 -18 12 -29 9 -10 13 -13 8 -6 -6 10 -4 12 8 7 9 -3 16
-11 16 -18 0 -6 5 -4 10 4 17 26 17 26 -37 32 -14 1 -13 4 4 18 18 14 19 18 6
26 -13 8 -12 10 4 10 17 0 20 -5 16 -31 -4 -28 -4 -29 10 -10 9 11 13 24 10
29 -4 5 -1 6 6 1 9 -5 10 -10 2 -18 -16 -16 -14 -32 2 -18 8 6 17 7 22 3 4 -4
2 4 -6 18 -7 14 -12 28 -11 32 1 4 -5 5 -13 2 -8 -4 -15 -2 -15 3 0 5 -9 9
-20 9 -11 0 -20 -4 -20 -9 0 -5 -7 -7 -15 -4 -8 4 -17 2 -20 -3 -3 -5 -12 -7
-21 -3 -16 6 -16 -17 -1 -28 5 -3 1 -9 -8 -12 -10 -4 -14 -3 -9 4 4 7 -1 9
-17 5 -13 -3 -18 -3 -11 0 9 4 10 9 2 19 -8 9 -8 15 0 20 5 3 10 11 10 17 0 7
-5 6 -15 -2 -8 -6 -20 -8 -27 -4 -22 14 -47 11 -63 -6z m190 -30 c3 -6 -1 -7
-9 -4 -18 7 -21 14 -7 14 6 0 13 -4 16 -10z"/>
<path d="M2824 2902 c3 -5 -1 -13 -10 -16 -8 -3 -12 -10 -9 -16 9 -14 25 -12
23 3 -2 6 5 11 15 11 23 -2 16 20 -8 24 -9 2 -15 0 -11 -6z"/>
<path d="M2640 2880 c-12 -7 -12 -12 4 -29 15 -16 22 -18 33 -9 10 8 11 13 3
18 -7 4 -11 11 -10 16 2 13 -13 15 -30 4z m20 -10 c0 -5 -5 -10 -11 -10 -5 0
-7 5 -4 10 3 6 8 10 11 10 2 0 4 -4 4 -10z"/>
<path d="M3002 2853 c-6 -3 -10 -8 -7 -12 2 -5 -3 -17 -11 -27 -14 -17 -15
-17 -10 -1 3 10 2 15 -3 12 -10 -6 -9 -44 2 -62 4 -6 0 -16 -8 -23 -7 -6 -12
-17 -9 -25 4 -9 12 -6 30 12 15 15 22 30 17 37 -4 7 -1 4 8 -6 15 -16 18 -16
23 -2 3 8 10 13 15 10 10 -7 34 19 37 40 1 8 -2 14 -7 14 -6 0 -7 6 -3 13 6 9
4 9 -8 -1 -18 -15 -34 0 -22 21 4 6 -1 5 -10 -4 -10 -9 -14 -22 -10 -33 4 -11
9 -13 13 -7 4 6 11 3 18 -8 14 -22 2 -23 -35 -3 -19 11 -20 16 -11 33 12 23
10 28 -9 22z m18 -69 c0 4 5 4 10 1 6 -4 7 -11 4 -17 -5 -7 -13 -4 -25 10 -13
16 -18 18 -22 8 -3 -7 -1 -18 4 -23 6 -6 1 -17 -13 -29 l-23 -19 18 22 c12 14
15 23 8 28 -8 4 -8 13 0 27 11 21 12 21 25 3 8 -10 14 -15 14 -11z"/>
<path d="M2659 2746 c6 -7 8 -22 5 -32 -6 -18 -6 -18 8 0 13 16 13 22 2 33
-17 17 -30 17 -15 -1z"/>
<path d="M2895 2710 c3 -5 8 -10 11 -10 2 0 4 5 4 10 0 6 -5 10 -11 10 -5 0
-7 -4 -4 -10z"/>
<path d="M2600 2705 c-14 -17 -8 -28 17 -31 12 -2 13 0 4 9 -17 17 -13 31 4
17 13 -11 14 -10 9 4 -8 20 -18 20 -34 1z"/>
<path d="M2870 2930 c0 -5 5 -10 11 -10 5 0 7 5 4 10 -3 6 -8 10 -11 10 -2 0
-4 -4 -4 -10z"/>
<path d="M2620 2610 c0 -6 5 -10 11 -10 5 0 7 -5 3 -12 -4 -7 -3 -8 4 -4 16
10 15 23 -3 30 -8 3 -15 1 -15 -4z"/>
<path d="M2730 2611 c0 -7 -5 -9 -12 -5 -8 5 -9 2 -5 -9 3 -9 2 -19 -3 -22 -6
-4 -10 -1 -10 6 0 7 -3 9 -7 6 -8 -8 26 -47 41 -47 6 0 3 5 -6 11 -17 9 -17
12 -2 35 9 13 14 27 10 31 -3 3 -6 1 -6 -6z"/>
<path d="M2890 2591 c0 -5 -8 -12 -17 -14 -15 -4 -15 -5 -2 -6 9 0 22 6 29 14
9 10 9 15 1 15 -6 0 -11 -4 -11 -9z"/>
<path d="M2631 2554 c0 -11 3 -14 6 -6 3 7 2 16 -1 19 -3 4 -6 -2 -5 -13z"/>
<path d="M2839 2560 c-4 -25 -3 -30 6 -29 5 0 13 -8 17 -18 7 -16 8 -16 5 2
-2 11 -9 19 -16 17 -8 -2 -10 4 -6 18 3 11 4 20 1 20 -3 0 -7 -4 -7 -10z"/>
<path d="M2930 2555 c0 -8 4 -15 10 -15 5 0 7 7 4 15 -4 8 -8 15 -10 15 -2 0
-4 -7 -4 -15z"/>
<path d="M2955 2560 c3 -5 8 -10 11 -10 2 0 4 5 4 10 0 6 -5 10 -11 10 -5 0
-7 -4 -4 -10z"/>
<path d="M2590 2540 c6 -11 15 -18 20 -15 5 3 11 -2 13 -10 3 -11 4 -10 3 2
-1 10 -8 17 -14 16 -7 -2 -12 4 -12 12 0 8 -5 15 -10 15 -7 0 -7 -7 0 -20z"/>
<path d="M2686 2545 c19 -15 19 -16 -1 -13 -11 2 -24 8 -28 13 -5 6 -7 4 -5
-4 4 -15 35 -24 50 -15 11 7 -10 34 -25 34 -6 0 -2 -7 9 -15z"/>
<path d="M2872 2542 c20 -27 22 -28 15 -9 -6 15 -3 17 16 11 12 -3 19 -3 15 1
-4 4 -19 9 -33 11 -23 2 -25 0 -13 -14z"/>
<path d="M2980 2544 c0 -8 -4 -13 -8 -10 -4 2 -14 0 -22 -5 -11 -7 -8 -8 10
-6 14 2 26 11 28 20 2 10 1 17 -2 17 -3 0 -6 -7 -6 -16z"/>
<path d="M2777 2519 c7 -7 15 -10 18 -7 3 3 -2 9 -12 12 -14 6 -15 5 -6 -5z"/>
<path d="M2570 2508 c0 -6 3 -8 7 -5 3 4 13 1 22 -6 14 -11 14 -10 2 6 -15 20
-31 22 -31 5z"/>
<path d="M2646 2507 c3 -10 9 -15 12 -12 3 3 0 11 -7 18 -10 9 -11 8 -5 -6z"/>
<path d="M2718 2513 c7 -3 16 -2 19 1 4 3 -2 6 -13 5 -11 0 -14 -3 -6 -6z"/>
<path d="M2810 2509 c0 -5 4 -8 9 -4 6 3 14 -3 20 -12 6 -10 11 -13 11 -7 0
12 -20 34 -32 34 -4 0 -8 -5 -8 -11z"/>
<path d="M2912 2511 c-11 -6 -10 -10 4 -15 9 -3 19 -4 22 -1 3 3 0 5 -7 5 -7
0 -9 5 -6 10 7 12 4 12 -13 1z"/>
<path d="M3070 2512 c0 -6 9 -12 20 -15 11 -3 20 -3 20 -1 0 2 -9 8 -20 14
-11 6 -20 7 -20 2z"/>
<path d="M2761 2503 c-1 -17 16 -25 25 -12 4 7 3 9 -4 5 -5 -3 -13 0 -15 6 -4
9 -6 10 -6 1z"/>
<path d="M2950 2506 c0 -2 6 -9 14 -15 11 -9 16 -9 22 0 4 8 3 9 -4 5 -7 -4
-12 -2 -12 3 0 6 -4 11 -10 11 -5 0 -10 -2 -10 -4z"/>
<path d="M3045 2492 c-15 -11 -16 -29 0 -29 7 0 11 7 7 15 -4 11 -1 13 8 7 9
-5 11 -4 6 3 -8 14 -8 14 -21 4z"/>
<path d="M2560 2483 c0 -6 8 -17 18 -24 16 -13 16 -13 2 6 -8 11 -16 22 -17
24 -2 2 -3 0 -3 -6z"/>
<path d="M2620 2481 c0 -7 -5 -9 -12 -5 -7 5 -8 3 -3 -5 5 -9 10 -10 18 -2 6
6 8 14 4 18 -4 3 -7 1 -7 -6z"/>
<path d="M2790 2475 c-11 -13 -10 -14 4 -9 9 3 16 10 16 15 0 13 -6 11 -20 -6z"/>
<path d="M2860 2481 c0 -6 4 -13 10 -16 6 -3 7 1 4 9 -7 18 -14 21 -14 7z"/>
<path d="M2995 2480 c-3 -6 1 -7 9 -4 18 7 21 14 7 14 -6 0 -13 -4 -16 -10z"/>
<path d="M2740 2470 c8 -5 20 -10 25 -10 6 0 3 5 -5 10 -8 5 -19 10 -25 10 -5
0 -3 -5 5 -10z"/>
<path d="M2904 2464 c-10 -8 -13 -13 -6 -9 7 4 21 1 30 -7 15 -11 15 -11 5 3
-7 9 -10 19 -6 22 13 13 -4 7 -23 -9z"/>
<path d="M2673 2455 c0 -8 4 -15 9 -15 4 0 8 4 8 9 0 6 -4 12 -8 15 -5 3 -9
-1 -9 -9z"/>
<path d="M2988 2453 c6 -3 10 -9 6 -14 -8 -14 2 -11 14 4 8 10 6 13 -11 14
-12 0 -16 -1 -9 -4z"/>
<path d="M2610 2446 c0 -2 8 -10 18 -17 15 -13 16 -12 3 4 -13 16 -21 21 -21
13z"/>
<path d="M3090 2446 c0 -2 8 -10 18 -17 15 -13 16 -12 3 4 -13 16 -21 21 -21
13z"/>
<path d="M2593 2423 c0 -11 7 -20 14 -20 10 0 10 4 1 16 -7 9 -13 18 -15 20
-1 2 -1 -5 0 -16z"/>
<path d="M2893 2423 c0 -9 4 -10 14 -2 7 6 13 12 13 14 0 1 -6 2 -13 2 -8 0
-14 -6 -14 -14z"/>
<path d="M2951 2437 c2 -1 13 -9 24 -17 19 -14 19 -14 6 3 -7 9 -18 17 -24 17
-6 0 -8 -1 -6 -3z"/>
<path d="M3059 2423 c-13 -16 -12 -17 4 -4 9 7 17 15 17 17 0 8 -8 3 -21 -13z"/>
<path d="M2920 2405 c-7 -8 -17 -12 -24 -8 -6 3 -7 2 -3 -2 4 -5 15 -10 23
-11 9 -1 13 0 10 3 -3 4 -1 12 5 20 6 7 9 13 6 13 -2 0 -10 -7 -17 -15z"/>
<path d="M2634 2390 c0 -13 4 -16 10 -10 7 7 7 13 0 20 -6 6 -10 3 -10 -10z"/>
<path d="M2660 2396 c0 -2 8 -10 18 -17 15 -13 16 -12 3 4 -13 16 -21 21 -21
13z"/>
<path d="M2955 2389 c-3 -4 2 -6 10 -5 21 3 28 13 10 13 -9 0 -18 -4 -20 -8z"/>
<path d="M3045 2389 c-3 -4 2 -6 10 -5 21 3 28 13 10 13 -9 0 -18 -4 -20 -8z"/>
<path d="M2656 2348 c3 -5 10 -6 15 -3 13 9 11 12 -6 12 -8 0 -12 -4 -9 -9z"/>
<path d="M2755 2350 c3 -5 8 -10 11 -10 2 0 4 5 4 10 0 6 -5 10 -11 10 -5 0
-7 -4 -4 -10z"/>
<path d="M2695 2330 c3 -5 8 -10 11 -10 2 0 4 5 4 10 0 6 -5 10 -11 10 -5 0
-7 -4 -4 -10z"/>
<path d="M2895 2330 c3 -5 8 -10 11 -10 2 0 4 5 4 10 0 6 -5 10 -11 10 -5 0
-7 -4 -4 -10z"/>
<path d="M2975 2330 c3 -5 8 -10 11 -10 2 0 4 5 4 10 0 6 -5 10 -11 10 -5 0
-7 -4 -4 -10z"/>
<path d="M2670 2293 c0 -6 8 -17 18 -24 16 -13 16 -13 2 6 -8 11 -16 22 -17
24 -2 2 -3 0 -3 -6z"/>
<path d="M2910 2290 c0 -5 5 -10 11 -10 5 0 7 5 4 10 -3 6 -8 10 -11 10 -2 0
-4 -4 -4 -10z"/>
<path d="M2707 2229 c7 -7 15 -10 18 -7 3 3 -2 9 -12 12 -14 6 -15 5 -6 -5z"/>
<path d="M4269 4911 c0 -31 0 -212 1 -403 l1 -347 -43 -11 c-250 -63 -451
-285 -503 -553 -13 -69 -14 -485 -1 -537 3 -14 8 -34 10 -45 30 -149 148 -315
287 -405 135 -87 242 -109 537 -110 l212 0 0 -350 c-1 -385 -3 -397 -65 -495
-39 -62 -83 -100 -155 -134 -47 -22 -69 -26 -150 -26 -84 0 -102 3 -152 28
-106 52 -188 169 -202 288 -3 24 -5 45 -5 46 -1 1 -76 2 -167 2 l-167 -1 7
-62 c10 -97 32 -173 78 -266 78 -156 243 -296 408 -344 384 -113 774 110 881
503 17 62 18 128 16 991 l-2 925 -24 70 c-47 141 -128 261 -235 346 -57 46
-163 104 -215 118 l-26 7 -3 411 -2 411 -160 -1 -160 0 -1 -56z m264 -1091
c100 -38 181 -125 218 -232 16 -47 18 -91 19 -405 l0 -351 -227 2 c-212 2
-232 4 -288 26 -80 31 -154 105 -185 185 -23 57 -24 73 -24 290 l-1 230 32 65
c87 178 278 257 456 190z"/>
<path d="M908 3304 c-2 -91 -1 -168 1 -170 3 -2 4 -30 2 -62 -1 -41 1 -53 9
-42 7 11 10 11 10 2 0 -7 -7 -15 -15 -18 -14 -6 -13 -8 2 -21 10 -8 13 -12 6
-8 -9 4 -12 -15 -12 -70 0 -41 4 -75 9 -75 4 0 7 16 6 35 -2 19 1 32 6 29 5
-3 6 -15 2 -27 -6 -18 -3 -17 24 8 29 27 37 50 10 27 -9 -7 -19 -6 -32 4 -11
8 -15 14 -10 14 6 0 15 -5 22 -12 9 -9 13 -7 18 6 6 15 10 14 40 -9 33 -25 50
-20 19 5 -9 7 -13 20 -10 29 3 12 -1 17 -16 18 -18 2 -19 0 -7 -15 12 -15 11
-16 -4 -4 -14 11 -18 10 -28 -5 -10 -16 -11 -16 -6 -1 3 10 1 20 -4 23 -6 4
-10 -2 -10 -11 0 -10 -3 -15 -6 -11 -4 3 -4 14 0 23 5 13 9 14 20 5 10 -8 16
-9 21 -2 9 15 50 7 51 -10 1 -8 2 -20 3 -27 0 -7 5 -11 9 -8 5 3 9 0 10 -7 3
-36 11 -52 25 -55 10 -2 17 2 17 8 0 6 -4 9 -8 6 -5 -3 -9 0 -10 7 0 7 -2 21
-4 32 -2 13 2 19 11 17 8 -2 11 3 8 12 -3 8 1 20 9 27 11 9 18 8 33 -5 17 -15
19 -15 25 -1 3 9 10 14 15 10 5 -3 11 3 14 12 3 14 4 13 3 -2 -1 -11 -7 -19
-15 -17 -9 2 -11 -3 -7 -13 4 -11 2 -14 -6 -9 -8 5 -9 1 -5 -12 5 -12 -1 -9
-14 9 -11 15 -26 27 -32 27 -5 0 -7 -3 -4 -6 9 -10 -12 -46 -24 -39 -12 8 -12
-6 1 -25 8 -12 10 -12 16 3 8 22 33 22 49 0 11 -15 13 -15 19 5 4 12 12 22 18
22 7 0 6 -5 -1 -14 -6 -8 -11 -18 -10 -22 3 -20 -2 -34 -12 -34 -5 0 -7 5 -3
11 4 7 1 10 -6 7 -7 -2 -15 -15 -17 -27 -3 -20 -1 -22 12 -11 12 10 18 10 29
0 12 -9 15 -8 15 7 1 54 16 90 43 99 16 5 18 8 7 15 -8 5 -16 3 -21 -4 -5 -8
-8 -8 -8 -1 0 19 12 24 33 13 19 -11 19 -12 -12 -36 -17 -13 -31 -29 -31 -34
0 -6 15 2 34 16 27 21 35 23 39 11 4 -10 1 -13 -9 -9 -14 5 -14 3 -3 -16 8
-11 17 -21 22 -21 4 0 6 4 3 8 -2 4 0 14 6 22 8 12 9 12 4 -2 -7 -23 8 -23 30
-1 16 16 16 16 11 -2 -6 -21 18 -63 29 -52 4 4 3 12 -3 19 -12 16 -15 58 -3
58 5 0 22 -12 39 -26 17 -14 31 -21 31 -16 0 6 -14 22 -31 36 -17 14 -27 30
-24 36 4 6 -3 9 -16 7 -16 -1 -22 4 -25 23 -3 18 -2 21 5 10 5 -8 7 -18 5 -22
-3 -4 5 -7 18 -5 12 1 23 -2 23 -8 0 -14 57 -76 63 -70 3 3 -3 14 -13 25 -15
17 -16 23 -5 33 10 9 11 9 6 -1 -10 -17 11 -42 29 -35 17 6 17 73 1 73 -6 0
-5 4 2 9 16 9 13 72 -3 83 -6 5 -6 8 2 8 14 0 16 227 1 236 -11 7 -150 43
-193 50 -16 3 -41 9 -55 14 -26 9 -108 29 -150 36 -14 3 -54 14 -89 25 -35 10
-65 19 -67 19 -2 0 -4 -75 -6 -166z m312 -28 c0 -2 -8 -10 -17 -17 -16 -13
-17 -12 -4 4 13 16 21 21 21 13z m-10 -80 c0 -3 -4 -8 -10 -11 -5 -3 -10 -1
-10 4 0 6 5 11 10 11 6 0 10 -2 10 -4z m-180 -26 c0 -5 -5 -10 -11 -10 -5 0
-7 5 -4 10 3 6 8 10 11 10 2 0 4 -4 4 -10z m360 0 c0 -5 -5 -10 -11 -10 -5 0
-7 5 -4 10 3 6 8 10 11 10 2 0 4 -4 4 -10z m35 0 c3 -5 1 -10 -4 -10 -6 0 -11
5 -11 10 0 6 2 10 4 10 3 0 8 -4 11 -10z m-450 -40 c3 -6 -1 -7 -9 -4 -18 7
-21 14 -7 14 6 0 13 -4 16 -10z m115 -2 c0 -4 -4 -8 -9 -8 -6 0 -12 4 -15 8
-3 5 1 9 9 9 8 0 15 -4 15 -9z m34 3 c3 -5 -2 -15 -12 -22 -15 -12 -16 -12 -5
2 7 9 10 19 6 22 -3 4 -4 7 0 7 3 0 8 -4 11 -9z m91 -1 c3 -6 -1 -7 -9 -4 -18
7 -21 14 -7 14 6 0 13 -4 16 -10z m-205 -21 c0 -5 -4 -9 -8 -9 -5 0 -9 7 -9
15 0 8 4 12 9 9 4 -3 8 -9 8 -15z m194 2 c3 -5 -2 -15 -12 -22 -15 -12 -16
-12 -5 2 7 9 10 19 6 22 -3 4 -4 7 0 7 3 0 8 -4 11 -9z m210 -3 c-4 -5 -9 -7
-12 -4 -3 3 -12 0 -21 -7 -14 -10 -14 -10 -4 4 13 16 46 23 37 7z m32 -12 c1
-7 -4 -13 -12 -13 -9 0 -11 4 -4 12 5 7 8 15 5 18 -3 4 -2 5 2 2 4 -3 8 -11 9
-19z m-356 10 c0 -2 -8 -10 -17 -17 -16 -13 -17 -12 -4 4 13 16 21 21 21 13z
m-136 -35 c15 -16 15 -19 2 -24 -11 -4 -13 -1 -9 10 4 10 2 14 -4 10 -5 -3
-10 0 -10 8 0 19 0 19 21 -4z m64 3 c-13 -13 -20 -14 -34 -5 -17 11 -17 11 3
6 12 -3 24 -1 28 5 3 5 9 10 13 10 3 0 -1 -7 -10 -16z m88 -3 c0 -12 -6 -17
-18 -13 -18 4 -18 5 -1 18 10 7 18 14 18 14 1 0 1 -8 1 -19z m64 15 c0 -2 -6
-9 -14 -15 -11 -9 -16 -9 -22 0 -4 7 -3 9 4 5 6 -3 13 -2 17 4 6 10 15 14 15
6z m93 -11 c-3 -9 -8 -14 -10 -11 -3 3 -2 9 2 15 9 16 15 13 8 -4z m147 11 c0
-2 -6 -9 -14 -15 -11 -9 -16 -9 -22 0 -4 7 -3 9 4 5 6 -3 13 -2 17 4 6 10 15
14 15 6z m-100 -14 c0 -4 -10 -9 -22 -9 -18 -2 -20 0 -8 7 18 12 30 13 30 2z
m54 -8 c3 -8 2 -12 -4 -9 -6 3 -10 10 -10 16 0 14 7 11 14 -7z m-323 -27 c-8
-8 -14 -7 -23 2 -11 10 -9 11 6 5 15 -6 17 -4 11 6 -6 9 -4 11 4 5 9 -5 10
-10 2 -18z m174 1 c5 4 5 1 1 -5 -11 -20 -23 -15 -29 10 -5 20 -5 20 7 5 7
-10 17 -14 21 -10z m109 10 c-5 -8 -2 -9 11 -4 15 5 16 4 5 -9 -10 -12 -15
-13 -21 -3 -7 12 -3 28 7 28 3 0 2 -5 -2 -12z m109 -19 c-8 -8 -13 -7 -18 2
-6 8 -4 10 5 4 10 -6 12 -4 6 11 -6 15 -5 17 5 7 9 -10 10 -16 2 -24z m-448
11 c-3 -5 -12 -10 -18 -10 -7 0 -6 4 3 10 19 12 23 12 15 0z m266 -13 c-10 -9
-11 -8 -5 6 3 10 9 15 12 12 3 -3 0 -11 -7 -18z m-113 5 c8 -6 2 -9 -18 -9
-20 0 -26 3 -18 9 7 4 15 8 18 8 3 0 11 -4 18 -8z m247 -10 c-3 -3 -11 0 -18
7 -9 10 -8 11 6 5 10 -3 15 -9 12 -12z m-422 -19 c-4 -9 0 -11 13 -7 16 5 16
4 4 -5 -11 -8 -18 -7 -26 4 -6 8 -15 11 -19 7 -5 -4 -5 -2 -2 4 9 16 36 13 30
-3z m113 -31 c-14 -14 -16 -14 -22 1 -3 9 -4 22 -1 29 3 7 6 3 6 -10 1 -13 5
-20 11 -17 6 4 8 16 5 28 -5 20 -5 20 6 3 9 -14 8 -21 -5 -34z m94 38 c0 -5
-8 -10 -17 -10 -15 0 -16 2 -3 10 19 12 20 12 20 0z m86 -5 c-11 -8 -25 -15
-30 -15 -6 1 0 7 14 15 32 19 40 18 16 0z m24 -10 c-7 -8 -16 -15 -21 -15 -5
0 -1 8 9 18 20 22 31 19 12 -3z m100 9 c0 -2 -7 -4 -15 -4 -8 0 -15 4 -15 10
0 5 7 7 15 4 8 -4 15 -8 15 -10z m26 0 c-3 -9 -3 -21 1 -27 4 -7 10 -2 14 13
6 22 7 23 8 4 1 -12 -7 -28 -16 -35 -10 -7 -15 -9 -11 -5 4 5 3 15 -2 21 -10
12 -4 45 7 45 3 0 2 -7 -1 -16z m-272 -9 c11 -8 16 -15 10 -15 -5 0 -18 7 -28
15 -11 8 -16 15 -10 15 5 0 18 -7 28 -15z m183 -17 c-3 -8 -6 -5 -6 6 -1 11 2
17 5 13 3 -3 4 -12 1 -19z m148 -23 c0 -14 -3 -25 -7 -25 -10 0 -10 34 -1 43
3 4 7 7 7 7 1 0 1 -11 1 -25z m-171 9 c20 -8 21 -20 2 -27 -11 -4 -13 -1 -9
10 4 11 2 14 -5 9 -7 -4 -12 -2 -12 3 0 13 3 13 24 5z m-239 -14 c3 -5 1 -10
-4 -10 -6 0 -11 5 -11 10 0 6 2 10 4 10 3 0 8 -4 11 -10z m145 0 c0 -5 -5 -10
-11 -10 -5 0 -7 5 -4 10 3 6 8 10 11 10 2 0 4 -4 4 -10z m134 -19 c-10 -10
-21 -16 -24 -14 -3 3 4 11 14 19 28 20 33 17 10 -5z"/>
<path d="M500 2976 c0 -163 -14 -235 -62 -309 -68 -107 -221 -188 -379 -201
-24 -2 -47 -4 -51 -5 -3 -1 -6 -75 -5 -166 l0 -165 86 5 c157 10 272 38 359
87 l52 29 0 -525 0 -526 165 0 165 0 0 960 0 960 -165 -1 -165 -1 0 -142z"/>
<path d="M1365 2898 c3 -12 10 -26 16 -32 8 -8 10 -4 5 14 -6 21 -5 22 4 7 6
-9 9 -21 6 -25 -3 -5 8 -9 24 -9 17 0 27 5 23 10 -3 6 -1 7 5 3 5 -3 13 0 15
6 4 8 6 7 6 -3 1 -20 -22 -31 -46 -23 -10 3 -4 -2 12 -12 17 -9 31 -18 33 -19
9 -8 -20 -44 -31 -39 -8 3 -14 -2 -14 -10 0 -13 3 -13 26 0 24 14 27 22 27 80
1 35 -3 64 -8 64 -5 0 -7 -4 -4 -9 3 -4 -5 -13 -19 -19 -18 -9 -26 -8 -36 4
-7 8 -20 19 -30 25 -15 8 -17 6 -14 -13z"/>
<path d="M952 2864 c-23 -25 -40 -49 -37 -55 4 -5 1 -9 -5 -9 -6 0 -8 -5 -4
-11 4 -8 9 -7 15 2 4 7 5 17 2 22 -3 5 5 4 17 -3 12 -7 20 -7 16 -2 -3 6 -1
12 6 14 9 3 9 6 0 12 -7 4 -12 2 -12 -3 0 -6 -5 -11 -11 -11 -8 0 -8 5 1 15 7
8 17 12 23 8 6 -4 8 0 4 11 -4 9 -3 15 2 11 5 -3 12 1 15 7 3 7 3 3 1 -9 -3
-12 0 -25 6 -29 8 -4 9 -3 5 4 -4 7 -2 12 5 12 7 0 9 3 6 7 -4 3 -2 12 4 19
10 13 5 34 -9 34 -4 0 -26 -21 -50 -46z"/>
<path d="M1099 2894 c-12 -15 -11 -16 11 -9 24 7 23 6 -5 -16 -16 -13 -31 -33
-33 -44 -3 -20 -2 -20 13 -1 8 11 15 23 15 28 0 4 5 8 11 8 8 0 8 -4 2 -12
-12 -16 -13 -48 -1 -48 4 0 8 6 8 13 0 7 5 5 11 -5 5 -10 16 -15 24 -12 21 8
19 -11 -2 -27 -17 -13 -17 -12 -3 6 10 15 11 17 0 8 -11 -10 -17 -10 -29 0
-13 10 -14 10 -6 -3 6 -9 2 -7 -7 3 -12 12 -18 15 -18 6 0 -8 -6 -5 -15 7 -8
10 -15 15 -15 9 0 -5 -5 -3 -11 5 -8 12 -9 10 -4 -9 5 -16 3 -22 -5 -19 -16 5
-22 55 -9 64 5 3 17 0 26 -8 15 -12 15 -11 4 10 -7 13 -17 20 -24 15 -7 -4 -5
2 3 12 14 17 14 17 -5 7 -11 -5 -21 -20 -22 -32 -3 -31 -10 -35 -30 -19 -10 7
-15 10 -11 5 12 -14 -11 -46 -27 -40 -8 4 -15 1 -15 -6 0 -6 4 -9 9 -6 5 3 14
0 20 -8 9 -10 8 -15 -3 -19 -10 -4 -13 -1 -10 8 4 9 -1 13 -13 11 -10 -2 -19
-13 -21 -24 -4 -25 1 -27 30 -11 16 9 24 8 36 -5 14 -14 13 -15 -16 -11 -18 2
-30 0 -27 -6 3 -5 -1 -6 -9 -3 -13 5 -15 -2 -11 -35 3 -31 1 -40 -8 -35 -9 5
-9 4 0 -6 6 -7 9 -18 6 -25 -2 -7 9 -23 26 -36 38 -28 47 -48 20 -46 -13 1
-18 6 -14 16 3 9 3 12 -1 8 -4 -4 -13 1 -21 11 -11 13 -10 10 1 -14 14 -28 34
-36 65 -25 2 0 -4 11 -12 24 -14 21 -13 24 1 34 15 10 14 11 -5 10 -12 -1 -19
-5 -17 -9 3 -4 1 -8 -5 -8 -16 0 -22 18 -9 27 22 13 46 13 57 -1 8 -10 9 -16
1 -21 -5 -3 -10 -12 -10 -18 0 -7 5 -4 11 5 5 9 16 15 24 12 8 -4 12 -10 9
-16 -3 -5 3 -4 15 4 11 7 23 18 25 25 7 17 1 16 -17 -1 -8 -8 -19 -11 -27 -6
-9 6 -5 12 16 22 42 19 60 16 84 -15 12 -15 29 -27 38 -27 12 0 9 4 -8 13 -27
13 -33 38 -12 45 7 2 10 -2 6 -11 -3 -8 1 -18 8 -23 7 -4 10 -4 6 1 -4 4 -3
16 3 27 9 16 13 17 27 6 13 -11 14 -11 8 1 -6 9 -5 12 4 9 15 -5 21 -46 8 -54
-4 -3 -8 -11 -8 -17 0 -7 7 -4 15 6 7 11 11 25 8 33 -3 8 -1 14 5 14 6 0 13
-6 15 -12 7 -17 0 47 -7 70 -4 13 -1 19 9 19 9 0 14 -6 11 -12 -6 -17 10 -39
22 -31 6 4 9 12 6 19 -2 7 4 13 14 14 29 2 22 -25 -10 -38 -15 -6 -28 -16 -28
-21 0 -6 6 -5 14 1 23 20 40 -20 20 -47 -9 -13 -11 -22 -5 -22 6 0 11 5 11 11
0 5 4 7 10 4 6 -4 7 1 4 12 -4 11 4 6 21 -12 24 -28 24 -26 -4 17 -17 26 -31
49 -31 53 0 14 22 -9 46 -47 14 -22 28 -37 31 -34 3 3 -2 12 -11 21 -27 28
-18 40 11 14 14 -13 23 -18 19 -11 -4 6 -2 12 3 12 6 0 11 5 11 11 0 8 -6 7
-17 -2 -15 -12 -16 -12 -10 4 4 10 7 21 7 23 0 3 5 2 12 -2 7 -5 8 -3 3 6 -6
10 -4 12 8 7 11 -4 22 2 32 16 18 25 20 18 4 -17 -7 -14 -16 -23 -20 -20 -5 3
-9 1 -9 -4 0 -6 11 -9 24 -8 18 1 22 4 14 14 -6 7 -6 12 -1 12 5 0 9 13 9 29
l0 30 -26 -19 c-15 -11 -30 -17 -33 -13 -4 3 8 15 25 27 21 14 32 30 32 48 2
25 1 26 -26 12 -36 -19 -39 -18 -34 11 3 13 1 27 -4 30 -5 3 -7 -4 -5 -15 2
-11 0 -18 -5 -15 -6 3 -7 -2 -4 -12 5 -15 4 -15 -4 -3 -7 9 -8 18 -1 26 6 8 6
14 1 18 -12 7 -25 -22 -17 -35 4 -5 -1 -6 -9 -3 -9 3 -13 11 -9 18 4 6 -2 4
-12 -4 -10 -8 -16 -10 -12 -4 4 7 -2 10 -18 8 -16 -1 -23 2 -19 8 4 6 2 8 -4
4 -6 -3 -13 -2 -17 4 -4 6 -11 8 -16 5 -5 -4 -9 -1 -9 6 0 10 -3 10 -12 1 -9
-9 -7 -17 8 -34 19 -23 19 -23 -1 -8 -14 10 -13 8 3 -7 13 -13 20 -23 16 -23
-4 0 -19 10 -32 23 -14 12 -21 15 -17 7 7 -12 6 -13 -7 -3 -8 7 -19 9 -23 5
-5 -4 -4 0 0 8 8 13 7 13 -9 1 -16 -13 -16 -12 1 17 12 20 20 27 25 19 8 -13
9 -10 13 41 1 17 -2 32 -6 32 -5 0 -10 -6 -10 -12 -1 -7 -2 -17 -4 -23 -1 -5
-3 -14 -3 -19 -1 -5 -9 -3 -17 4 -11 10 -19 10 -27 2 -16 -16 -42 -3 -27 14 6
8 8 14 4 14 -4 0 -2 7 5 15 12 14 6 35 -9 35 -5 0 -15 -7 -22 -16z m75 -72 c2
-4 -4 -8 -14 -8 -10 0 -16 4 -14 8 3 4 9 8 14 8 5 0 11 -4 14 -8z m-163 -16
c-10 -12 -8 -17 10 -27 19 -9 25 -9 35 5 10 15 12 15 18 1 3 -8 10 -14 17 -13
6 2 18 -7 26 -20 13 -18 13 -22 3 -20 -8 2 -14 -2 -15 -9 0 -19 -15 -28 -15
-9 0 11 -5 16 -14 13 -7 -3 -19 0 -26 6 -10 9 -11 9 -5 -2 6 -11 2 -10 -16 2
-13 9 -28 17 -34 17 -6 0 -6 -3 1 -8 10 -6 34 -45 34 -55 0 -2 -7 -4 -15 -4
-10 0 -14 7 -10 21 5 19 4 19 -6 -1 -11 -21 -13 -22 -26 -5 -12 16 -13 16 -7
0 4 -11 1 -18 -6 -18 -6 0 -8 4 -5 10 4 6 -1 7 -11 3 -15 -5 -15 -7 0 -15 9
-5 21 -6 26 -3 6 3 10 2 10 -4 0 -18 -21 -23 -38 -9 -15 12 -16 11 -3 -4 7
-10 20 -18 28 -18 8 0 11 -5 8 -10 -4 -6 -10 -8 -15 -5 -5 3 -15 -1 -22 -9
-12 -12 -14 -6 -14 39 1 29 5 51 10 48 4 -3 12 0 16 8 7 10 12 10 23 1 12 -10
16 -10 20 2 3 8 -1 20 -8 26 -8 7 -13 16 -10 20 3 5 1 12 -5 15 -8 5 -7 11 1
21 6 7 15 12 19 9 5 -3 11 -1 15 5 3 5 9 10 12 10 3 0 0 -6 -6 -14z m269 -31
c15 -9 20 -11 40 -14 22 -3 8 -16 -18 -17 -17 -1 -33 7 -44 21 -18 24 -7 28
22 10z m-129 -83 l-15 -33 -13 23 c-7 13 -12 17 -13 9 0 -8 -3 -11 -6 -8 -4 4
-2 13 4 20 7 8 8 17 4 21 -4 4 0 6 8 4 10 -2 14 3 12 15 -3 17 -2 17 16 0 17
-17 17 -20 3 -51z m57 59 c1 -1 5 -1 10 -2 4 0 15 -7 24 -16 9 -8 22 -12 29
-7 7 4 24 8 38 10 14 1 30 2 34 3 5 1 5 6 1 12 -4 7 1 7 15 -1 33 -17 61 -21
82 -9 15 8 17 6 12 -7 -5 -13 -3 -15 8 -10 8 4 3 -2 -10 -13 -12 -12 -27 -18
-32 -15 -5 3 -10 -1 -10 -8 -3 -33 -4 -38 -11 -38 -5 0 -13 0 -19 0 -5 0 -7 5
-4 10 4 6 10 8 14 6 4 -3 8 1 8 8 0 9 -7 12 -16 8 -14 -5 -14 -3 -3 10 7 9 22
15 32 13 10 -2 21 3 24 11 4 11 2 12 -14 4 -13 -7 -21 -7 -25 0 -4 6 -10 8
-15 5 -5 -3 -12 -1 -15 5 -5 8 -11 7 -21 -1 -18 -15 -18 -33 -1 -26 8 3 14 -1
14 -8 0 -10 -5 -11 -17 -5 -10 5 -27 8 -39 5 -11 -2 -23 1 -26 6 -4 5 -11 7
-16 4 -5 -4 -9 -1 -9 6 0 7 -3 9 -7 6 -10 -11 -11 -67 -1 -67 5 0 6 -5 3 -10
-9 -15 -27 0 -21 17 3 8 -1 27 -9 44 -17 32 -28 39 -19 12 5 -16 4 -16 -6 -3
-8 10 -10 11 -8 2 2 -8 7 -13 12 -12 9 2 26 -19 26 -33 0 -5 -5 -5 -12 -1 -6
4 -8 3 -4 -4 3 -6 1 -14 -5 -18 -8 -4 -9 -3 -5 4 4 7 2 12 -4 12 -6 0 -9 4 -5
9 3 5 0 13 -6 17 -8 5 -9 3 -4 -6 6 -9 4 -11 -5 -5 -9 6 -11 4 -5 -5 5 -8 4
-11 -3 -6 -7 4 -6 15 4 34 12 24 12 28 -1 38 -8 6 -15 13 -15 16 0 4 47 3 58
-1z m-158 -41 c0 7 3 11 6 8 3 -4 0 -16 -6 -28 -14 -25 -22 -66 -12 -56 7 7 8
11 11 37 0 5 5 8 11 4 5 -3 6 -13 3 -23 -4 -13 -2 -13 10 3 16 20 13 40 -4 30
-11 -7 -12 5 -1 23 6 9 12 5 21 -14 9 -21 9 -30 -1 -43 -11 -14 -11 -14 4 -3
13 10 17 10 22 0 3 -7 3 -2 0 12 -4 20 -3 22 5 9 6 -10 21 -15 36 -13 17 1 25
-2 22 -9 -3 -7 -10 -11 -17 -9 -7 1 -18 -2 -24 -8 -7 -5 -16 -7 -20 -3 -9 10
-66 11 -66 1 0 -4 -6 -8 -14 -8 -8 0 -16 -6 -18 -12 -3 -8 -11 -2 -21 13 -10
15 -15 34 -11 43 5 14 9 15 15 4 13 -19 11 -30 -3 -22 -9 5 -9 2 1 -9 7 -9 16
-17 19 -17 3 0 3 3 -1 6 -3 4 1 20 9 35 11 22 12 34 4 52 -11 21 -10 21 4 3
11 -13 16 -15 16 -6z m333 7 c4 3 7 4 7 1 0 -3 -7 -11 -16 -18 -12 -11 -15
-11 -12 1 2 8 -3 13 -10 11 -8 -1 -11 2 -7 8 5 8 11 8 19 1 7 -6 16 -8 19 -4z
m-17 -52 c-2 -5 -9 -9 -15 -7 -7 1 -10 -2 -6 -8 3 -6 10 -8 14 -6 11 7 36 -12
28 -21 -5 -4 -12 -1 -17 7 -8 12 -10 12 -10 1 0 -11 -3 -11 -14 -2 -21 17 -16
50 6 48 10 -1 16 -6 14 -12z"/>
<path d="M976 2792 c-3 -6 -2 -13 4 -17 6 -4 8 -10 5 -14 -2 -5 7 -7 20 -5 14
1 25 -2 25 -7 0 -6 4 -8 9 -4 5 3 12 1 15 -3 8 -14 51 -7 51 9 0 8 -5 14 -12
14 -6 0 -15 3 -19 7 -4 4 -13 3 -20 -2 -16 -14 -35 -9 -55 14 -10 13 -18 15
-23 8z m98 -43 c-3 -5 -10 -7 -15 -3 -5 3 -7 10 -3 15 3 5 10 7 15 3 5 -3 7
-10 3 -15z"/>
<path d="M1260 2776 c0 -2 8 -10 18 -17 15 -13 16 -12 3 4 -13 16 -21 21 -21
13z"/>
<path d="M1125 2711 c-6 -11 9 -23 19 -14 9 9 7 23 -3 23 -6 0 -12 -4 -16 -9z"/>
<path d="M1176 2739 c3 -5 9 -7 14 -4 5 3 16 -5 24 -17 9 -12 16 -17 16 -10 0
6 0 15 0 20 0 4 -4 8 -10 8 -5 1 -11 2 -12 4 -10 7 -37 6 -32 -1z"/>
<path d="M1279 2720 c-8 -6 -8 -9 0 -14 6 -4 11 -1 11 6 0 11 2 10 9 0 7 -11
9 -11 14 0 5 15 -14 20 -34 8z"/>
<path d="M1229 2908 c-9 -17 -3 -48 7 -48 8 0 14 5 14 11 0 5 5 7 11 3 8 -5 8
-9 -1 -14 -6 -4 8 -6 32 -5 55 4 53 2 38 20 -9 11 -17 12 -33 3 -18 -9 -23 -7
-35 11 -12 18 -29 27 -33 19z"/>
<path d="M1229 2843 c-1 -2 -2 -6 -3 -10 -9 -40 -19 -55 -27 -42 -6 9 -9 10
-9 2 0 -24 20 -23 32 2 7 15 17 24 25 21 9 -4 11 -1 7 7 -4 6 -4 9 1 5 4 -4
16 -3 26 3 13 6 25 6 38 -1 13 -6 21 -6 23 0 2 6 9 1 16 -10 7 -12 8 -20 2
-20 -5 0 -10 6 -10 13 0 6 -5 4 -11 -6 -6 -9 -14 -15 -20 -12 -5 4 -9 2 -9 -3
0 -13 60 -10 61 3 1 5 1 19 0 30 0 11 2 14 5 7 3 -6 10 -10 15 -7 5 4 6 -2 2
-12 -3 -10 -2 -15 2 -10 5 4 18 0 31 -8 19 -12 23 -12 28 0 3 9 -3 19 -14 25
-11 6 -20 7 -20 3 0 -4 -4 -1 -10 7 -6 10 -31 14 -94 15 -47 1 -87 0 -87 -2z
m216 -41 c-3 -3 -11 0 -18 7 -9 10 -8 11 6 5 10 -3 15 -9 12 -12z"/>
<path d="M1030 2832 c0 -5 7 -9 15 -9 8 0 12 4 9 9 -3 4 -9 8 -15 8 -5 0 -9
-4 -9 -8z"/>
<path d="M1281 2821 c-21 -13 -4 -33 18 -21 10 5 21 6 25 3 3 -3 6 -2 6 4 0 6
-7 14 -16 17 -19 7 -16 8 -33 -3z"/>
<path d="M1180 2610 c0 -6 5 -10 11 -10 5 0 7 -5 3 -12 -4 -7 -3 -8 4 -4 16
10 15 23 -3 30 -8 3 -15 1 -15 -4z"/>
<path d="M1290 2609 c0 -5 -4 -8 -9 -4 -6 3 -9 -4 -8 -15 1 -20 2 -20 14 -4
13 18 17 34 8 34 -3 0 -5 -5 -5 -11z"/>
<path d="M1094 2601 c4 -5 3 -11 -1 -14 -5 -2 -2 -2 4 -1 7 2 17 -5 22 -14 6
-9 10 -12 10 -7 0 13 -24 45 -33 45 -4 0 -5 -4 -2 -9z"/>
<path d="M1450 2591 c0 -5 -8 -12 -17 -14 -15 -4 -15 -5 -2 -6 9 0 22 6 29 14
9 10 9 15 1 15 -6 0 -11 -4 -11 -9z"/>
<path d="M1006 2555 c-3 -8 -1 -15 4 -15 6 0 10 7 10 15 0 8 -2 15 -4 15 -2 0
-6 -7 -10 -15z"/>
<path d="M1062 2563 c-13 -5 -7 -23 9 -23 6 0 8 4 5 9 -4 5 0 12 6 14 7 3 9 5
3 5 -5 0 -16 -2 -23 -5z"/>
<path d="M1100 2555 c0 -8 0 -18 0 -22 0 -17 41 -9 51 8 6 13 6 19 -1 19 -5 0
-10 -6 -10 -13 0 -7 -8 -13 -19 -14 -14 -1 -17 3 -14 18 3 10 3 19 -1 19 -3 0
-6 -7 -6 -15z"/>
<path d="M1401 2567 c-2 -20 20 -44 39 -43 11 0 20 4 20 9 0 4 0 12 0 17 0 6
-5 10 -11 10 -8 0 -8 -4 1 -14 9 -12 8 -15 -9 -13 -14 1 -20 6 -16 15 2 7 1
11 -4 7 -5 -3 -12 1 -14 7 -3 7 -6 9 -6 5z"/>
<path d="M1173 2546 c1 -11 11 -20 24 -22 25 -4 39 11 22 22 -8 5 -9 3 -5 -5
6 -8 2 -11 -10 -9 -11 2 -22 10 -26 18 -6 11 -7 10 -5 -4z"/>
<path d="M1238 2548 c7 -7 16 -7 28 0 14 8 13 10 -10 10 -18 0 -24 -4 -18 -10z"/>
<path d="M1310 2549 c-12 -8 -10 -9 8 -4 16 5 22 3 20 -7 -4 -18 44 -17 49 2
3 9 1 11 -4 5 -12 -15 -44 -18 -41 -4 4 16 -14 21 -32 8z"/>
<path d="M910 2533 c0 -6 8 -17 18 -24 16 -13 16 -13 2 6 -8 11 -16 22 -17 24
-2 2 -3 0 -3 -6z"/>
<path d="M1030 2530 c0 -5 5 -10 10 -10 6 0 10 5 10 10 0 6 -4 10 -10 10 -5 0
-10 -4 -10 -10z"/>
<path d="M1270 2530 c0 -5 5 -10 10 -10 6 0 10 5 10 10 0 6 -4 10 -10 10 -5 0
-10 -4 -10 -10z"/>
<path d="M990 2516 c0 -2 7 -6 15 -10 8 -3 15 -1 15 4 0 6 -7 10 -15 10 -8 0
-15 -2 -15 -4z"/>
<path d="M1060 2510 c0 -5 7 -7 15 -4 8 4 15 8 15 10 0 2 -7 4 -15 4 -8 0 -15
-4 -15 -10z"/>
<path d="M1147 2513 c-3 -5 6 -9 20 -10 19 -1 22 1 12 8 -17 11 -26 11 -32 2z"/>
<path d="M1226 2511 c-4 -5 3 -7 14 -4 23 6 26 13 6 13 -8 0 -17 -4 -20 -9z"/>
<path d="M1308 2513 c7 -3 16 -2 19 1 4 3 -2 6 -13 5 -11 0 -14 -3 -6 -6z"/>
<path d="M1386 2512 c-2 -4 4 -8 14 -8 10 0 16 4 14 8 -3 4 -9 8 -14 8 -5 0
-11 -4 -14 -8z"/>
<path d="M975 2489 c-6 -8 -4 -10 5 -4 10 6 12 4 6 -11 -6 -15 -5 -17 5 -6 9
9 10 15 2 23 -8 8 -13 7 -18 -2z"/>
<path d="M1030 2490 c0 -5 5 -10 10 -10 6 0 10 5 10 10 0 6 -4 10 -10 10 -5 0
-10 -4 -10 -10z"/>
<path d="M1084 2489 c-3 -6 -1 -16 5 -22 9 -9 10 -7 5 7 -6 15 -4 17 6 11 9
-5 11 -4 6 3 -9 15 -13 15 -22 1z"/>
<path d="M1270 2490 c0 -5 5 -10 10 -10 6 0 10 5 10 10 0 6 -4 10 -10 10 -5 0
-10 -4 -10 -10z"/>
<path d="M1325 2485 c-3 -8 -7 -21 -9 -28 -2 -8 1 -14 8 -14 8 0 11 10 8 25
-4 19 -2 23 8 17 9 -5 11 -4 6 3 -10 16 -16 15 -21 -3z"/>
<path d="M1435 2490 c-11 -5 -14 -9 -7 -9 7 -1 11 -5 8 -9 -3 -5 1 -9 8 -9 8
0 12 7 8 15 -4 11 -1 13 8 7 9 -5 11 -4 6 3 -4 7 -8 12 -9 11 -1 0 -11 -4 -22
-9z"/>
<path d="M1228 2467 c-3 -14 0 -24 7 -24 7 0 10 10 7 24 -2 13 -6 23 -7 23 -1
0 -5 -10 -7 -23z"/>
<path d="M1390 2486 c0 -2 8 -10 18 -17 15 -13 16 -12 3 4 -13 16 -21 21 -21
13z"/>
<path d="M1250 2471 c0 -6 4 -13 10 -16 6 -3 7 1 4 9 -7 18 -14 21 -14 7z"/>
<path d="M1296 2463 c-6 -14 -5 -15 5 -6 7 7 10 15 7 18 -3 3 -9 -2 -12 -12z"/>
<path d="M1040 2466 c0 -2 7 -7 16 -10 8 -3 12 -2 9 4 -6 10 -25 14 -25 6z"/>
<path d="M914 2429 c1 -15 4 -31 8 -35 4 -4 5 4 3 16 -3 13 0 29 5 35 7 8 5
12 -4 12 -8 0 -13 -11 -12 -28z"/>
<path d="M1159 2458 c-5 -18 -6 -38 -1 -34 7 8 12 36 6 36 -2 0 -4 -1 -5 -2z"/>
<path d="M1188 2453 c10 -4 9 -10 -5 -27 l-18 -21 22 19 c23 19 22 37 0 35 -8
0 -8 -2 1 -6z"/>
<path d="M1356 2451 c-3 -4 3 -16 13 -25 14 -13 18 -14 18 -2 0 8 -3 15 -6 14
-19 -2 -24 4 -11 12 9 6 10 10 3 10 -6 0 -14 -4 -17 -9z"/>
<path d="M969 2433 c-13 -16 -12 -17 4 -4 9 7 17 15 17 17 0 8 -8 3 -21 -13z"/>
<path d="M1097 2439 c7 -7 15 -10 18 -7 3 3 -2 9 -12 12 -14 6 -15 5 -6 -5z"/>
<path d="M991 2417 c-13 -21 -12 -21 5 -5 10 10 16 20 13 22 -3 3 -11 -5 -18
-17z"/>
<path d="M1069 2427 c6 -8 9 -16 6 -19 -3 -2 2 -5 10 -5 13 0 13 3 -2 19 -19
21 -31 25 -14 5z"/>
<path d="M947 2409 c7 -7 15 -10 18 -7 3 3 -2 9 -12 12 -14 6 -15 5 -6 -5z"/>
<path d="M1115 2410 c3 -5 8 -10 11 -10 2 0 4 5 4 10 0 6 -5 10 -11 10 -5 0
-7 -4 -4 -10z"/>
<path d="M1228 2409 c6 -9 9 -18 6 -22 -3 -3 1 -4 10 -3 8 1 18 5 21 9 3 4 2
5 -2 2 -3 -3 -16 3 -27 12 -15 14 -18 14 -8 2z"/>
<path d="M1310 2406 c7 -7 13 -7 20 0 6 6 3 10 -10 10 -13 0 -16 -4 -10 -10z"/>
<path d="M995 2391 c-3 -5 -2 -12 3 -15 5 -3 9 1 9 9 0 17 -3 19 -12 6z"/>
<path d="M1174 2392 c4 -3 14 -7 22 -8 9 -1 13 0 10 4 -4 3 -14 7 -22 8 -9 1
-13 0 -10 -4z"/>
<path d="M910 2369 c0 -5 5 -7 10 -4 6 3 10 8 10 11 0 2 -4 4 -10 4 -5 0 -10
-5 -10 -11z"/>
<path d="M1133 2341 c0 -11 5 -18 9 -15 4 3 5 11 1 19 -7 21 -12 19 -10 -4z"/>
<path d="M1175 2330 c3 -5 8 -10 11 -10 2 0 4 5 4 10 0 6 -5 10 -11 10 -5 0
-7 -4 -4 -10z"/>
<path d="M1240 2330 c-12 -7 -10 -9 7 -7 12 0 19 5 17 9 -6 10 -6 10 -24 -2z"/>
<path d="M1335 2330 c-3 -5 -1 -10 4 -10 6 0 11 5 11 10 0 6 -2 10 -4 10 -3 0
-8 -4 -11 -10z"/>
<path d="M1450 2329 c0 -5 5 -7 10 -4 6 3 10 8 10 11 0 2 -4 4 -10 4 -5 0 -10
-5 -10 -11z"/>
<path d="M1090 2310 c0 -5 5 -10 11 -10 5 0 7 5 4 10 -3 6 -8 10 -11 10 -2 0
-4 -4 -4 -10z"/>
<path d="M1420 2316 c0 -2 8 -10 18 -17 15 -13 16 -12 3 4 -13 16 -21 21 -21
13z"/>
<path d="M950 2293 c0 -6 8 -17 18 -24 16 -13 16 -13 2 6 -8 11 -16 22 -17 24
-2 2 -3 0 -3 -6z"/>
<path d="M1165 2270 c-3 -6 1 -7 9 -4 18 7 21 14 7 14 -6 0 -13 -4 -16 -10z"/>
<path d="M976 2223 c-6 -14 -5 -15 5 -6 7 7 10 15 7 18 -3 3 -9 -2 -12 -12z"/>
<path d="M3671 1038 c-12 -32 -8 -50 15 -64 41 -28 95 33 64 72 -20 23 -69 18
-79 -8z"/>
<path d="M4100 885 c-93 -19 -160 -68 -203 -148 -20 -38 -22 -59 -25 -213 -3
-143 -1 -172 12 -183 24 -20 56 -4 57 27 0 15 1 88 2 162 2 128 4 138 30 182
71 122 220 142 319 44 52 -52 59 -84 59 -243 0 -152 7 -183 39 -183 36 0 42
34 38 199 -4 144 -6 160 -30 206 -60 116 -178 175 -298 150z"/>
<path d="M498 840 c-62 -39 -78 -54 -78 -74 0 -36 27 -40 82 -11 26 14 48 22
49 18 0 -5 0 -97 0 -207 0 -196 5 -236 34 -236 40 0 43 20 44 281 1 257 -2
279 -38 279 -9 0 -51 -22 -93 -50z"/>
<path d="M748 878 c-12 -10 -14 -19 -7 -35 10 -26 4 -26 247 -24 89 1 162 -1
162 -5 0 -4 -26 -55 -59 -113 -32 -58 -110 -201 -175 -317 -64 -116 -116 -218
-116 -226 0 -9 7 -21 15 -28 31 -26 50 -3 145 175 29 55 56 105 60 110 4 6 24
42 45 80 21 39 73 134 117 212 109 196 122 183 -180 183 -175 0 -242 -3 -254
-12z"/>
<path d="M1493 872 c-128 -46 -194 -143 -189 -279 3 -79 26 -131 83 -186 104
-101 291 -98 392 7 103 108 102 285 -2 390 -77 77 -186 103 -284 68z m140 -66
c77 -14 151 -111 150 -196 -2 -160 -170 -256 -308 -176 -151 89 -124 319 45
370 25 7 52 12 60 11 8 -1 32 -5 53 -9z"/>
<path d="M2145 878 c-179 -65 -245 -283 -131 -434 58 -78 160 -122 256 -111
l48 6 -49 -86 c-52 -89 -56 -108 -27 -127 14 -8 22 -6 37 9 31 31 212 350 226
398 28 93 -4 214 -74 281 -68 65 -201 95 -286 64z m148 -69 c21 -5 53 -24 73
-41 147 -129 62 -360 -132 -360 -187 -1 -275 243 -130 358 62 50 119 63 189
43z"/>
<path d="M2882 881 c-10 -6 -13 -53 -13 -210 1 -182 3 -205 21 -241 53 -104
199 -130 290 -53 27 23 31 23 46 8 89 -88 249 -64 303 47 19 41 21 61 21 240
0 209 -4 228 -50 213 -23 -7 -22 4 -22 -215 0 -114 -4 -175 -13 -197 -34 -82
-152 -90 -202 -14 -14 22 -17 55 -18 219 0 158 -3 195 -15 202 -50 32 -57 6
-59 -197 -1 -101 -5 -193 -10 -205 -34 -88 -152 -97 -201 -15 -18 29 -20 51
-20 218 0 130 -4 189 -12 197 -14 14 -28 15 -46 3z"/>
<path d="M3690 881 c-13 -8 -15 -46 -14 -258 2 -303 0 -280 26 -289 44 -14 48
10 48 281 0 250 -3 276 -34 275 -6 0 -18 -5 -26 -9z"/>
<path d="M4720 868 c-185 -71 -239 -318 -99 -457 98 -97 279 -107 370 -21 35
33 39 41 29 59 -15 28 -30 26 -90 -11 -100 -62 -227 -33 -285 66 -44 74 -52
71 201 71 148 0 232 3 241 11 12 8 14 22 8 62 -9 69 -58 148 -118 188 -85 58
-163 68 -257 32z m195 -80 c17 -9 40 -27 51 -40 26 -28 57 -88 50 -95 -8 -8
-396 -9 -396 -1 0 39 64 121 110 140 66 28 126 26 185 -4z"/>
</g>
</svg>
